<svg width="185" height="171" viewBox="0 0 185 171" fill="none" xmlns="http://www.w3.org/2000/svg">
<circle cx="40.9919" cy="40.8383" r="39.6643" fill="#FAFAF9" stroke="#E7E5E4" stroke-width="0.723639"/>
<path d="M40.2501 59.9885L37.2463 58.2429L37.2583 62.4718L40.2621 64.2175L40.2501 59.9885Z" fill="#E5BD13"/>
<path d="M63.5256 46.6348L60.5218 44.8892L37.2463 58.2428L40.2501 59.9884L63.5256 46.6348Z" fill="#F1C40F"/>
<path d="M40.25 59.9884L40.262 64.2173L63.5375 50.8637L63.5255 46.6348L40.25 59.9884Z" fill="#D6B218"/>
<path d="M47.1046 56.9325L47.112 59.5301L47.0719 59.5532L44.8259 58.2481L47.1046 56.9325Z" fill="#E5BD13"/>
<path d="M43.1819 59.1128L44.8261 58.248L47.072 59.5532L43.1892 61.7104L43.1819 59.1128Z" fill="#F1C40F"/>
<path d="M45.2795 58.5115L43.1819 59.5246V59.1128L44.8261 58.248L45.2795 58.5115Z" fill="white"/>
<path d="M60.5985 49.1418L60.6059 51.7394L60.5658 51.7626L58.3198 50.4574L60.5985 49.1418Z" fill="#E5BD13"/>
<path d="M49.9988 55.2615L58.3198 50.4574L60.5658 51.7625L50.0061 57.8591L49.9988 55.2615Z" fill="#F1C40F"/>
<path d="M58.7733 50.7209L49.9988 55.6733V55.2615L58.3198 50.4574L58.7733 50.7209Z" fill="white"/>
<path d="M30.8507 54.5261L27.8469 52.7805L27.8589 57.0094L30.8627 58.755L30.8507 54.5261Z" fill="#E5BD13"/>
<path d="M54.1262 41.1725L51.1224 39.4269L27.8469 52.7805L30.8507 54.5261L54.1262 41.1725Z" fill="#F1C40F"/>
<path d="M30.8508 54.5261L30.8628 58.755L54.1383 45.4014L54.1263 41.1725L30.8508 54.5261Z" fill="#D6B218"/>
<path d="M37.7055 51.4702L37.7128 54.0678L37.6727 54.0909L35.4268 52.7858L37.7055 51.4702Z" fill="#D4DAE8"/>
<path d="M33.7825 53.6505L35.4267 52.7858L37.6726 54.0909L33.7898 56.2481L33.7825 53.6505Z" fill="#F1C40F"/>
<path d="M35.8801 53.0493L33.7825 54.0623V53.6505L35.4267 52.7858L35.8801 53.0493Z" fill="white"/>
<path d="M51.1994 43.6794L51.2067 46.277L51.1666 46.3002L48.9207 44.995L51.1994 43.6794Z" fill="#D4DAE8"/>
<path d="M40.5996 49.7991L48.9207 44.995L51.1666 46.3001L40.607 52.3967L40.5996 49.7991Z" fill="#F1C40F"/>
<path d="M49.3741 45.2585L40.5996 50.2109V49.7991L48.9207 44.995L49.3741 45.2585Z" fill="white"/>
<path d="M21.4513 49.0637L18.4475 47.3181L18.4595 51.547L21.4633 53.2926L21.4513 49.0637Z" fill="#E5BD13"/>
<path d="M44.7268 35.7102L41.723 33.9646L18.4475 47.3182L21.4513 49.0638L44.7268 35.7102Z" fill="#F1C40F"/>
<path d="M21.4512 49.0638L21.4632 53.2927L44.7387 39.9391L44.7267 35.7102L21.4512 49.0638Z" fill="#D6B218"/>
<path d="M28.3058 46.0078L28.3132 48.6054L28.273 48.6285L26.0271 47.3234L28.3058 46.0078Z" fill="#D4DAE8"/>
<path d="M24.3828 48.1881L26.027 47.3234L28.273 48.6285L24.3902 50.7857L24.3828 48.1881Z" fill="#F1C40F"/>
<path d="M26.4805 47.5869L24.3828 48.5999V48.1881L26.027 47.3234L26.4805 47.5869Z" fill="white"/>
<path d="M41.7999 38.217L41.8073 40.8146L41.7672 40.8377L39.5212 39.5326L41.7999 38.217Z" fill="#D4DAE8"/>
<path d="M31.2 44.3369L39.521 39.5327L41.7669 40.8378L31.2073 46.9344L31.2 44.3369Z" fill="#F1C40F"/>
<path d="M39.9745 39.7962L31.2 44.7486V44.3369L39.521 39.5327L39.9745 39.7962Z" fill="white"/>
<path d="M18.4463 46.939L18.4489 47.3182L40.2515 59.9792L40.2488 59.6L18.4463 46.939Z" fill="#E5BD13"/>
<path d="M40.2488 59.6L40.2514 59.9792L63.5269 46.6348L63.5243 46.2556L40.2488 59.6Z" fill="#C6A51A"/>
<path d="M18.4463 46.939L40.2488 59.6L63.5243 46.2556L41.6108 33.5525L18.4463 46.939Z" fill="#F1C40F"/>
<path d="M54.8869 27.0774L54.8048 48.5755L42.0847 55.9677L42.1668 34.4695L54.8869 27.0774Z" fill="#D4D6D6"/>
<path d="M42.1668 34.4695L42.0847 55.9677L25.4253 46.3493L25.5074 24.8512L42.1668 34.4695Z" fill="#E0E2E2"/>
<path d="M27.1601 28.074L26.6323 27.7693L26.5574 37.4096L27.0896 37.142L27.1601 28.074Z" fill="#D4D6D6"/>
<path d="M27.0896 37.142L26.5574 37.4096L40.9608 45.7251L40.9652 45.1526L27.0896 37.142Z" fill="#ECF0F1"/>
<path d="M27.1601 28.0741L27.0896 37.1421L40.9652 45.1527L41.0349 36.0847L27.1601 28.0741Z" fill="#C4C6C6"/>
<path d="M27.1601 39.6277L26.6323 39.323L26.5574 44.7342L27.0896 44.4665L27.1601 39.6277Z" fill="#D4D6D6"/>
<path d="M27.0896 44.4666L26.5574 44.7342L40.9608 53.0497L40.9652 52.4772L27.0896 44.4666Z" fill="#ECF0F1"/>
<path d="M27.1601 39.6277L27.0896 44.4665L40.9652 52.4771L41.0349 47.6383L27.1601 39.6277Z" fill="#C4C6C6"/>
<path d="M53.0979 30.3556L53.6257 30.0509L53.7006 39.6913L53.1684 39.4236L53.0979 30.3556Z" fill="#E0E2E2"/>
<path d="M53.1683 39.4236L53.7006 39.6912L43.345 45.6697L43.3406 45.0972L53.1683 39.4236Z" fill="#ECF0F1"/>
<path d="M53.098 30.3556L53.1684 39.4236L43.3407 45.0972L43.271 36.0292L53.098 30.3556Z" fill="#C4C6C6"/>
<path d="M53.0979 41.9093L53.6257 41.6046L53.7006 47.0158L53.1684 46.7482L53.0979 41.9093Z" fill="#E0E2E2"/>
<path d="M53.1683 46.7482L53.7006 47.0158L43.345 52.9943L43.3406 52.4218L53.1683 46.7482Z" fill="#ECF0F1"/>
<path d="M53.098 41.9093L53.1684 46.7481L43.3407 52.4217L43.271 47.5829L53.098 41.9093Z" fill="#C4C6C6"/>
<path d="M54.8871 27.0774L42.167 34.4695L25.5076 24.8512L38.2277 17.4591L54.8871 27.0774Z" fill="#ECF0F1"/>
<path d="M38.2288 18.7653V19.3691L43.7417 22.5516L44.263 22.2486L38.2288 18.7653Z" fill="#C4C6C6"/>
<path d="M27.7627 24.8478L28.2839 25.1487L38.2288 19.3691V18.7653L27.7627 24.8478Z" fill="#D4D6D6"/>
<path d="M43.7418 22.5517L38.2288 19.3691L28.2839 25.1488L33.7962 28.3313L43.7418 22.5517Z" fill="#E0E2E2"/>
<path d="M45.7361 23.0951V23.6989L51.249 26.8814L51.7704 26.5785L45.7361 23.0951Z" fill="#C4C6C6"/>
<path d="M35.27 29.1777L35.7912 29.4785L45.7361 23.6989V23.0951L35.27 29.1777Z" fill="#D4D6D6"/>
<path d="M51.2491 26.8815L45.7362 23.699L35.7913 29.4786L41.3035 32.6611L51.2491 26.8815Z" fill="#E0E2E2"/>
<path d="M45.119 39.4675L45.5378 40.2646L45.2784 40.4144L44.7061 40.7424L45.119 39.4675Z" fill="#3F434F"/>
<path d="M45.2783 40.4143L45.2828 41.9911L44.9698 42.1718L44.9653 40.595L45.2783 40.4143Z" fill="#3F434F"/>
<path d="M46.8333 41.2366L46.8342 41.5741L44.6733 42.8219L44.6724 42.4844L46.8333 41.2366Z" fill="#3F434F"/>
<path d="M50.7824 36.2917L50.7855 37.4152C50.7865 37.77 50.5816 38.182 50.3095 38.3909L50.3123 39.4035C50.5032 39.3155 50.6471 39.3237 50.6474 39.4297L49.8049 39.9162C49.8046 39.8102 49.9479 39.6361 50.1387 39.5038L50.1358 38.4912C50.0114 38.5408 49.904 38.5288 49.8201 38.4761C49.7211 38.4024 49.6563 38.2646 49.6558 38.0675L49.6526 36.9441L50.7824 36.2917Z" fill="#3F434F"/>
<path d="M46.5305 39.6914L46.535 41.2682L46.222 41.4489L46.2175 39.8721L46.5305 39.6914Z" fill="#3F434F"/>
<path d="M46.3729 38.7433L46.7896 39.5416L46.5302 39.6914L45.96 40.0182L46.3729 38.7433Z" fill="#3F434F"/>
<path d="M48.4856 40.9967C48.427 40.9644 48.3927 40.8977 48.3927 40.8139L48.3836 37.4402C48.3815 37.2927 48.4866 37.1119 48.6159 37.0362L51.5467 35.3443C51.6173 35.3039 51.6891 35.2989 51.7466 35.3312C51.8042 35.3645 51.8375 35.4322 51.8375 35.517L51.8476 38.8907C51.8476 39.0382 51.7456 39.219 51.6204 39.2917L48.6896 40.9836C48.6492 41.0068 48.6078 41.0189 48.5694 41.0189C48.5391 41.0189 48.5108 41.0118 48.4856 40.9967ZM51.6093 35.4514L48.6785 37.1433C48.5876 37.1958 48.5068 37.3372 48.5068 37.4402L48.5159 40.8139C48.5169 40.8512 48.528 40.8785 48.5462 40.8896C48.5653 40.8977 48.5936 40.8957 48.627 40.8765L51.5577 39.1846C51.6466 39.1331 51.7244 38.9957 51.7244 38.8907L51.7143 35.517C51.7143 35.4787 51.7032 35.4494 51.685 35.4383C51.6789 35.4352 51.6719 35.4332 51.6638 35.4332C51.6486 35.4332 51.6295 35.4393 51.6093 35.4514Z" fill="#3F434F"/>
<path d="M44.1207 43.5148C44.0632 43.4815 44.0308 43.4148 44.0308 43.333L44.0218 39.9594C44.0197 39.8109 44.1248 39.6291 44.254 39.5554L47.1848 37.8625C47.2555 37.8211 47.3262 37.816 47.3848 37.8504C47.4434 37.8837 47.4757 37.9514 47.4757 38.0352L47.4858 41.4098C47.4858 41.5603 47.3858 41.7371 47.2576 41.8108L44.3268 43.5027C44.2874 43.5259 44.246 43.537 44.2076 43.537C44.1763 43.537 44.147 43.53 44.1207 43.5148ZM47.2474 37.9695L44.3166 39.6624C44.2257 39.7149 44.145 39.8553 44.145 39.9594L44.154 43.333C44.154 43.3694 44.1651 43.3966 44.1833 43.4078C44.2025 43.4169 44.2328 43.4138 44.2651 43.3956L47.1949 41.7038C47.2838 41.6523 47.3626 41.5149 47.3626 41.4098L47.3525 38.0352C47.3525 37.9968 47.3414 37.9685 47.3232 37.9574C47.3171 37.9544 47.3091 37.9524 47.301 37.9524C47.2858 37.9524 47.2676 37.9584 47.2474 37.9695Z" fill="#3F434F"/>
<circle cx="92.938" cy="130.838" r="39.6643" fill="#FAFAF9" stroke="#E7E5E4" stroke-width="0.723639"/>
<path d="M102.406 149.65C102.406 150.44 102.122 150.999 101.668 151.263L98.6948 152.992C99.1482 152.728 98.7687 152.339 98.7687 151.538C98.7792 149.946 98.3153 147.826 96.9235 147.024C96.2277 146.624 95.5845 146.581 95.1311 146.845L98.1044 145.126C98.5578 144.852 99.1904 144.894 99.8968 145.295C101.289 146.096 102.406 148.047 102.406 149.65Z" fill="#111D33"/>
<path d="M80.5207 137.017C80.5207 137.808 80.236 138.367 79.7827 138.63L76.8094 140.359C77.2627 140.096 76.6456 139.448 76.6456 138.647C76.6562 137.054 76.4298 135.193 75.038 134.392C74.3422 133.991 73.699 133.949 73.2456 134.212L76.2189 132.494C76.6723 132.22 77.3049 132.262 78.0113 132.663C79.4031 133.464 80.5207 135.414 80.5207 137.017Z" fill="#111D33"/>
<path d="M71.3523 132.785L83.0751 125.972C83.1574 125.924 83.275 125.933 83.4053 126.008L71.6825 132.821C71.5522 132.745 71.4346 132.737 71.3523 132.785Z" fill="#4C5C75"/>
<path d="M71.6824 132.821L83.4052 126.008L84.1082 126.387L72.3854 133.199L71.6824 132.821Z" fill="#4C5C75"/>
<path d="M72.3857 133.199L84.1085 126.386L105.081 138.489L93.3579 145.302L72.3857 133.199Z" fill="#383736"/>
<path d="M93.3577 145.302L105.08 138.489L114.22 143.766L102.498 150.579L93.3577 145.302Z" fill="#383736"/>
<path d="M114.303 143.812V145.477C114.303 145.616 114.247 145.709 114.172 145.756L102.452 152.574C102.527 152.527 101.59 151.945 101.59 151.805L102.583 150.63L114.303 143.812Z" fill="#4C5C75"/>
<path d="M102.498 150.579L114.22 143.766L114.304 143.814L102.581 150.627L102.498 150.579Z" fill="#383736"/>
<path d="M102.581 150.627L102.576 152.288C102.576 152.568 102.378 152.68 102.135 152.54L71.6763 134.988C71.4285 134.845 71.228 134.514 71.2288 134.249L71.2322 133.043C71.2329 132.776 71.4346 132.677 71.6824 132.82L71.9349 132.933L93.3576 145.302L102.497 150.579L102.581 150.627Z" fill="#1D2943"/>
<path d="M93.3622 143.7L105.085 136.888L105.08 138.489L93.3577 145.301L93.3622 143.7Z" fill="#A0A8AA"/>
<path d="M72.3899 131.598L84.1127 124.786L105.085 136.888L93.362 143.701L72.3899 131.598Z" fill="#A0A8AA"/>
<path d="M93.3624 143.701L93.3579 145.302L72.3857 133.199L72.3903 131.598L93.3624 143.701Z" fill="#1D2943"/>
<path d="M78.3444 138.816L71.7986 135.029C72.0798 133.806 72.9992 133.254 73.9063 133.254C74.4003 133.254 74.9162 133.405 75.4346 133.706C77.0729 134.65 78.3493 136.935 78.3444 138.816Z" fill="#111D33"/>
<path d="M75.039 134.393C76.4257 135.194 77.5529 137.146 77.5484 138.74C77.5439 140.341 76.4093 140.987 75.0225 140.187C73.6291 139.382 72.5018 137.43 72.5064 135.829C72.5109 134.235 73.6455 133.588 75.039 134.393Z" fill="#4C5C75"/>
<path d="M75.0281 135.402C75.971 135.946 76.7294 137.256 76.7264 138.331C76.7259 139.422 75.965 139.856 75.0171 139.305C74.0794 138.764 73.326 137.45 73.3291 136.37C73.3321 135.298 74.093 134.865 75.0281 135.402ZM74.712 135.579C74.2812 135.463 73.9755 135.563 73.759 135.893C74.0125 136.107 74.2506 136.312 74.4938 136.508C74.5058 136.518 74.5173 136.526 74.5284 136.532C74.6139 136.582 74.6694 136.535 74.6788 136.421C74.6842 136.315 74.6846 136.203 74.6874 136.095C74.6956 135.929 74.7038 135.76 74.712 135.579ZM75.3783 136.792C75.3862 136.952 75.4378 137.057 75.5454 137.12C75.5709 137.134 75.5995 137.146 75.6314 137.156C75.698 137.18 75.7647 137.201 75.8288 137.22C75.9826 137.268 76.1365 137.312 76.3006 137.36C76.0892 136.787 75.7826 136.33 75.3602 135.959L75.3473 135.978C75.3593 136.25 75.3688 136.521 75.3783 136.792ZM76.0545 139.076C76.3039 138.907 76.4304 138.626 76.447 138.202C76.229 138.171 76.0238 138.129 75.8263 138.112C75.7416 138.105 75.708 138.18 75.759 138.315C75.8532 138.564 75.9526 138.813 76.0545 139.076ZM74.2473 137.445C74.2963 137.362 74.2633 137.239 74.1584 137.126C73.9845 136.937 73.8079 136.752 73.6135 136.546C73.62 136.965 73.7266 137.375 73.9614 137.82C74.0232 137.744 74.0773 137.675 74.1314 137.606C74.1701 137.551 74.2138 137.506 74.2473 137.445ZM75.0291 138.991C75.1933 139.085 75.3563 139.146 75.523 139.173C75.3903 138.916 75.2704 138.67 75.1325 138.434C75.1071 138.39 75.0467 138.336 74.9992 138.309C74.9751 138.295 74.9542 138.288 74.943 138.292C74.7837 138.36 74.6397 138.459 74.4803 138.553C74.6687 138.742 74.8496 138.887 75.0291 138.991ZM75.0264 136.934C74.8291 136.82 74.662 136.918 74.6614 137.145C74.6607 137.374 74.8241 137.661 75.024 137.776C75.0256 137.777 75.0271 137.778 75.0287 137.779C75.2264 137.893 75.3909 137.803 75.3941 137.577C75.3998 137.349 75.2287 137.051 75.0307 136.936C75.0293 136.936 75.0278 136.935 75.0264 136.934ZM75.0301 136.523C74.9737 136.494 74.9275 136.52 74.9273 136.582C74.9271 136.647 74.9731 136.726 75.0294 136.759C75.0858 136.791 75.1295 136.766 75.1322 136.703C75.1324 136.638 75.0865 136.556 75.0301 136.523ZM74.7518 137.822C74.752 137.759 74.7059 137.678 74.6537 137.648C74.6524 137.647 74.651 137.646 74.6497 137.645C74.5933 137.613 74.547 137.639 74.5469 137.701C74.5467 137.766 74.5927 137.845 74.649 137.878C74.7028 137.909 74.7491 137.886 74.7518 137.822ZM75.6478 137.688C75.7042 137.72 75.7505 137.697 75.7506 137.632C75.7533 137.571 75.7073 137.489 75.6527 137.458C75.6513 137.457 75.6499 137.456 75.6485 137.455C75.5947 137.424 75.5484 137.451 75.5482 137.512C75.5481 137.577 75.594 137.657 75.6478 137.688ZM74.3847 136.959C74.4411 136.991 74.4848 136.966 74.4875 136.903C74.4877 136.84 74.444 136.76 74.3896 136.728C74.3882 136.728 74.3868 136.727 74.3854 136.726C74.3316 136.695 74.2853 136.721 74.2851 136.783C74.285 136.848 74.3284 136.926 74.3847 136.959ZM75.4436 138.222C75.4438 138.158 75.4001 138.078 75.3457 138.047C75.3443 138.046 75.3429 138.045 75.3414 138.045C75.2876 138.014 75.2414 138.04 75.2412 138.102C75.241 138.167 75.2844 138.245 75.3408 138.277C75.3971 138.31 75.4408 138.285 75.4436 138.222Z" fill="white"/>
<path d="M105.475 121.162L105.438 136.687L105.373 136.724L93.3459 143.7V143.691L72.3892 131.599L72.4263 116.074C72.4263 115.832 72.5194 115.656 72.6589 115.572L84.7511 108.568C84.8999 108.484 85.0952 108.493 85.3092 108.623L104.694 119.813C105.038 120.009 105.326 120.427 105.429 120.846C105.457 120.948 105.475 121.06 105.475 121.162Z" fill="#FEBC1F"/>
<path d="M104.694 119.814L85.3105 108.622C85.0927 108.497 84.8955 108.485 84.7532 108.568L72.6572 115.573C72.7996 115.491 72.9967 115.502 73.2145 115.628L92.5985 126.819C93.0314 127.069 93.3819 127.675 93.3805 128.172L93.3417 143.694L105.438 136.689L105.476 121.167C105.478 120.669 105.127 120.064 104.694 119.814Z" fill="#FFDE9B"/>
<path d="M105.473 121.169L105.436 136.69L93.3447 143.697L93.3817 128.176C93.3817 127.677 93.0304 127.067 92.5959 126.817L104.696 119.81C105.131 120.06 105.482 120.67 105.473 121.169Z" fill="#FFD06C"/>
<path d="M92.5983 126.819C93.0311 127.069 93.3816 127.675 93.3802 128.172L93.3415 143.694L72.3899 131.598L72.4287 116.076C72.4301 115.578 72.7814 115.378 73.2143 115.628L92.5983 126.819Z" fill="#FEBC1F"/>
<path d="M93.51 134.695L105.233 127.882C105.31 127.837 105.416 127.844 105.533 127.911L93.8103 134.724C93.6933 134.656 93.5869 134.65 93.51 134.695Z" fill="#F8F9FE"/>
<path d="M114.647 141.914V143.523C114.647 143.653 114.601 143.756 114.517 143.793L102.797 150.611C102.871 150.565 102.135 150.345 102.135 150.214L102.927 148.732L114.647 141.914Z" fill="#E9E7FC"/>
<path d="M114.647 141.914L102.927 148.732C102.927 148.462 102.211 148.814 101.978 148.675V147.699L113.698 140.881L114.228 141.188C114.461 141.318 114.647 141.644 114.647 141.914Z" fill="#F3F1FC"/>
<path d="M93.8096 134.726L105.532 127.913L110.606 130.842L98.8829 137.655C96.8588 136.6 94.1226 135.379 93.8096 134.726Z" fill="#F8F9FE"/>
<path d="M101.991 143.798L113.714 136.985L113.703 140.885L101.98 147.698C100.66 146.305 100.421 144.988 101.991 143.798Z" fill="#F8F9FE"/>
<path d="M101.898 143.44L113.621 136.627C113.68 136.75 113.714 136.875 113.713 136.986L101.991 143.798C101.418 143.857 101.584 143.672 101.898 143.44Z" fill="#F8F9FE"/>
<path d="M99.2126 138.024L110.935 131.212L113.62 136.627L101.898 143.44C100.62 141.728 99.6984 139.929 99.2126 138.024Z" fill="#F3F1FC"/>
<path d="M113.039 136.454L110.209 138.099L107.656 139.581L106.456 140.277L102.085 142.818L101.584 141.809L99.7944 138.199L103.862 135.835L109.368 132.635L110.57 131.938L110.748 131.834L111.792 133.941L113.039 136.454Z" fill="#497BFE"/>
<path d="M98.8836 137.653C99.011 137.727 99.1326 137.864 99.213 138.024L101.898 143.44C101.957 143.562 101.991 143.687 101.991 143.798L101.98 147.698L102.505 148.001C102.737 148.135 102.926 148.461 102.925 148.728L102.921 150.337C102.92 150.606 102.73 150.713 102.498 150.579L93.3577 145.302L93.3622 143.701L93.387 134.965C93.3877 134.697 93.5781 134.59 93.8103 134.724L98.8836 137.653Z" fill="#DEDFFB"/>
<path d="M98.8833 137.653L110.606 130.841C110.734 130.914 110.855 131.051 110.935 131.212L99.2127 138.024C99.1323 137.864 99.0107 137.727 98.8833 137.653Z" fill="#F8F9FE"/>
<path d="M100.077 141.71L100.073 143.063C100.073 143.329 99.884 143.435 99.6511 143.302L94.5859 140.377C94.3552 140.244 94.1689 139.92 94.1689 139.654L94.18 136.31C94.18 136.044 94.3685 135.937 94.5992 136.07L98.0211 138.046C98.1342 138.113 98.2451 138.23 98.3227 138.37L99.9638 141.313C100.037 141.444 100.077 141.588 100.077 141.71Z" fill="#497BFE"/>
<path d="M110.114 141.365L110.115 141.93L105.582 144.548L105.58 143.982L110.114 141.365Z" fill="#B0B8CF"/>
<path d="M110.111 140.136L110.113 140.703L105.579 143.321L105.577 142.753L110.111 140.136Z" fill="#B0B8CF"/>
<path d="M100.229 151.447L93.6846 147.662C93.9662 146.44 94.8844 145.885 95.7914 145.885C96.286 145.885 96.8027 146.038 97.3194 146.338C98.9583 147.283 100.236 149.569 100.229 151.447Z" fill="#111D33"/>
<path d="M96.9247 147.026C98.3114 147.826 99.4387 149.779 99.4342 151.372C99.4296 152.974 98.295 153.62 96.9083 152.82C95.5148 152.015 94.3876 150.063 94.3921 148.461C94.3966 146.868 95.5312 146.221 96.9247 147.026Z" fill="#4C5C75"/>
<path d="M96.9136 148.034C97.8565 148.579 98.6149 149.888 98.6119 150.964C98.6114 152.055 97.8505 152.488 96.9026 151.938C95.9649 151.397 95.2115 150.083 95.2146 149.003C95.2176 147.931 95.9785 147.497 96.9136 148.034ZM96.5975 148.212C96.1667 148.096 95.861 148.196 95.6445 148.525C95.898 148.74 96.1361 148.945 96.3793 149.141C96.3913 149.151 96.4028 149.159 96.4139 149.165C96.4994 149.215 96.5549 149.168 96.5643 149.053C96.5697 148.948 96.5701 148.836 96.5729 148.728C96.5811 148.562 96.5893 148.393 96.5975 148.212ZM97.2638 149.425C97.2717 149.584 97.3233 149.69 97.4309 149.752C97.4564 149.767 97.485 149.779 97.5169 149.789C97.5835 149.813 97.6502 149.834 97.7143 149.853C97.8681 149.901 98.022 149.945 98.1861 149.993C97.9747 149.42 97.6681 148.962 97.2457 148.592L97.2328 148.611C97.2448 148.883 97.2543 149.154 97.2638 149.425ZM97.94 151.708C98.1894 151.54 98.3159 151.259 98.3325 150.835C98.1145 150.804 97.9093 150.762 97.7118 150.745C97.6271 150.737 97.5935 150.812 97.6445 150.948C97.7387 151.197 97.8381 151.446 97.94 151.708ZM96.1328 150.078C96.1818 149.994 96.1488 149.872 96.0439 149.759C95.87 149.57 95.6934 149.385 95.499 149.179C95.5055 149.598 95.6121 150.008 95.8469 150.453C95.9087 150.376 95.9628 150.307 96.0169 150.238C96.0556 150.184 96.0993 150.139 96.1328 150.078ZM96.9146 151.623C97.0788 151.718 97.2418 151.778 97.4085 151.806C97.2758 151.549 97.1559 151.303 97.018 151.067C96.9926 151.023 96.9322 150.969 96.8847 150.942C96.8606 150.928 96.8397 150.921 96.8285 150.925C96.6692 150.992 96.5252 151.092 96.3658 151.186C96.5542 151.375 96.7351 151.52 96.9146 151.623ZM96.9119 149.567C96.7146 149.453 96.5475 149.551 96.5469 149.778C96.5462 150.007 96.7096 150.293 96.9095 150.409C96.9111 150.41 96.9126 150.411 96.9142 150.411C97.1119 150.526 97.2764 150.436 97.2796 150.21C97.2853 149.982 97.1142 149.684 96.9162 149.569C96.9148 149.568 96.9133 149.568 96.9119 149.567ZM96.9156 149.156C96.8592 149.126 96.813 149.153 96.8128 149.215C96.8126 149.279 96.8586 149.359 96.9149 149.392C96.9713 149.424 97.015 149.399 97.0177 149.336C97.0179 149.271 96.972 149.189 96.9156 149.156ZM96.6373 150.455C96.6375 150.392 96.5914 150.31 96.5392 150.28C96.5379 150.28 96.5365 150.279 96.5352 150.278C96.4788 150.246 96.4325 150.272 96.4324 150.334C96.4322 150.399 96.4781 150.478 96.5345 150.511C96.5883 150.542 96.6346 150.518 96.6373 150.455ZM97.5333 150.321C97.5897 150.353 97.636 150.33 97.6361 150.265C97.6388 150.203 97.5928 150.122 97.5382 150.09C97.5368 150.09 97.5354 150.089 97.534 150.088C97.4802 150.057 97.4339 150.083 97.4337 150.145C97.4336 150.21 97.4795 150.29 97.5333 150.321ZM96.2702 149.591C96.3266 149.624 96.3703 149.599 96.373 149.536C96.3732 149.473 96.3295 149.393 96.2751 149.361C96.2737 149.36 96.2723 149.36 96.2709 149.359C96.2171 149.328 96.1708 149.354 96.1706 149.416C96.1705 149.481 96.2139 149.559 96.2702 149.591ZM97.3291 150.854C97.3293 150.791 97.2856 150.711 97.2312 150.68C97.2298 150.679 97.2284 150.678 97.2269 150.678C97.1731 150.646 97.1269 150.673 97.1267 150.735C97.1265 150.799 97.1699 150.878 97.2263 150.91C97.2826 150.943 97.3263 150.918 97.3291 150.854Z" fill="white"/>
<g opacity="0.3">
<path d="M109.369 132.635L106.457 140.277L102.086 142.819L101.584 141.809L103.862 135.835L109.369 132.635Z" fill="white"/>
</g>
<g opacity="0.3">
<path d="M111.792 133.941L110.209 138.099L107.656 139.581L110.57 131.938L110.748 131.834L111.792 133.941Z" fill="white"/>
</g>
<path d="M104.965 143.426C105.05 143.377 105.121 143.413 105.122 143.511L105.125 144.862C105.126 144.964 105.055 145.082 104.97 145.131L103.086 146.219C103.001 146.268 102.933 146.23 102.933 146.128L102.929 144.777C102.929 144.679 102.996 144.563 103.081 144.514L104.965 143.426Z" fill="#FEBC1F"/>
<path d="M113.277 138.68C113.243 138.664 113.204 138.669 113.16 138.691L111.279 139.779C111.191 139.829 111.124 139.945 111.124 140.045L111.129 141.393C111.129 141.449 111.146 141.482 111.174 141.499L110.786 141.271C110.758 141.255 110.736 141.221 110.736 141.166V139.818C110.736 139.718 110.802 139.601 110.885 139.557L112.772 138.464C112.816 138.442 112.855 138.436 112.883 138.453L113.277 138.68Z" fill="#FFD06C"/>
<path d="M104.689 143.185L105.077 143.413C105.049 143.396 105.01 143.402 104.966 143.424L103.08 144.511C102.996 144.561 102.93 144.678 102.93 144.777L102.935 146.126C102.935 146.181 102.952 146.214 102.98 146.231L102.586 146.004C102.558 145.987 102.541 145.954 102.541 145.898L102.536 144.55C102.536 144.45 102.602 144.334 102.691 144.289L104.572 143.196C104.616 143.174 104.655 143.169 104.689 143.185Z" fill="#FFD06C"/>
<path d="M113.162 138.693C113.247 138.644 113.318 138.681 113.318 138.778L113.322 140.13C113.322 140.231 113.252 140.35 113.167 140.399L111.282 141.487C111.197 141.536 111.13 141.497 111.129 141.396L111.125 140.044C111.125 139.947 111.192 139.83 111.277 139.781L113.162 138.693Z" fill="#FEBC1F"/>
<path d="M98.9358 134.452C98.4046 134.452 97.974 134.883 97.974 135.414C97.974 134.883 97.5431 134.452 97.012 134.452C97.5431 134.452 97.9738 134.022 97.9738 133.49C97.9738 134.022 98.4046 134.452 98.9358 134.452Z" fill="#F8F9FE"/>
<circle cx="144.884" cy="40.8383" r="39.6643" fill="#FAFAF9" stroke="#E7E5E4" stroke-width="0.723639"/>
<path d="M164.69 34.5792L164.726 48.8177L162.653 50.0148C159.874 45.1184 159.884 40.3735 162.617 35.7764L164.69 34.5792Z" fill="#F3F1FC"/>
<path d="M162.65 50.0184L141.167 37.5265L141.131 23.2889L162.614 35.7808L162.65 50.0184Z" fill="#DEDFFB"/>
<path d="M159.666 43.4151L159.657 44.3287L159.647 51.7369L151.669 56.3682L143.655 51.7369L143.673 43.4151L146.821 41.5879L147.454 41.2171L147.662 41.0995L148.494 40.611L151.642 38.7838L159.666 43.4151Z" fill="#AA6256"/>
<path d="M159.661 43.4119L159.65 51.7387L151.671 56.3683L151.608 48.1022L159.661 43.4119Z" fill="#AA6256"/>
<path d="M159.662 43.4119L159.66 44.3324L151.671 48.9752L151.695 48.0415L159.662 43.4119Z" fill="#774B24"/>
<path d="M151.695 48.0416L151.671 56.3684L143.653 51.7388L143.676 43.412L151.695 48.0416Z" fill="#BF7D5A"/>
<path d="M159.661 43.412L156.514 45.24L154.839 46.2142L151.695 48.0429L143.675 43.4113L146.819 41.5851L148.496 40.6109L151.643 38.7822L159.661 43.412Z" fill="#8D613A"/>
<path d="M156.514 45.2399L154.839 46.2141L146.819 41.585L148.496 40.6108L156.514 45.2399Z" fill="#DBA660"/>
<path d="M155.878 45.6094L155.476 45.8444L147.456 41.2153L147.86 40.9803L155.878 45.6094Z" fill="#8D613A"/>
<path d="M156.514 45.2397L156.518 47.1627L156.082 47.03L155.722 47.6255L155.383 47.4176L154.844 48.1367L154.84 46.2138L156.514 45.2397Z" fill="#DBA660"/>
<path d="M162.617 35.7767L161.778 35.2887L163.851 34.0916L164.691 34.5796L162.617 35.7767Z" fill="#DBB846"/>
<path d="M125.419 35.4633C124.962 35.319 124.581 35.0389 124.195 34.7646L124.228 47.9092L125.652 48.7372L125.62 35.5035C125.556 35.498 125.489 35.4853 125.419 35.4633Z" fill="#DEDFFB"/>
<path d="M127.69 33.3016L127.726 47.5401L125.652 48.7372L125.617 34.4988L127.69 33.3016Z" fill="#F3F1FC"/>
<path d="M145.195 60.0942L125.085 48.4076L125.049 34.1692L145.159 45.8557C146.074 51.1567 146.376 56.0812 145.195 60.0942Z" fill="#DEDFFB"/>
<path d="M145.159 45.8556L144.32 45.3676L146.393 44.1704L147.233 44.6584L145.159 45.8556Z" fill="#DBB846"/>
<path d="M147.233 44.6584L147.269 58.8969L145.195 60.0941L145.16 45.8556L147.233 44.6584Z" fill="#F3F1FC"/>
<path d="M125.617 34.4989L124.778 34.0109L126.851 32.8137L127.691 33.3017L125.617 34.4989Z" fill="#DBB846"/>
<path d="M143.11 37.2967L142.271 36.8086L142.235 23.9319L143.075 24.4199L143.11 37.2967Z" fill="#E9E7FC"/>
<path d="M143.075 24.4197L142.235 23.9316L144.309 22.7345L145.148 23.2225L143.075 24.4197Z" fill="#DBB846"/>
<path d="M145.148 23.2225L145.184 36.0993L143.11 37.2964L143.075 24.4197L145.148 23.2225Z" fill="#F3F1FC"/>
<path d="M154.944 34.0913L164.726 34.6462L145.194 45.9233L154.944 34.0913Z" fill="#F3F1FC"/>
<path d="M143.623 47.8296L123.469 36.1172L123.175 35.6791C132.015 38.8532 140.162 42.2659 143.329 47.3915L143.623 47.8296Z" fill="#CC104A"/>
<path d="M154.942 33.2985C157.95 32.9494 162.114 33.3523 166.593 33.9602L166.303 34.7358L164.726 34.6464L154.944 34.0915L145.194 45.9235L143.623 47.8298L143.329 47.3917C145.321 41.2093 148.461 35.9336 154.942 33.2985Z" fill="#DF3260"/>
<path d="M154.942 33.2984C143.63 38.415 138.538 31.3176 134.787 21.5861L146.439 22.2476L166.593 33.96L154.942 33.2984Z" fill="#F45170"/>
<path d="M154.942 33.2961L143.328 47.389L123.175 35.6751L134.789 21.5823L154.942 33.2961Z" fill="#E93565"/>
</svg>
