<svg width="275" height="171" viewBox="0 0 275 171" fill="none" xmlns="http://www.w3.org/2000/svg">
<g id="Frame 5118" clip-path="url(#clip0_481_394)">
<g id="Frame 5119">
<path id="triangle" d="M139.177 130.563L83.6741 37.2959H191.819L139.177 130.563Z" stroke="#E2E8F0" stroke-width="1.99997"/>
<g id="bg">
<circle id="Ellipse 128" cx="137.938" cy="85.8371" r="74.1376" fill="#F1F5F9" fill-opacity="0.7"/>
</g>
<g id="Group 90">
<g id="box">
<g id="Frame 5110">
<g id="Frame 5113">
<circle id="Ellipse 125" cx="85.9926" cy="40.8377" r="39.6638" fill="#FAFAF9" stroke="#E7E5E4" stroke-width="0.72363"/>
<g id="Group">
<g id="Group_2">
<g id="Group_3">
<g id="Group_4">
<path id="Vector" d="M85.2508 59.9878L82.2471 58.2422L82.2591 62.4711L85.2628 64.2166L85.2508 59.9878Z" fill="#E5BD13"/>
</g>
<path id="Vector_2" d="M108.526 46.6341L105.522 44.8885L82.2471 58.242L85.2508 59.9876L108.526 46.6341Z" fill="#F1C40F"/>
<g id="Group_5">
<path id="Vector_3" d="M85.2507 59.9876L85.2627 64.2165L108.538 50.863L108.526 46.6342L85.2507 59.9876Z" fill="#D6B218"/>
</g>
<g id="Group_6">
<path id="Vector_4" d="M92.1053 56.9318L92.1127 59.5293L92.0726 59.5524L89.8267 58.2473L92.1053 56.9318Z" fill="#E5BD13"/>
<path id="Vector_5" d="M88.1826 59.1121L89.8268 58.2473L92.0727 59.5524L88.19 61.7096L88.1826 59.1121Z" fill="#F1C40F"/>
<path id="Vector_6" d="M90.2803 58.5108L88.1826 59.5238V59.1121L89.8268 58.2473L90.2803 58.5108Z" fill="white"/>
</g>
<g id="Group_7">
<path id="Vector_7" d="M105.599 49.1412L105.606 51.7388L105.566 51.7619L103.32 50.4568L105.599 49.1412Z" fill="#E5BD13"/>
<path id="Vector_8" d="M94.9993 55.2609L103.32 50.4568L105.566 51.7619L95.0066 57.8584L94.9993 55.2609Z" fill="#F1C40F"/>
<path id="Vector_9" d="M103.774 50.7203L94.9993 55.6726V55.2609L103.32 50.4568L103.774 50.7203Z" fill="white"/>
</g>
<g id="Group_8">
<g id="Group_9">
<path id="Vector_10" d="M75.8514 54.5254L72.8477 52.7798L72.8596 57.0087L75.8634 58.7542L75.8514 54.5254Z" fill="#E5BD13"/>
</g>
<path id="Vector_11" d="M99.1266 41.172L96.1228 39.4264L72.8477 52.7798L75.8514 54.5254L99.1266 41.172Z" fill="#F1C40F"/>
<g id="Group_10">
<path id="Vector_12" d="M75.8516 54.5254L75.8636 58.7543L99.1387 45.4009L99.1268 41.172L75.8516 54.5254Z" fill="#D6B218"/>
</g>
<g id="Group_11">
<path id="Vector_13" d="M82.7062 51.4696L82.7135 54.0671L82.6734 54.0903L80.4275 52.7852L82.7062 51.4696Z" fill="#D4DAE8"/>
<path id="Vector_14" d="M78.7832 53.6498L80.4274 52.785L82.6733 54.0901L78.7906 56.2473L78.7832 53.6498Z" fill="#F1C40F"/>
<path id="Vector_15" d="M80.8808 53.0485L78.7832 54.0615V53.6498L80.4274 52.785L80.8808 53.0485Z" fill="white"/>
</g>
<g id="Group_12">
<path id="Vector_16" d="M96.1998 43.6788L96.2072 46.2764L96.167 46.2995L93.9211 44.9944L96.1998 43.6788Z" fill="#D4DAE8"/>
<path id="Vector_17" d="M85.6003 49.7985L93.9213 44.9944L96.1672 46.2995L85.6077 52.396L85.6003 49.7985Z" fill="#F1C40F"/>
<path id="Vector_18" d="M94.3747 45.2579L85.6003 50.2102V49.7985L93.9213 44.9944L94.3747 45.2579Z" fill="white"/>
</g>
</g>
<g id="Group_13">
<g id="Group_14">
<path id="Vector_19" d="M66.4522 49.0631L63.4485 47.3175L63.4605 51.5464L66.4642 53.292L66.4522 49.0631Z" fill="#E5BD13"/>
</g>
<path id="Vector_20" d="M89.7274 35.7097L86.7237 33.9641L63.4485 47.3176L66.4522 49.0631L89.7274 35.7097Z" fill="#F1C40F"/>
<g id="Group_15">
<path id="Vector_21" d="M66.4521 49.0632L66.4641 53.292L89.7393 39.9386L89.7273 35.7097L66.4521 49.0632Z" fill="#D6B218"/>
</g>
<g id="Group_16">
<path id="Vector_22" d="M73.3068 46.0072L73.3141 48.6047L73.274 48.6279L71.0281 47.3228L73.3068 46.0072Z" fill="#D4DAE8"/>
<path id="Vector_23" d="M69.3838 48.1875L71.028 47.3228L73.2739 48.6279L69.3911 50.785L69.3838 48.1875Z" fill="#F1C40F"/>
<path id="Vector_24" d="M71.4814 47.5863L69.3838 48.5993V48.1875L71.028 47.3228L71.4814 47.5863Z" fill="white"/>
</g>
<g id="Group_17">
<path id="Vector_25" d="M86.8006 38.2166L86.808 40.8141L86.7679 40.8372L84.522 39.5321L86.8006 38.2166Z" fill="#D4DAE8"/>
<path id="Vector_26" d="M76.2007 44.3363L84.5216 39.5322L86.7675 40.8373L76.208 46.9338L76.2007 44.3363Z" fill="#F1C40F"/>
<path id="Vector_27" d="M84.9751 39.7957L76.2007 44.748V44.3363L84.5216 39.5322L84.9751 39.7957Z" fill="white"/>
</g>
</g>
<g id="Group_18">
<g id="Group_19">
<path id="Vector_28" d="M63.4473 46.9384L63.4499 47.3176L85.2522 59.9785L85.2495 59.5992L63.4473 46.9384Z" fill="#E5BD13"/>
</g>
<g id="Group_20">
<path id="Vector_29" d="M85.2495 59.5992L85.2522 59.9785L108.527 46.6342L108.525 46.255L85.2495 59.5992Z" fill="#C6A51A"/>
</g>
<g id="Group_21">
<path id="Vector_30" d="M63.4473 46.9384L85.2495 59.5993L108.525 46.2551L86.6115 33.5521L63.4473 46.9384Z" fill="#F1C40F"/>
</g>
</g>
</g>
</g>
<g id="Group_22">
<g id="Group_23">
<g id="Group_24">
<g id="Group_25">
<path id="Vector_31" d="M99.8875 27.077L99.8054 48.5749L87.0854 55.9669L87.1675 34.469L99.8875 27.077Z" fill="#D4D6D6"/>
</g>
<path id="Vector_32" d="M87.1676 34.469L87.0855 55.9669L70.4263 46.3487L70.5084 24.8508L87.1676 34.469Z" fill="#E0E2E2"/>
<g id="Group_26">
<g id="Group_27">
<path id="Vector_33" d="M72.1611 28.0736L71.6332 27.7689L71.5583 37.4092L72.0906 37.1415L72.1611 28.0736Z" fill="#D4D6D6"/>
<path id="Vector_34" d="M72.0906 37.1415L71.5583 37.4091L85.9616 45.7245L85.966 45.152L72.0906 37.1415Z" fill="#ECF0F1"/>
<path id="Vector_35" d="M72.1608 28.0737L72.0903 37.1416L85.9657 45.1521L86.0354 36.0842L72.1608 28.0737Z" fill="#C4C6C6"/>
</g>
<g id="Group_28">
<path id="Vector_36" d="M72.1611 39.6272L71.6332 39.3225L71.5583 44.7336L72.0906 44.466L72.1611 39.6272Z" fill="#D4D6D6"/>
<path id="Vector_37" d="M72.0906 44.4659L71.5583 44.7336L85.9616 53.0489L85.966 52.4765L72.0906 44.4659Z" fill="#ECF0F1"/>
<path id="Vector_38" d="M72.1608 39.6272L72.0903 44.4659L85.9657 52.4765L86.0354 47.6377L72.1608 39.6272Z" fill="#C4C6C6"/>
</g>
</g>
<g id="Group_29">
<g id="Group_30">
<path id="Vector_39" d="M98.0984 30.3553L98.6262 30.0505L98.7011 39.6908L98.1688 39.4231L98.0984 30.3553Z" fill="#E0E2E2"/>
<path id="Vector_40" d="M98.169 39.4231L98.7012 39.6908L88.3457 45.6691L88.3413 45.0966L98.169 39.4231Z" fill="#ECF0F1"/>
<path id="Vector_41" d="M98.0986 30.3552L98.169 39.4231L88.3414 45.0966L88.2717 36.0288L98.0986 30.3552Z" fill="#C4C6C6"/>
</g>
<g id="Group_31">
<path id="Vector_42" d="M98.0984 41.9088L98.6262 41.6041L98.7011 47.0153L98.1688 46.7476L98.0984 41.9088Z" fill="#E0E2E2"/>
<path id="Vector_43" d="M98.169 46.7476L98.7012 47.0152L88.3457 52.9936L88.3413 52.4211L98.169 46.7476Z" fill="#ECF0F1"/>
<path id="Vector_44" d="M98.0986 41.9088L98.169 46.7476L88.3414 52.4211L88.2717 47.5824L98.0986 41.9088Z" fill="#C4C6C6"/>
</g>
</g>
<path id="Vector_45" d="M99.8877 27.0771L87.1678 34.4691L70.5085 24.8509L83.2285 17.4589L99.8877 27.0771Z" fill="#ECF0F1"/>
<g id="Group_32">
<path id="Vector_46" d="M83.2295 18.765V19.3688L88.7424 22.5513L89.2637 22.2484L83.2295 18.765Z" fill="#C4C6C6"/>
<path id="Vector_47" d="M72.7634 24.8475L73.2847 25.1484L83.2294 19.3688V18.765L72.7634 24.8475Z" fill="#D4D6D6"/>
<path id="Vector_48" d="M88.7423 22.5514L83.2294 19.3689L73.2847 25.1485L78.7968 28.3309L88.7423 22.5514Z" fill="#E0E2E2"/>
</g>
<g id="Group_33">
<path id="Vector_49" d="M90.7368 23.0948V23.6987L96.2497 26.8811L96.771 26.5782L90.7368 23.0948Z" fill="#C4C6C6"/>
<path id="Vector_50" d="M80.2708 29.1773L80.792 29.4782L90.7367 23.6987V23.0948L80.2708 29.1773Z" fill="#D4D6D6"/>
<path id="Vector_51" d="M96.2496 26.8812L90.7368 23.6987L80.792 29.4783L86.3042 32.6607L96.2496 26.8812Z" fill="#E0E2E2"/>
</g>
</g>
<g id="Group_34">
<g id="Group_35">
<g id="Group_36">
<g id="Group_37">
<g id="Group_38">
<path id="Vector_52" d="M90.1197 39.467L90.5386 40.2641L90.2792 40.4139L89.7068 40.7419L90.1197 39.467Z" fill="#3F434F"/>
</g>
</g>
</g>
<g id="Group_39">
<g id="Group_40">
<g id="Group_41">
<path id="Vector_53" d="M90.279 40.4138L90.2835 41.9906L89.9705 42.1713L89.9661 40.5945L90.279 40.4138Z" fill="#3F434F"/>
</g>
</g>
</g>
<g id="Group_42">
<g id="Group_43">
<g id="Group_44">
<path id="Vector_54" d="M91.834 41.2361L91.8349 41.5736L89.6741 42.8214L89.6731 42.4839L91.834 41.2361Z" fill="#3F434F"/>
</g>
</g>
</g>
<g id="Group_45">
<g id="Group_46">
<g id="Group_47">
<path id="Vector_55" d="M95.7828 36.2913L95.786 37.4147C95.787 37.7695 95.5821 38.1815 95.3099 38.3904L95.3128 39.403C95.5037 39.315 95.6476 39.3232 95.6479 39.4291L94.8054 39.9156C94.8051 39.8097 94.9484 39.6356 95.1392 39.5032L95.1363 38.4907C95.0119 38.5403 94.9045 38.5283 94.8206 38.4756C94.7216 38.4019 94.6568 38.2641 94.6563 38.067L94.6531 36.9436L95.7828 36.2913Z" fill="#3F434F"/>
</g>
</g>
</g>
<g id="Group_48">
<g id="Group_49">
<g id="Group_50">
<path id="Vector_56" d="M91.531 39.6909L91.5355 41.2677L91.2225 41.4484L91.218 39.8716L91.531 39.6909Z" fill="#3F434F"/>
</g>
</g>
</g>
<g id="Group_51">
<g id="Group_52">
<g id="Group_53">
<path id="Vector_57" d="M91.3734 38.7428L91.7901 39.5411L91.5307 39.6909L90.9604 40.0177L91.3734 38.7428Z" fill="#3F434F"/>
</g>
</g>
</g>
</g>
<g id="Group_54">
<g id="Group_55">
<g id="Group_56">
<g id="Group_57">
<path id="Vector_58" d="M93.4861 40.9961C93.4275 40.9638 93.3932 40.8971 93.3932 40.8133L93.3841 37.4397C93.382 37.2922 93.4871 37.1114 93.6163 37.0357L96.5471 35.3438C96.6178 35.3034 96.6895 35.2984 96.7471 35.3307C96.8046 35.364 96.838 35.4317 96.838 35.5166L96.8481 38.8901C96.8481 39.0376 96.7461 39.2184 96.6208 39.2911L93.6901 40.983C93.6497 41.0062 93.6083 41.0183 93.5699 41.0183C93.5396 41.0183 93.5113 41.0113 93.4861 40.9961ZM96.6097 35.4509L93.6789 37.1427C93.5881 37.1953 93.5073 37.3367 93.5073 37.4397L93.5164 40.8133C93.5174 40.8507 93.5285 40.8779 93.5466 40.8891C93.5658 40.8971 93.5941 40.8951 93.6274 40.8759L96.5582 39.1841C96.6471 39.1326 96.7248 38.9952 96.7248 38.8901L96.7147 35.5166C96.7147 35.4782 96.7036 35.4489 96.6854 35.4378C96.6794 35.4347 96.6723 35.4327 96.6642 35.4327C96.6491 35.4327 96.6299 35.4388 96.6097 35.4509Z" fill="#3F434F"/>
</g>
</g>
</g>
<g id="Group_58">
<g id="Group_59">
<g id="Group_60">
<path id="Vector_59" d="M89.1215 43.5143C89.0639 43.4809 89.0316 43.4143 89.0316 43.3325L89.0225 39.9589C89.0205 39.8104 89.1255 39.6286 89.2548 39.5548L92.1855 37.862C92.2562 37.8206 92.3269 37.8155 92.3855 37.8499C92.4441 37.8832 92.4764 37.9509 92.4764 38.0347L92.4865 41.4093C92.4865 41.5598 92.3865 41.7366 92.2582 41.8103L89.3275 43.5021C89.2881 43.5254 89.2467 43.5365 89.2083 43.5365C89.177 43.5365 89.1477 43.5294 89.1215 43.5143ZM92.2481 37.969L89.3174 39.6619C89.2265 39.7144 89.1457 39.8548 89.1457 39.9589L89.1548 43.3325C89.1548 43.3688 89.1659 43.3961 89.1841 43.4072C89.2033 43.4163 89.2336 43.4133 89.2659 43.3951L92.1956 41.7032C92.2845 41.6517 92.3633 41.5144 92.3633 41.4093L92.3532 38.0347C92.3532 37.9963 92.3421 37.968 92.3239 37.9569C92.3178 37.9539 92.3097 37.9519 92.3017 37.9519C92.2865 37.9519 92.2683 37.9579 92.2481 37.969Z" fill="#3F434F"/>
</g>
</g>
</g>
</g>
</g>
</g>
</g>
</g>
</g>
</g>
</g>
<g id="truck">
<g id="truck_2">
<circle id="Ellipse 124" cx="137.938" cy="129.837" r="39.6638" fill="#FAFAF9" stroke="#E7E5E4" stroke-width="0.72363"/>
<g id="_x31_7">
<g id="Group_61">
<g id="Group_62">
<g id="Group_63">
<path id="Vector_60" d="M147.406 148.648C147.406 149.439 147.121 149.997 146.668 150.261L143.695 151.99C144.148 151.726 143.769 151.337 143.769 150.536C143.779 148.944 143.315 146.824 141.924 146.022C141.228 145.622 140.584 145.58 140.131 145.843L143.104 144.125C143.558 143.85 144.19 143.893 144.897 144.293C146.289 145.095 147.406 147.045 147.406 148.648Z" fill="#111D33"/>
</g>
<g id="Group_64">
<path id="Vector_61" d="M125.521 136.015C125.521 136.806 125.236 137.365 124.783 137.628L121.81 139.358C122.263 139.094 121.646 138.446 121.646 137.645C121.656 136.053 121.43 134.191 120.038 133.39C119.342 132.989 118.699 132.947 118.246 133.211L121.219 131.492C121.672 131.218 122.305 131.26 123.012 131.661C124.403 132.462 125.521 134.413 125.521 136.015Z" fill="#111D33"/>
</g>
<g id="Group_65">
<g id="Group_66">
<g id="Group_67">
<path id="Vector_62" d="M116.353 131.783L128.075 124.971C128.157 124.923 128.275 124.931 128.405 125.006L116.683 131.819C116.552 131.744 116.435 131.735 116.353 131.783Z" fill="#4C5C75"/>
</g>
</g>
<g id="Group_68">
<g id="Group_69">
<path id="Vector_63" d="M116.683 131.819L128.405 125.006L129.108 125.385L117.386 132.197L116.683 131.819Z" fill="#4C5C75"/>
</g>
</g>
<g id="Group_70">
<g id="Group_71">
<path id="Vector_64" d="M117.386 132.197L129.109 125.385L150.08 137.487L138.358 144.3L117.386 132.197Z" fill="#383736"/>
</g>
</g>
<g id="Group_72">
<g id="Group_73">
<path id="Vector_65" d="M138.358 144.3L150.08 137.487L159.22 142.764L147.497 149.577L138.358 144.3Z" fill="#383736"/>
</g>
</g>
<g id="Group_74">
<g id="Group_75">
<path id="Vector_66" d="M159.302 142.81V144.475C159.302 144.614 159.247 144.707 159.172 144.754L147.452 151.572C147.527 151.525 146.59 150.943 146.59 150.804L147.583 149.628L159.302 142.81Z" fill="#4C5C75"/>
</g>
</g>
<g id="Group_76">
<g id="Group_77">
<path id="Vector_67" d="M147.497 149.577L159.22 142.764L159.303 142.813L147.581 149.625L147.497 149.577Z" fill="#383736"/>
</g>
</g>
<g id="Group_78">
<g id="Group_79">
<path id="Vector_68" d="M147.581 149.625L147.576 151.286C147.575 151.566 147.378 151.678 147.134 151.538L116.676 133.986C116.429 133.843 116.228 133.512 116.229 133.247L116.232 132.041C116.233 131.774 116.435 131.676 116.683 131.819L116.935 131.931L138.358 144.3L147.497 149.577L147.581 149.625Z" fill="#1D2943"/>
</g>
</g>
</g>
<g id="Group_80">
<g id="Group_81">
<g id="Group_82">
<path id="Vector_69" d="M138.362 142.699L150.085 135.886L150.08 137.487L138.358 144.3L138.362 142.699Z" fill="#A0A8AA"/>
</g>
</g>
<g id="Group_83">
<g id="Group_84">
<path id="Vector_70" d="M117.39 130.596L129.113 123.784L150.085 135.886L138.362 142.699L117.39 130.596Z" fill="#A0A8AA"/>
</g>
</g>
<g id="Group_85">
<g id="Group_86">
<path id="Vector_71" d="M138.362 142.699L138.358 144.3L117.386 132.197L117.391 130.596L138.362 142.699Z" fill="#1D2943"/>
</g>
</g>
</g>
<g id="Group_87">
<path id="Vector_72" d="M123.345 137.814L116.799 134.027C117.08 132.804 117.999 132.252 118.907 132.252C119.4 132.252 119.916 132.403 120.435 132.704C122.073 133.648 123.349 135.934 123.345 137.814Z" fill="#111D33"/>
</g>
<g id="Group_88">
<path id="Vector_73" d="M120.039 133.391C121.426 134.192 122.553 136.144 122.549 137.738C122.544 139.339 121.409 139.986 120.023 139.185C118.629 138.38 117.502 136.428 117.507 134.827C117.511 133.233 118.646 132.587 120.039 133.391Z" fill="#4C5C75"/>
</g>
<g id="Group_89">
<path id="Vector_74" d="M120.028 134.4C120.971 134.944 121.73 136.254 121.727 137.329C121.726 138.42 120.965 138.854 120.017 138.304C119.08 137.762 118.326 136.448 118.329 135.368C118.332 134.296 119.093 133.863 120.028 134.4ZM119.712 134.577C119.281 134.461 118.976 134.562 118.759 134.891C119.013 135.105 119.251 135.31 119.494 135.507C119.506 135.516 119.518 135.524 119.529 135.531C119.614 135.58 119.67 135.534 119.679 135.419C119.684 135.313 119.685 135.201 119.688 135.094C119.696 134.927 119.704 134.758 119.712 134.577ZM120.379 135.79C120.386 135.95 120.438 136.056 120.546 136.118C120.571 136.132 120.6 136.145 120.632 136.155C120.698 136.178 120.765 136.199 120.829 136.219C120.983 136.266 121.137 136.311 121.301 136.358C121.089 135.785 120.783 135.328 120.36 134.957L120.348 134.976C120.36 135.249 120.369 135.52 120.379 135.79ZM121.055 138.074C121.304 137.905 121.431 137.624 121.447 137.201C121.229 137.169 121.024 137.127 120.826 137.111C120.742 137.103 120.708 137.178 120.759 137.313C120.853 137.563 120.953 137.812 121.055 138.074ZM119.248 136.444C119.297 136.36 119.264 136.238 119.159 136.124C118.985 135.935 118.808 135.751 118.614 135.544C118.62 135.964 118.727 136.373 118.962 136.818C119.023 136.742 119.078 136.673 119.132 136.604C119.17 136.549 119.214 136.504 119.248 136.444ZM120.029 137.989C120.194 138.084 120.357 138.144 120.523 138.171C120.391 137.914 120.271 137.668 120.133 137.432C120.107 137.388 120.047 137.335 119.999 137.307C119.975 137.293 119.954 137.286 119.943 137.291C119.784 137.358 119.64 137.458 119.481 137.551C119.669 137.74 119.85 137.885 120.029 137.989ZM120.027 135.932C119.829 135.818 119.662 135.916 119.662 136.143C119.661 136.373 119.824 136.659 120.024 136.774C120.026 136.775 120.027 136.776 120.029 136.777C120.227 136.891 120.391 136.801 120.394 136.575C120.4 136.347 120.229 136.049 120.031 135.935C120.029 135.934 120.028 135.933 120.027 135.932ZM120.03 135.521C119.974 135.492 119.928 135.518 119.928 135.58C119.927 135.645 119.973 135.724 120.03 135.757C120.086 135.79 120.13 135.765 120.132 135.701C120.133 135.637 120.087 135.554 120.03 135.521ZM119.752 136.82C119.752 136.757 119.706 136.676 119.654 136.646C119.653 136.645 119.651 136.644 119.65 136.644C119.594 136.611 119.547 136.637 119.547 136.699C119.547 136.764 119.593 136.844 119.649 136.876C119.703 136.907 119.749 136.884 119.752 136.82ZM120.648 136.686C120.704 136.719 120.751 136.695 120.751 136.63C120.754 136.569 120.707 136.487 120.653 136.456C120.652 136.455 120.65 136.454 120.649 136.454C120.595 136.422 120.549 136.449 120.548 136.511C120.548 136.575 120.594 136.655 120.648 136.686ZM119.385 135.957C119.441 135.989 119.485 135.965 119.488 135.901C119.488 135.838 119.444 135.758 119.39 135.727C119.388 135.726 119.387 135.725 119.386 135.724C119.332 135.693 119.286 135.72 119.285 135.781C119.285 135.846 119.329 135.924 119.385 135.957ZM120.444 137.22C120.444 137.157 120.4 137.077 120.346 137.045C120.344 137.044 120.343 137.044 120.342 137.043C120.288 137.012 120.242 137.038 120.241 137.1C120.241 137.165 120.285 137.243 120.341 137.276C120.397 137.308 120.441 137.283 120.444 137.22Z" fill="white"/>
</g>
<g id="Group_90">
<path id="Vector_75" d="M150.475 120.161L150.438 135.685L150.373 135.722L138.346 142.698V142.689L117.389 130.597L117.427 115.073C117.427 114.831 117.52 114.654 117.659 114.57L129.751 107.566C129.9 107.483 130.095 107.492 130.309 107.622L149.694 118.812C150.038 119.007 150.326 119.426 150.429 119.844C150.456 119.947 150.475 120.058 150.475 120.161Z" fill="#FEBC1F"/>
</g>
<g id="Group_91">
<g id="Group_92">
<g id="Group_93">
<path id="Vector_76" d="M149.694 118.812L130.311 107.621C130.093 107.495 129.896 107.484 129.753 107.566L117.657 114.572C117.8 114.489 117.997 114.501 118.215 114.627L137.599 125.818C138.031 126.068 138.382 126.673 138.38 127.171L138.342 142.693L150.437 135.687L150.476 120.165C150.478 119.668 150.127 119.062 149.694 118.812Z" fill="#FFDE9B"/>
</g>
<g id="Group_94">
<path id="Vector_77" d="M150.473 120.168L150.436 135.688L138.345 142.695L138.382 127.175C138.382 126.675 138.03 126.065 137.596 125.816L149.696 118.809C150.131 119.058 150.482 119.669 150.473 120.168Z" fill="#FFD06C"/>
</g>
<g id="Group_95">
<g id="Group_96">
<path id="Vector_78" d="M137.598 125.818C138.031 126.068 138.382 126.673 138.38 127.171L138.341 142.693L117.39 130.596L117.429 115.074C117.43 114.577 117.782 114.377 118.215 114.627L137.598 125.818Z" fill="#FEBC1F"/>
</g>
</g>
</g>
</g>
<g id="Group_97">
<g id="Group_98">
<g id="Group_99">
<path id="Vector_79" d="M138.51 133.693L150.233 126.881C150.309 126.836 150.416 126.842 150.533 126.91L138.81 133.722C138.693 133.655 138.587 133.648 138.51 133.693Z" fill="#F8F9FE"/>
</g>
</g>
<g id="Group_100">
<g id="Group_101">
<path id="Vector_80" d="M159.647 140.912V142.521C159.647 142.652 159.6 142.754 159.517 142.791L147.797 149.609C147.871 149.563 147.135 149.343 147.135 149.213L147.927 147.73L159.647 140.912Z" fill="#E9E7FC"/>
</g>
</g>
<g id="Group_102">
<g id="Group_103">
<path id="Vector_81" d="M159.647 140.912L147.927 147.73C147.927 147.46 147.211 147.812 146.978 147.673V146.698L158.698 139.88L159.228 140.186C159.461 140.317 159.647 140.642 159.647 140.912Z" fill="#F3F1FC"/>
</g>
</g>
<g id="Group_104">
<g id="Group_105">
<path id="Vector_82" d="M138.81 133.724L150.532 126.912L155.605 129.841L143.883 136.653C141.859 135.599 139.123 134.377 138.81 133.724Z" fill="#F8F9FE"/>
</g>
</g>
<g id="Group_106">
<g id="Group_107">
<path id="Vector_83" d="M146.991 142.796L158.713 135.984L158.702 139.884L146.98 146.696C145.66 145.303 145.421 143.986 146.991 142.796Z" fill="#F8F9FE"/>
</g>
</g>
<g id="Group_108">
<g id="Group_109">
<path id="Vector_84" d="M146.898 142.438L158.621 135.626C158.68 135.748 158.714 135.873 158.713 135.984L146.991 142.796C146.418 142.855 146.584 142.671 146.898 142.438Z" fill="#F8F9FE"/>
</g>
</g>
<g id="Group_110">
<g id="Group_111">
<path id="Vector_85" d="M144.213 137.022L155.935 130.21L158.62 135.626L146.898 142.438C145.62 140.726 144.698 138.927 144.213 137.022Z" fill="#F3F1FC"/>
</g>
<g id="Group_112">
<path id="Vector_86" d="M158.038 135.452L155.209 137.097L152.656 138.579L151.456 139.275L147.085 141.817L146.584 140.808L144.794 137.197L148.862 134.833L154.368 131.633L155.57 130.937L155.748 130.832L156.792 132.939L158.038 135.452Z" fill="#497BFE"/>
</g>
</g>
<g id="Group_113">
<g id="Group_114">
<path id="Vector_87" d="M143.884 136.651C144.011 136.725 144.133 136.862 144.213 137.022L146.898 142.438C146.957 142.56 146.991 142.686 146.99 142.796L146.979 146.696L147.505 146.999C147.737 147.134 147.926 147.459 147.925 147.726L147.921 149.335C147.92 149.604 147.73 149.711 147.497 149.577L138.358 144.3L138.362 142.699L138.387 133.963C138.388 133.695 138.578 133.588 138.81 133.722L143.884 136.651Z" fill="#DEDFFB"/>
</g>
</g>
<g id="Group_115">
<g id="Group_116">
<path id="Vector_88" d="M143.883 136.651L155.606 129.839C155.733 129.913 155.855 130.05 155.935 130.21L144.213 137.023C144.132 136.862 144.011 136.725 143.883 136.651Z" fill="#F8F9FE"/>
</g>
</g>
</g>
<g id="Group_117">
<g id="Group_118">
<path id="Vector_89" d="M145.077 140.708L145.072 142.061C145.072 142.327 144.884 142.434 144.651 142.301L139.586 139.375C139.355 139.242 139.169 138.919 139.169 138.652L139.18 135.308C139.18 135.042 139.369 134.936 139.599 135.069L143.021 137.045C143.134 137.111 143.245 137.229 143.323 137.368L144.964 140.311C145.037 140.442 145.077 140.586 145.077 140.708Z" fill="#497BFE"/>
</g>
</g>
<g id="Group_119">
<g id="Group_120">
<g id="Group_121">
<g id="Group_122">
<path id="Vector_90" d="M155.113 140.363L155.115 140.928L150.581 143.546L150.58 142.98L155.113 140.363Z" fill="#B0B8CF"/>
</g>
</g>
<g id="Group_123">
<g id="Group_124">
<path id="Vector_91" d="M155.111 139.134L155.112 139.701L150.579 142.319L150.577 141.752L155.111 139.134Z" fill="#B0B8CF"/>
</g>
</g>
</g>
</g>
<g id="Group_125">
<path id="Vector_92" d="M145.229 150.446L138.685 146.66C138.966 145.438 139.884 144.884 140.791 144.884C141.286 144.884 141.803 145.037 142.319 145.336C143.958 146.281 145.236 148.567 145.229 150.446Z" fill="#111D33"/>
</g>
<g id="Group_126">
<path id="Vector_93" d="M141.925 146.024C143.311 146.825 144.439 148.777 144.434 150.371C144.43 151.972 143.295 152.618 141.908 151.818C140.515 151.013 139.388 149.061 139.392 147.46C139.397 145.866 140.531 145.219 141.925 146.024Z" fill="#4C5C75"/>
</g>
<g id="Group_127">
<path id="Vector_94" d="M141.914 147.033C142.856 147.577 143.615 148.886 143.612 149.962C143.611 151.053 142.85 151.486 141.903 150.936C140.965 150.395 140.212 149.081 140.215 148.001C140.218 146.929 140.978 146.496 141.914 147.033ZM141.597 147.21C141.167 147.094 140.861 147.194 140.645 147.524C140.898 147.738 141.136 147.943 141.379 148.139C141.391 148.149 141.403 148.157 141.414 148.163C141.499 148.213 141.555 148.166 141.564 148.052C141.57 147.946 141.57 147.834 141.573 147.726C141.581 147.56 141.589 147.391 141.597 147.21ZM142.264 148.423C142.272 148.583 142.323 148.688 142.431 148.75C142.456 148.765 142.485 148.777 142.517 148.787C142.583 148.811 142.65 148.832 142.714 148.851C142.868 148.899 143.022 148.943 143.186 148.991C142.975 148.418 142.668 147.961 142.246 147.59L142.233 147.609C142.245 147.881 142.254 148.152 142.264 148.423ZM142.94 150.707C143.189 150.538 143.316 150.257 143.332 149.833C143.114 149.802 142.909 149.76 142.712 149.743C142.627 149.736 142.593 149.811 142.644 149.946C142.739 150.195 142.838 150.444 142.94 150.707ZM141.133 149.076C141.182 148.993 141.149 148.87 141.044 148.757C140.87 148.568 140.693 148.383 140.499 148.177C140.505 148.596 140.612 149.006 140.847 149.451C140.909 149.375 140.963 149.306 141.017 149.237C141.056 149.182 141.099 149.137 141.133 149.076ZM141.915 150.622C142.079 150.716 142.242 150.776 142.408 150.804C142.276 150.547 142.156 150.301 142.018 150.065C141.993 150.021 141.932 149.967 141.885 149.94C141.861 149.926 141.84 149.919 141.828 149.923C141.669 149.991 141.525 150.09 141.366 150.184C141.554 150.373 141.735 150.518 141.915 150.622ZM141.912 148.565C141.715 148.451 141.547 148.549 141.547 148.776C141.546 149.005 141.71 149.291 141.909 149.407C141.911 149.408 141.913 149.409 141.914 149.41C142.112 149.524 142.276 149.434 142.28 149.208C142.285 148.98 142.114 148.682 141.916 148.567C141.915 148.567 141.913 148.566 141.912 148.565ZM141.916 148.154C141.859 148.125 141.813 148.151 141.813 148.213C141.813 148.278 141.859 148.357 141.915 148.39C141.971 148.422 142.015 148.397 142.018 148.334C142.018 148.269 141.972 148.187 141.916 148.154ZM141.637 149.453C141.637 149.39 141.591 149.309 141.539 149.278C141.538 149.278 141.537 149.277 141.535 149.276C141.479 149.244 141.433 149.27 141.432 149.332C141.432 149.397 141.478 149.476 141.534 149.509C141.588 149.54 141.635 149.516 141.637 149.453ZM142.533 149.319C142.59 149.351 142.636 149.328 142.636 149.263C142.639 149.201 142.593 149.12 142.538 149.089C142.537 149.088 142.535 149.087 142.534 149.086C142.48 149.055 142.434 149.082 142.434 149.143C142.434 149.208 142.479 149.288 142.533 149.319ZM141.27 148.59C141.327 148.622 141.37 148.597 141.373 148.534C141.373 148.471 141.33 148.391 141.275 148.359C141.274 148.359 141.272 148.358 141.271 148.357C141.217 148.326 141.171 148.352 141.171 148.414C141.17 148.479 141.214 148.557 141.27 148.59ZM142.329 149.853C142.329 149.789 142.286 149.709 142.231 149.678C142.23 149.677 142.228 149.676 142.227 149.676C142.173 149.645 142.127 149.671 142.127 149.733C142.126 149.798 142.17 149.876 142.226 149.908C142.283 149.941 142.326 149.916 142.329 149.853Z" fill="white"/>
</g>
<g id="Group_128" opacity="0.3">
<path id="Vector_95" d="M154.369 131.633L151.457 139.275L147.086 141.817L146.584 140.808L148.862 134.833L154.369 131.633Z" fill="white"/>
</g>
<g id="Group_129" opacity="0.3">
<path id="Vector_96" d="M156.792 132.939L155.209 137.097L152.656 138.579L155.57 130.937L155.747 130.832L156.792 132.939Z" fill="white"/>
</g>
</g>
<g id="Group_130">
<g id="Group_131">
<g id="Group_132">
<g id="Group_133">
<path id="Vector_97" d="M149.965 142.424C150.05 142.375 150.121 142.411 150.121 142.509L150.125 143.86C150.125 143.962 150.055 144.08 149.97 144.129L148.085 145.217C148 145.267 147.933 145.228 147.933 145.126L147.929 143.775C147.928 143.677 147.996 143.561 148.081 143.512L149.965 142.424Z" fill="#FEBC1F"/>
</g>
</g>
</g>
<g id="Group_134">
<g id="Group_135">
<g id="Group_136">
<path id="Vector_98" d="M158.276 137.679C158.243 137.662 158.204 137.667 158.16 137.69L156.279 138.777C156.19 138.827 156.124 138.943 156.124 139.043L156.129 140.391C156.129 140.447 156.146 140.48 156.174 140.497L155.785 140.269C155.758 140.253 155.735 140.219 155.735 140.164V138.816C155.735 138.716 155.802 138.6 155.885 138.555L157.771 137.462C157.816 137.44 157.855 137.434 157.882 137.451L158.276 137.679Z" fill="#FFD06C"/>
</g>
<g id="Group_137">
<path id="Vector_99" d="M149.688 142.183L150.077 142.411C150.049 142.394 150.01 142.4 149.966 142.422L148.079 143.509C147.996 143.559 147.93 143.676 147.93 143.776L147.935 145.124C147.935 145.179 147.952 145.213 147.979 145.229L147.586 145.002C147.558 144.985 147.541 144.952 147.541 144.896L147.536 143.548C147.536 143.448 147.602 143.332 147.691 143.287L149.572 142.194C149.616 142.172 149.655 142.167 149.688 142.183Z" fill="#FFD06C"/>
</g>
</g>
<g id="Group_138">
<g id="Group_139">
<path id="Vector_100" d="M158.161 137.692C158.246 137.643 158.318 137.679 158.318 137.777L158.322 139.128C158.322 139.23 158.251 139.348 158.166 139.397L156.282 140.485C156.197 140.534 156.129 140.496 156.129 140.394L156.125 139.043C156.125 138.945 156.192 138.829 156.277 138.78L158.161 137.692Z" fill="#FEBC1F"/>
</g>
</g>
</g>
</g>
</g>
<g id="Group_140">
<path id="Vector_101" d="M143.936 133.45C143.405 133.45 142.974 133.881 142.974 134.412C142.974 133.881 142.543 133.451 142.012 133.451C142.543 133.451 142.974 133.02 142.974 132.489C142.974 133.02 143.405 133.45 143.936 133.45Z" fill="#F8F9FE"/>
</g>
</g>
</g>
</g>
<g id="house">
<g id="house_2">
<circle id="Ellipse 125_2" cx="189.883" cy="40.8377" r="39.6638" fill="#FAFAF9" stroke="#E7E5E4" stroke-width="0.72363"/>
<g id="_x36_6">
<g id="Group_141">
<g id="Group_142">
<path id="Vector_102" d="M209.689 34.5787L209.725 48.817L207.651 50.0141C204.873 45.1178 204.883 40.3729 207.616 35.7759L209.689 34.5787Z" fill="#F3F1FC"/>
</g>
</g>
<g id="Group_143">
<g id="Group_144">
<path id="Vector_103" d="M207.649 50.0178L186.167 37.5261L186.13 23.2887L207.613 35.7804L207.649 50.0178Z" fill="#DEDFFB"/>
</g>
</g>
<g id="Group_145">
<path id="Vector_104" d="M204.665 43.4146L204.656 44.3281L204.647 51.7362L196.668 56.3675L188.654 51.7362L188.672 43.4146L191.82 41.5874L192.453 41.2165L192.661 41.0989L193.494 40.6105L196.641 38.7833L204.665 43.4146Z" fill="#AA6256"/>
</g>
<g id="Group_146">
<g id="Group_147">
<g id="Group_148">
<g id="Group_149">
<g id="Group_150">
<g id="Group_151">
<path id="Vector_105" d="M204.66 43.4113L204.649 51.7379L196.67 56.3675L196.607 48.1015L204.66 43.4113Z" fill="#AA6256"/>
</g>
</g>
<g id="Group_152">
<g id="Group_153">
<path id="Vector_106" d="M204.661 43.4113L204.66 44.3318L196.671 48.9745L196.694 48.0409L204.661 43.4113Z" fill="#774B24"/>
</g>
</g>
<g id="Group_154">
<g id="Group_155">
<path id="Vector_107" d="M196.694 48.0409L196.67 56.3676L188.652 51.7381L188.675 43.4114L196.694 48.0409Z" fill="#BF7D5A"/>
</g>
</g>
<g id="Group_156">
<g id="Group_157">
<path id="Vector_108" d="M204.66 43.4115L201.513 45.2394L199.839 46.2136L196.694 48.0423L188.675 43.4108L191.819 41.5846L193.495 40.6104L196.642 38.7817L204.66 43.4115Z" fill="#8D613A"/>
</g>
</g>
</g>
</g>
<g id="Group_158">
<g id="Group_159">
<path id="Vector_109" d="M201.513 45.2394L199.838 46.2135L191.819 41.5845L193.495 40.6104L201.513 45.2394Z" fill="#DBA660"/>
</g>
</g>
<g id="Group_160">
<path id="Vector_110" d="M200.877 45.6089L200.475 45.8439L192.455 41.2148L192.86 40.9799L200.877 45.6089Z" fill="#8D613A"/>
</g>
<g id="Group_161">
<g id="Group_162">
<path id="Vector_111" d="M201.513 45.2393L201.517 47.1622L201.081 47.0295L200.721 47.625L200.382 47.417L199.843 48.1362L199.839 46.2133L201.513 45.2393Z" fill="#DBA660"/>
</g>
</g>
</g>
</g>
<g id="Group_163">
<g id="Group_164">
<g id="Group_165">
<g id="Group_166">
<path id="Vector_112" d="M207.616 35.7762L206.777 35.2882L208.85 34.0911L209.69 34.5791L207.616 35.7762Z" fill="#DBB846"/>
</g>
</g>
</g>
<g id="Group_167">
<g id="Group_168">
<g id="Group_169">
<path id="Vector_113" d="M170.419 35.4628C169.962 35.3185 169.581 35.0384 169.195 34.7642L169.227 47.9085L170.652 48.7366L170.619 35.503C170.555 35.4975 170.488 35.4848 170.419 35.4628Z" fill="#DEDFFB"/>
</g>
</g>
<g id="Group_170">
<g id="Group_171">
<path id="Vector_114" d="M172.69 33.3013L172.725 47.5395L170.652 48.7367L170.616 34.4984L172.69 33.3013Z" fill="#F3F1FC"/>
</g>
</g>
<g id="Group_172">
<g id="Group_173">
<path id="Vector_115" d="M190.194 60.0934L170.084 48.407L170.049 34.1687L190.158 45.8551C191.073 51.156 191.375 56.0804 190.194 60.0934Z" fill="#DEDFFB"/>
</g>
</g>
<g id="Group_174">
<g id="Group_175">
<path id="Vector_116" d="M190.159 45.8549L189.319 45.3669L191.392 44.1698L192.232 44.6578L190.159 45.8549Z" fill="#DBB846"/>
</g>
</g>
<g id="Group_176">
<g id="Group_177">
<path id="Vector_117" d="M192.232 44.6578L192.268 58.8961L190.194 60.0932L190.159 45.855L192.232 44.6578Z" fill="#F3F1FC"/>
</g>
</g>
</g>
<g id="Group_178">
<g id="Group_179">
<g id="Group_180">
<g id="Group_181">
<path id="Vector_118" d="M170.617 34.4985L169.777 34.0105L171.851 32.8134L172.69 33.3014L170.617 34.4985Z" fill="#DBB846"/>
</g>
</g>
</g>
<g id="Group_182">
<g id="Group_183">
<g id="Group_184">
<path id="Vector_119" d="M188.11 37.2962L187.27 36.8082L187.234 23.9316L188.074 24.4196L188.11 37.2962Z" fill="#E9E7FC"/>
</g>
</g>
<g id="Group_185">
<g id="Group_186">
<path id="Vector_120" d="M188.074 24.4194L187.234 23.9314L189.308 22.7343L190.148 23.2223L188.074 24.4194Z" fill="#DBB846"/>
</g>
</g>
<g id="Group_187">
<g id="Group_188">
<path id="Vector_121" d="M190.148 23.2223L190.183 36.0989L188.11 37.296L188.074 24.4194L190.148 23.2223Z" fill="#F3F1FC"/>
</g>
</g>
</g>
</g>
<g id="Group_189">
<g id="Group_190">
<g id="Group_191">
<g id="Group_192">
<path id="Vector_122" d="M199.943 34.0908L209.725 34.6457L190.193 45.9226L199.943 34.0908Z" fill="#F3F1FC"/>
</g>
</g>
<g id="Group_193">
<g id="Group_194">
<path id="Vector_123" d="M188.622 47.8289L168.468 36.1167L168.174 35.6786C177.015 38.8526 185.162 42.2653 188.328 47.3908L188.622 47.8289Z" fill="#CC104A"/>
</g>
</g>
<g id="Group_195">
<g id="Group_196">
<path id="Vector_124" d="M199.941 33.2982C202.949 32.949 207.113 33.3519 211.592 33.9598L211.302 34.7354L209.725 34.646L199.943 34.0911L190.193 45.9229L188.622 47.8293L188.328 47.3912C190.32 41.2088 193.46 35.9332 199.941 33.2982Z" fill="#DF3260"/>
</g>
</g>
</g>
</g>
</g>
<g id="Group_197">
<g id="Group_198">
<path id="Vector_125" d="M199.941 33.298C188.63 38.4146 183.538 31.3172 179.787 21.5858L191.438 22.2474L211.592 33.9596L199.941 33.298Z" fill="#F45170"/>
</g>
</g>
<g id="Group_199">
<g id="Group_200">
<path id="Vector_126" d="M199.941 33.2957L188.327 47.3885L168.174 35.6747L179.788 21.582L199.941 33.2957Z" fill="#E93565"/>
</g>
</g>
</g>
</g>
</g>
</g>
</g>
</g>
<defs>
<clipPath id="clip0_481_394">
<rect width="274" height="170.05" fill="white" transform="translate(0.937988 0.812134)"/>
</clipPath>
</defs>
</svg>
