<svg width="45" height="45" viewBox="0 0 45 45" fill="none" xmlns="http://www.w3.org/2000/svg">
<path d="M6.80615 5.88525H44.9999V27.5345H6.80615V5.88525Z" fill="#01A755"/>
<path d="M39.4101 25.7415H12.396C12.396 24.8091 12.0256 23.9149 11.3663 23.2556C10.707 22.5963 9.81277 22.2259 8.88037 22.2259V11.1938C9.81277 11.1938 10.707 10.8235 11.3663 10.1641C12.0256 9.50484 12.396 8.61062 12.396 7.67822H39.4101C39.4101 8.61062 39.7805 9.50484 40.4398 10.1641C41.0991 10.8235 41.9933 11.1938 42.9257 11.1938V22.2259C41.9933 22.2259 41.0991 22.5963 40.4398 23.2556C39.7805 23.9149 39.4101 24.8091 39.4101 25.7415Z" fill="#00BA66"/>
<path d="M30.582 21.3908C33.1682 18.8046 33.1682 14.6115 30.582 12.0252C27.9958 9.43902 23.8027 9.43902 21.2165 12.0252C18.6302 14.6115 18.6302 18.8046 21.2165 21.3908C23.8027 23.977 27.9958 23.977 30.582 21.3908Z" fill="#02AF5C"/>
<path d="M3.40332 11.6929H41.5971V33.3421H3.40332V11.6929Z" fill="#01A755"/>
<path d="M36.0072 31.5491H8.99316C8.99316 30.6167 8.62277 29.7225 7.96346 29.0632C7.30415 28.4039 6.40994 28.0335 5.47754 28.0335V17.0015C6.40994 17.0015 7.30415 16.6311 7.96346 15.9718C8.62277 15.3125 8.99316 14.4182 8.99316 13.4858H36.0072C36.0072 14.4182 36.3776 15.3125 37.0369 15.9718C37.6962 16.6311 38.5905 17.0015 39.5229 17.0015V28.0335C38.5905 28.0335 37.6962 28.4039 37.0369 29.0632C36.3776 29.7225 36.0072 30.6167 36.0072 31.5491Z" fill="#00BA66"/>
<path d="M24.8898 28.6999C28.2991 27.3757 29.9894 23.5384 28.6652 20.1291C27.341 16.7199 23.5037 15.0296 20.0944 16.3538C16.6852 17.678 14.9949 21.5152 16.3191 24.9245C17.6433 28.3338 21.4805 30.0241 24.8898 28.6999Z" fill="#02AF5C"/>
<path d="M0 17.4658H38.1937V39.115H0V17.4658Z" fill="#01A755"/>
<path d="M32.6039 37.3221H5.625C5.625 36.3897 5.2546 35.4955 4.5953 34.8361C3.93599 34.1768 3.04178 33.8064 2.10938 33.8064V22.7744C3.04178 22.7744 3.93599 22.404 4.5953 21.7447C5.2546 21.0854 5.625 20.1912 5.625 19.2588H32.6039C32.6039 20.1912 32.9743 21.0854 33.6336 21.7447C34.2929 22.404 35.1871 22.7744 36.1195 22.7744V33.8064C35.1871 33.8064 34.2929 34.1768 33.6336 34.8361C32.9743 35.4955 32.6039 36.3897 32.6039 37.3221Z" fill="#00BA66"/>
<path d="M23.7739 32.9748C26.3601 30.3885 26.3601 26.1954 23.7739 23.6092C21.1877 21.023 16.9946 21.023 14.4084 23.6092C11.8221 26.1954 11.8221 30.3885 14.4084 32.9748C16.9946 35.561 21.1877 35.561 23.7739 32.9748Z" fill="#6ED6A2"/>
<path d="M21.6549 34.4034C25.0312 32.9951 26.6266 29.1163 25.2183 25.7399C23.81 22.3636 19.9312 20.7682 16.5548 22.1765C13.1785 23.5849 11.5831 27.4636 12.9914 30.84C14.3998 34.2164 18.2785 35.8117 21.6549 34.4034Z" fill="#02AF5C"/>
<path d="M24.6096 28.2939C24.6131 28.3501 24.6131 28.4065 24.6096 28.4627C24.5689 29.8689 23.9921 31.2064 22.9973 32.2012C22.0025 33.196 20.665 33.7728 19.2588 33.8135H18.9143C17.5091 33.7695 16.1735 33.1916 15.1795 32.1975C14.1854 31.2034 13.6075 29.8679 13.5635 28.4627V28.1252C13.6075 26.72 14.1854 25.3845 15.1795 24.3904C16.1735 23.3963 17.5091 22.8184 18.9143 22.7744H19.2588C20.665 22.8151 22.0025 23.3919 22.9973 24.3867C23.9921 25.3815 24.5689 26.7189 24.6096 28.1252C24.6129 28.1814 24.6129 28.2377 24.6096 28.2939Z" fill="#6ED6A2"/>
<path d="M21.0163 29.5312C21.0015 29.9238 20.8545 30.2999 20.5993 30.5985C20.3441 30.8971 19.9955 31.1008 19.61 31.1765V31.4719C19.61 31.6043 19.5574 31.7312 19.4638 31.8249C19.3702 31.9185 19.2432 31.9711 19.1108 31.9711C18.9784 31.9711 18.8514 31.9185 18.7578 31.8249C18.6642 31.7312 18.6116 31.6043 18.6116 31.4719V31.1765C18.5122 31.1578 18.4154 31.1271 18.3233 31.0851C18.0396 30.9849 17.7871 30.812 17.5909 30.5838C17.3948 30.3556 17.2618 30.0799 17.2053 29.7844C17.1868 29.6552 17.2189 29.5238 17.2948 29.4177C17.3708 29.3116 17.4849 29.2389 17.6131 29.2148C17.6778 29.2037 17.744 29.2055 17.8079 29.22C17.8719 29.2345 17.9324 29.2614 17.9859 29.2993C18.0395 29.3371 18.085 29.3852 18.12 29.4407C18.155 29.4962 18.1787 29.558 18.1897 29.6226C18.2177 29.7368 18.2708 29.8433 18.3449 29.9345C18.4191 30.0257 18.5126 30.0993 18.6186 30.15C18.7742 30.2163 18.9417 30.2498 19.1108 30.2484C19.3251 30.271 19.5399 30.2107 19.7111 30.08C19.8824 29.9492 19.9972 29.7579 20.0319 29.5453C20.0319 28.9547 19.5256 28.8422 19.0967 28.8422H18.9842C18.7495 28.8552 18.5146 28.8195 18.2943 28.7372C18.0741 28.6549 17.8732 28.5278 17.7046 28.364C17.5393 28.2028 17.4096 28.0088 17.3236 27.7945C17.2377 27.5802 17.1974 27.3503 17.2053 27.1195C17.2231 26.7263 17.3708 26.3501 17.6253 26.0499C17.8798 25.7496 18.2266 25.5422 18.6116 25.4601V25.1648C18.6116 25.0324 18.6642 24.9054 18.7578 24.8118C18.8514 24.7182 18.9784 24.6656 19.1108 24.6656C19.1882 24.664 19.2643 24.6861 19.3288 24.7289C19.4126 24.7668 19.4838 24.8281 19.5337 24.9054C19.5836 24.9827 19.6101 25.0728 19.61 25.1648V25.4601C19.95 25.5299 20.2631 25.6953 20.5122 25.937C20.7613 26.1786 20.9362 26.4865 21.0163 26.8242C21.039 26.9546 21.0098 27.0886 20.9349 27.1977C20.86 27.3068 20.7453 27.3822 20.6155 27.4078C20.5513 27.4199 20.4853 27.4192 20.4213 27.4055C20.3574 27.3919 20.2968 27.3656 20.2432 27.3283C20.1895 27.291 20.1438 27.2434 20.1087 27.1882C20.0737 27.133 20.0499 27.0714 20.0389 27.007C19.9929 26.8503 19.9016 26.7106 19.7765 26.6056C19.6514 26.5005 19.4981 26.4347 19.3358 26.4164H19.1249C18.9098 26.3937 18.6941 26.4537 18.5217 26.5843C18.3493 26.7149 18.2331 26.9063 18.1967 27.1195C18.1915 27.2146 18.2056 27.3097 18.2383 27.3992C18.2709 27.4886 18.3214 27.5705 18.3866 27.6398C18.5573 27.7822 18.7766 27.8528 18.9983 27.8367H19.1741C19.4087 27.8162 19.645 27.8448 19.868 27.9207C20.0909 27.9966 20.2956 28.1182 20.4689 28.2776C20.6423 28.4371 20.7805 28.6309 20.8747 28.8468C20.969 29.0626 21.0172 29.2957 21.0163 29.5312Z" fill="#5EA570"/>
<path d="M21.0162 29.5309C21.0014 29.9235 20.8545 30.2996 20.5993 30.5982C20.344 30.8968 19.9954 31.1005 19.61 31.1763V31.4716C19.61 31.604 19.5574 31.7309 19.4637 31.8246C19.3701 31.9182 19.2431 31.9708 19.1107 31.9708C18.9783 31.9708 18.8514 31.9182 18.7577 31.8246C18.6641 31.7309 18.6115 31.604 18.6115 31.4716V31.1763C18.5121 31.1575 18.4153 31.1268 18.3232 31.0848C18.4357 30.7614 18.5342 30.452 18.6186 30.1497C18.7741 30.216 18.9417 30.2495 19.1107 30.2481C19.325 30.2707 19.5398 30.2104 19.7111 30.0797C19.8823 29.949 19.9971 29.7577 20.0318 29.545C20.0318 28.9544 19.5256 28.8419 19.0967 28.8419H18.9842C19.0686 28.4833 19.1318 28.1388 19.1811 27.8364C19.4151 27.8169 19.6507 27.8463 19.8728 27.9227C20.0949 27.9991 20.2987 28.1208 20.4713 28.2801C20.6438 28.4395 20.7814 28.6329 20.8752 28.8483C20.969 29.0636 21.017 29.2961 21.0162 29.5309Z" fill="#65B776"/>
<path d="M19.3145 26.374C19.3601 25.8124 19.3601 25.2481 19.3145 24.6865C19.3983 24.7244 19.4695 24.7857 19.5193 24.863C19.5692 24.9404 19.5957 25.0304 19.5957 25.1225V25.4178C19.9357 25.4875 20.2487 25.6529 20.4979 25.8946C20.747 26.1363 20.9219 26.4441 21.002 26.7818C21.0247 26.9122 20.9954 27.0463 20.9205 27.1553C20.8456 27.2644 20.731 27.3398 20.6012 27.3654C20.5369 27.3776 20.4709 27.3768 20.407 27.3631C20.3431 27.3495 20.2825 27.3232 20.2288 27.2859C20.1752 27.2486 20.1295 27.201 20.0944 27.1458C20.0593 27.0907 20.0356 27.0291 20.0246 26.9646C19.9781 26.8069 19.8858 26.6665 19.7593 26.5614C19.6329 26.4562 19.478 26.391 19.3145 26.374Z" fill="#65B776"/>
</svg>
