<svg width="45" height="45" viewBox="0 0 45 45" fill="none" xmlns="http://www.w3.org/2000/svg">
<path d="M37.901 25.346C37.901 30.1855 35.9785 34.8268 32.5565 38.2489C29.1344 41.6709 24.4931 43.5934 19.6536 43.5934C14.8141 43.5934 10.1728 41.6709 6.75079 38.2489C3.32874 34.8268 1.40625 30.1855 1.40625 25.346C1.40625 20.5065 3.32874 15.8652 6.75079 12.4432C10.1728 9.02112 14.8141 7.09863 19.6536 7.09863C24.4931 7.09863 29.1344 9.02112 32.5565 12.4432C35.9785 15.8652 37.901 20.5065 37.901 25.346Z" fill="#00A1FF"/>
<path d="M19.6537 7.09863C14.4844 7.09877 9.5578 9.29139 6.09766 13.1318C6.81963 14.3203 8.0506 15.4426 9.96513 16.1035C14.2269 17.5748 19.1577 17.4508 19.1577 19.6205C19.1577 20.8045 15.3936 22.1094 14.4337 23.2985C13.4738 24.4877 13.477 26.0796 15.1602 28.0897C16.8433 30.0997 20.3774 29.4905 20.161 33.3613C20.0132 36.0052 23.0889 37.843 25.0347 34.8695C27.6322 30.9 28.45 24.9289 28.0189 22.6024C27.5877 20.2759 22.7774 20.5755 23.4398 18.5609C24.311 15.911 27.335 15.3858 30.301 13.2833C31.0309 12.7658 31.3098 12.0692 31.3173 11.3136C28.0408 8.58998 23.9144 7.09882 19.6537 7.09863Z" fill="#59D96B"/>
<path d="M1.55078 27.6357C1.91369 30.5051 2.95348 33.2472 4.58441 35.6357C6.21534 38.0243 8.39069 39.991 10.9311 41.3736C13.0304 38.3568 10.2057 37.1006 9.11465 36.2575C7.93189 35.3436 8.79166 29.1071 4.75952 28.462C3.54065 28.267 2.4669 27.9824 1.55078 27.6357Z" fill="#59D96B"/>
<path d="M37.3557 20.9209C35.9812 21.4667 34.2507 22.477 33.4146 24.2686C31.972 27.3599 33.7399 31.6333 36.776 31.6531C37.52 29.6336 37.9009 27.4984 37.901 25.3461C37.9008 23.8543 37.7177 22.3681 37.3557 20.9209Z" fill="#59D96B"/>
<path d="M36.6545 17.4999C34.5304 17.805 32.372 17.2537 30.6543 15.9674C28.9366 14.681 27.8003 12.765 27.4952 10.6409C27.3442 9.5891 27.4018 8.51787 27.6648 7.48835C27.9277 6.45883 28.3909 5.49119 29.0278 4.64067C29.6648 3.79015 30.463 3.07341 31.3769 2.53138C32.2908 1.98934 33.3025 1.63263 34.3543 1.4816C36.4785 1.17658 38.6368 1.72787 40.3545 3.01419C42.0722 4.30051 43.2085 6.2165 43.5136 8.34065C43.6646 9.39243 43.607 10.4637 43.344 11.4932C43.0811 12.5227 42.6179 13.4903 41.981 14.3409C41.3441 15.1914 40.5459 15.9081 39.6319 16.4501C38.718 16.9922 37.7063 17.3489 36.6545 17.4999Z" fill="#DAEEFF"/>
<path d="M35.7773 1.4043C35.9469 2.85019 36.5185 5.54188 38.4576 6.82711C40.1579 7.95404 41.7717 6.85773 42.7435 5.87616C42.0926 4.57262 41.1017 3.46903 39.8756 2.68193C38.6495 1.89483 37.2335 1.45341 35.7773 1.4043Z" fill="#C0E0FF"/>
<path d="M27.4514 8.70459C27.3882 9.34953 27.4033 9.99968 27.4956 10.6411C27.9052 13.4919 29.7993 15.9101 32.4689 16.9906C31.334 14.5555 34.9648 12.4996 34.1379 10.7726C33.2713 8.96253 32.2648 8.67718 30.1032 9.07794C29.2894 9.22883 28.3381 9.02301 27.4514 8.70459Z" fill="#C0E0FF"/>
<path d="M39.2188 13.1597C39.0293 13.3493 38.8169 13.5124 38.594 13.6397C38.3711 13.767 38.1419 13.8561 37.9196 13.9018C37.6972 13.9475 37.486 13.949 37.2981 13.9062C37.1102 13.8633 36.9491 13.777 36.8242 13.6521C36.572 13.3998 36.4822 13.0058 36.5745 12.5567C36.6668 12.1077 36.9338 11.6403 37.3166 11.2575C37.6994 10.8747 38.1668 10.6077 38.6158 10.5154C39.0649 10.4231 39.4589 10.5129 39.7111 10.7652C39.836 10.8901 39.9224 11.0511 39.9652 11.239C40.0081 11.4269 40.0066 11.6381 39.9609 11.8605C39.9152 12.0828 39.8261 12.312 39.6988 12.5349C39.5715 12.7579 39.4084 12.9702 39.2188 13.1597Z" fill="white"/>
</svg>
