<svg width="45" height="45" viewBox="0 0 45 45" fill="none" xmlns="http://www.w3.org/2000/svg">
<g clipPath="url(#clip0_253_2053)">
<path d="M38.0527 33.4268C37.8917 33.2643 37.8015 33.0448 37.8015 32.8161C37.8015 32.5873 37.8917 32.3678 38.0527 32.2053C38.2127 32.0458 38.4295 31.9563 38.6554 31.9563C38.8814 31.9563 39.0981 32.0458 39.2581 32.2053C39.4201 32.3673 39.511 32.587 39.511 32.8161C39.511 33.0451 39.4201 33.2648 39.2581 33.4268C39.0966 33.5834 38.8804 33.671 38.6554 33.671C38.4304 33.671 38.2143 33.5834 38.0527 33.4268ZM41.2049 29.69C41.0071 29.5746 40.8629 29.3856 40.8038 29.1644C40.7447 28.9431 40.7755 28.7074 40.8894 28.5087C41.004 28.3103 41.1927 28.1654 41.4141 28.1061C41.6354 28.0467 41.8713 28.0778 42.0697 28.1923C42.2682 28.3069 42.4131 28.4956 42.4724 28.7169C42.5317 28.9383 42.5007 29.1741 42.3862 29.3726C42.2685 29.568 42.0797 29.7102 41.8595 29.7694C41.6392 29.8286 41.4046 29.8001 41.2049 29.69ZM43.2802 25.2541C43.0604 25.1935 42.8735 25.0483 42.7606 24.8502C42.6476 24.6522 42.6177 24.4174 42.6775 24.1974C42.7413 23.9815 42.8871 23.7993 43.0836 23.6895C43.2801 23.5797 43.5117 23.5511 43.729 23.6099C43.9463 23.6687 44.1319 23.8102 44.2463 24.004C44.3606 24.1979 44.3946 24.4288 44.3409 24.6474C44.3121 24.7575 44.2616 24.8607 44.1924 24.951C44.1232 25.0414 44.0367 25.117 43.9379 25.1735C43.8392 25.23 43.7301 25.2662 43.6172 25.2801C43.5042 25.2939 43.3897 25.2851 43.2802 25.2541ZM43.2802 19.5787V19.5566C43.2802 19.5425 43.2802 19.5224 43.2802 19.5063C43.2909 19.2847 43.3865 19.0757 43.5471 18.9226C43.7077 18.7695 43.9211 18.6841 44.1431 18.6841C44.365 18.6841 44.5784 18.7695 44.739 18.9226C44.8996 19.0757 44.9952 19.2847 45.0059 19.5063V19.5465V19.5827C45.0054 19.8123 44.9137 20.0323 44.7509 20.1944C44.5881 20.3564 44.3677 20.4471 44.138 20.4465C43.9084 20.446 43.6884 20.3543 43.5263 20.1915C43.3643 20.0288 43.2736 19.8083 43.2742 19.5787H43.2802ZM42.6594 14.8896C42.6068 14.6719 42.6411 14.4423 42.7549 14.2494C42.8687 14.0565 43.0531 13.9155 43.2691 13.8562C43.485 13.7969 43.7156 13.824 43.9119 13.9318C44.1082 14.0396 44.2549 14.2195 44.3209 14.4336C44.3722 14.6519 44.3368 14.8816 44.2221 15.0743C44.1074 15.2671 43.9224 15.4078 43.7061 15.4669C43.4897 15.526 43.2589 15.4989 43.0622 15.3912C42.8654 15.2835 42.7182 15.1037 42.6514 14.8896H42.6594ZM40.8513 10.5903C40.7942 10.4926 40.7568 10.3845 40.7415 10.2723C40.7261 10.1602 40.733 10.0461 40.7617 9.93658C40.7905 9.82707 40.8405 9.7243 40.9089 9.63412C40.9774 9.54394 41.0629 9.46813 41.1607 9.41101C41.2584 9.35389 41.3665 9.31658 41.4786 9.30122C41.5908 9.28586 41.7049 9.29274 41.8144 9.32146C41.9239 9.35019 42.0267 9.40021 42.1168 9.46866C42.207 9.53711 42.2828 9.62265 42.34 9.7204C42.3971 9.81815 42.4344 9.92619 42.4497 10.0384C42.4651 10.1505 42.4582 10.2646 42.4295 10.3741C42.4008 10.4836 42.3508 10.5864 42.2823 10.6766C42.2139 10.7668 42.1283 10.8426 42.0306 10.8997C41.9328 10.9568 41.8248 10.9941 41.7126 11.0095C41.6004 11.0248 41.4864 11.018 41.3768 10.9892C41.2673 10.9605 41.1646 10.9105 41.0744 10.842C40.9842 10.7736 40.9084 10.6881 40.8513 10.5903ZM11.5276 6.98412C11.4475 6.90407 11.384 6.80902 11.3406 6.7044C11.2972 6.59978 11.2749 6.48763 11.2749 6.37438C11.2749 6.26112 11.2972 6.14898 11.3406 6.04436C11.384 5.93973 11.4475 5.84468 11.5276 5.76464C11.6882 5.60613 11.9047 5.51724 12.1303 5.51724C12.356 5.51724 12.5725 5.60613 12.7331 5.76464C12.8132 5.84468 12.8767 5.93973 12.9201 6.04436C12.9635 6.14898 12.9858 6.26112 12.9858 6.37438C12.9858 6.48763 12.9635 6.59978 12.9201 6.7044C12.8767 6.80902 12.8132 6.90407 12.7331 6.98412C12.5718 7.1412 12.3555 7.2291 12.1303 7.2291C11.9052 7.2291 11.6889 7.1412 11.5276 6.98412ZM37.9965 6.89974C37.8351 6.73782 37.7446 6.51857 37.7446 6.29C37.7446 6.06143 37.8351 5.84218 37.9965 5.68026C38.076 5.60002 38.1707 5.53633 38.275 5.49287C38.3793 5.4494 38.4912 5.42703 38.6042 5.42703C38.7172 5.42703 38.8291 5.4494 38.9334 5.49287C39.0377 5.53633 39.1323 5.60002 39.2119 5.68026C39.3714 5.8403 39.461 6.05703 39.461 6.28297C39.461 6.50891 39.3714 6.72563 39.2119 6.88567C39.0518 7.04718 38.8345 7.1392 38.6071 7.14183C38.3796 7.14446 38.1603 7.0575 37.9965 6.89974ZM15.2684 3.82393C15.2092 3.72664 15.17 3.6185 15.1531 3.50586C15.1361 3.39321 15.1419 3.27832 15.17 3.16793C15.198 3.05753 15.2478 2.95385 15.3165 2.86295C15.3852 2.77206 15.4713 2.69579 15.5698 2.63861C15.767 2.52382 16.0017 2.49194 16.2224 2.54993C16.4431 2.60793 16.6318 2.75108 16.7471 2.948C16.8605 3.1462 16.8916 3.38097 16.8337 3.60186C16.7759 3.82274 16.6337 4.01212 16.4377 4.1293C16.2417 4.2419 16.0093 4.27299 15.7906 4.21587C15.5719 4.15875 15.3843 4.01799 15.2684 3.82393ZM34.3039 4.08108C34.2055 4.0254 34.1191 3.95078 34.0497 3.86152C33.9803 3.77226 33.9293 3.67014 33.8996 3.56104C33.8699 3.45195 33.8621 3.33806 33.8766 3.22594C33.8912 3.11382 33.9279 3.0057 33.9844 2.90782C34.0406 2.80981 34.1156 2.72382 34.205 2.65478C34.2944 2.58573 34.3966 2.53497 34.5056 2.5054C34.6147 2.47583 34.7285 2.46803 34.8405 2.48244C34.9526 2.49685 35.0607 2.53319 35.1587 2.58939C35.2567 2.64558 35.3427 2.72053 35.4118 2.80996C35.4808 2.89938 35.5316 3.00153 35.5611 3.11057C35.5907 3.21962 35.5985 3.33341 35.5841 3.44547C35.5697 3.55753 35.5333 3.66565 35.4771 3.76366C35.4202 3.86187 35.3444 3.94786 35.2542 4.0167C35.1639 4.08554 35.061 4.13587 34.9512 4.16481C34.8414 4.19374 34.727 4.20071 34.6146 4.18531C34.5021 4.1699 34.3938 4.13244 34.2958 4.07506L34.3039 4.08108ZM19.6883 1.72049C19.6505 1.50888 19.6934 1.29081 19.8085 1.10926C19.9236 0.9277 20.1024 0.795821 20.3099 0.739607C20.5174 0.683392 20.7384 0.706919 20.9293 0.80555C21.1203 0.904182 21.2674 1.07077 21.3417 1.27248C21.3718 1.38144 21.3801 1.49529 21.3661 1.60747C21.3521 1.71965 21.3161 1.82796 21.2601 1.92616C21.2041 2.02437 21.1292 2.11053 21.0398 2.1797C20.9503 2.24887 20.8481 2.29969 20.739 2.32922C20.63 2.35975 20.516 2.36816 20.4038 2.35394C20.2915 2.33972 20.1832 2.30317 20.0853 2.24644C19.9873 2.1897 19.9018 2.11394 19.8336 2.02361C19.7654 1.93328 19.716 1.83021 19.6883 1.72049ZM29.9925 2.30109C29.883 2.27351 29.78 2.22442 29.6896 2.15666C29.5992 2.08891 29.5232 2.00386 29.466 1.90645C29.4088 1.80904 29.3715 1.70123 29.3564 1.58929C29.3412 1.47734 29.3485 1.3635 29.3778 1.2544C29.4056 1.14473 29.4549 1.04167 29.5228 0.951185C29.5907 0.860696 29.6759 0.784571 29.7734 0.727215C29.871 0.669858 29.9789 0.632408 30.091 0.61703C30.2031 0.601653 30.3171 0.608653 30.4265 0.637627C30.535 0.66674 30.6367 0.716992 30.7258 0.7855C30.8149 0.854009 30.8896 0.939426 30.9456 1.03685C31.0015 1.13428 31.0378 1.24181 31.0521 1.35326C31.0665 1.46471 31.0587 1.5779 31.0292 1.68633C31.0018 1.7958 30.9529 1.89873 30.8854 1.9891C30.8178 2.07948 30.733 2.1555 30.6357 2.21272C30.5385 2.26995 30.4308 2.30723 30.319 2.32241C30.2072 2.33758 30.0935 2.33033 29.9845 2.30109H29.9925ZM24.4938 0.852592C24.4938 0.62401 24.5847 0.40479 24.7463 0.243158C24.9079 0.0815265 25.1271 -0.00927734 25.3557 -0.00927734C25.5843 -0.00927734 25.8035 0.0815265 25.9651 0.243158C26.1268 0.40479 26.2176 0.62401 26.2176 0.852592C26.2176 1.08117 26.1268 1.30039 25.9651 1.46202C25.8035 1.62366 25.5843 1.71446 25.3557 1.71446C25.1271 1.71446 24.9079 1.62366 24.7463 1.46202C24.5847 1.30039 24.4938 1.08117 24.4938 0.852592Z" fill="#FABA62"/>
<path d="M7.5259 12.3223C9.26169 14.0581 10.6499 15.6271 10.4792 17.0134C10.9131 16.277 11.4427 15.6015 12.0542 15.0043C13.6614 13.3971 12.0542 11.4765 9.8644 9.2947C5.89056 5.12599 4.59072 5.91955 2.04932 9.6503C3.61635 8.6699 5.4546 10.253 7.5259 12.3223Z" fill="#FABA62"/>
<path d="M32.6667 37.4551C30.949 35.7414 29.394 34.3592 28.0179 34.4918C23.8451 36.9026 20.1827 33.4551 15.8573 29.1358C11.5319 24.8164 8.10649 21.168 10.4791 17.0133C10.6499 15.6271 9.26167 14.0581 7.52588 12.3223C5.45459 10.253 3.61633 8.66988 2.0493 9.65029C-2.44086 16.4227 0.484274 24.5733 10.447 34.54C20.4097 44.5068 28.5603 47.4319 35.3247 42.9457C36.3232 41.3727 34.738 39.5304 32.6667 37.4551Z" fill="#5B77E0"/>
<path d="M29.9909 32.9365C29.4029 33.5375 28.7398 34.0601 28.0181 34.4915C29.3942 34.3589 30.9492 35.7411 32.6669 37.4548C34.7382 39.5301 36.3233 41.3724 35.3309 42.9454C39.0737 40.404 39.8673 39.1022 35.7006 35.1283C33.5188 32.9546 31.6042 31.3233 29.9909 32.9365Z" fill="#FABA62"/>
<path d="M37.8179 19.5266C38.0107 18.3721 38.0107 17.1935 37.8179 16.039L34.1534 15.4584C34.0428 15.1349 33.9085 14.8199 33.7516 14.5162L35.9434 11.5187C35.2615 10.5665 34.4289 9.73191 33.4784 9.04761L30.4789 11.2274C30.1747 11.07 29.859 10.9357 29.5347 10.8256L28.9541 7.16516C27.7995 6.97229 26.621 6.97229 25.4664 7.16516L24.8818 10.8356C24.56 10.9435 24.2459 11.0731 23.9416 11.2234L20.9381 9.04761C19.9915 9.73316 19.1624 10.5677 18.4831 11.5187L20.6528 14.5162C20.4976 14.8194 20.3666 15.1345 20.261 15.4584L16.6006 16.039C16.4118 17.1939 16.4118 18.3718 16.6006 19.5266L20.261 20.1093C20.367 20.4324 20.4979 20.7468 20.6528 21.0495L18.4831 24.0469C19.1619 25.0007 19.991 25.838 20.9381 26.5261L23.9416 24.3443C24.2448 24.5009 24.559 24.6352 24.8818 24.7461L25.4664 28.4025C26.6213 28.5913 27.7992 28.5913 28.9541 28.4025L29.5347 24.7461C29.8584 24.6342 30.1739 24.5 30.4789 24.3443L33.4784 26.5261C34.4289 25.8411 35.2615 25.0057 35.9434 24.053L33.7657 21.0555C33.9222 20.7523 34.0565 20.438 34.1675 20.1153L37.8179 19.5266Z" fill="#618EF4"/>
<path d="M30.6576 17.7824C30.6576 18.6968 30.2944 19.5736 29.6479 20.2202C29.0014 20.8667 28.1245 21.2299 27.2102 21.2299C26.2958 21.2299 25.419 20.8667 24.7724 20.2202C24.1259 19.5736 23.7627 18.6968 23.7627 17.7824C23.7627 16.8681 24.1259 15.9912 24.7724 15.3447C25.419 14.6982 26.2958 14.335 27.2102 14.335C28.1245 14.335 29.0014 14.6982 29.6479 15.3447C30.2944 15.9912 30.6576 16.8681 30.6576 17.7824Z" fill="#D9E1FE"/>
</g>
<defs>
<clipPath id="clip0_253_2053">
<rect width="45" height="45" fill="white"/>
</clipPath>
</defs>
</svg>
