<svg width="71" height="70" viewBox="0 0 71 70" fill="none" xmlns="http://www.w3.org/2000/svg">
<path d="M34.3086 61.4635L30.1577 59.0513L30.1743 64.8952L34.3252 67.3075L34.3086 61.4635Z" fill="#E5BD13"/>
<path d="M66.4731 43.0104L62.3222 40.5981L30.1577 59.0516L34.3087 61.4638L66.4731 43.0104Z" fill="#F1C40F"/>
<path d="M34.3086 61.4637L34.3252 67.3076L66.4896 48.8542L66.4731 43.0103L34.3086 61.4637Z" fill="#D6B218"/>
<path d="M43.7808 57.2407L43.7909 60.8303L43.7355 60.8623L40.6318 59.0587L43.7808 57.2407Z" fill="#E5BD13"/>
<path d="M38.3599 60.2536L40.632 59.0586L43.7357 60.8621L38.37 63.8432L38.3599 60.2536Z" fill="#F1C40F"/>
<path d="M41.2586 59.4227L38.3599 60.8226V60.2536L40.632 59.0586L41.2586 59.4227Z" fill="white"/>
<path d="M62.4283 46.4746L62.4384 50.0642L62.383 50.0962L59.2793 48.2926L62.4283 46.4746Z" fill="#E5BD13"/>
<path d="M47.7803 54.9313L59.2792 48.2925L62.3828 50.096L47.7904 58.5209L47.7803 54.9313Z" fill="#F1C40F"/>
<path d="M59.9058 48.6566L47.7803 55.5003V54.9313L59.2792 48.2925L59.9058 48.6566Z" fill="white"/>
<path d="M21.3194 53.9152L17.1685 51.5029L17.185 57.3469L21.3359 59.7592L21.3194 53.9152Z" fill="#E5BD13"/>
<path d="M53.4839 35.4616L49.3329 33.0493L17.1685 51.5027L21.3194 53.915L53.4839 35.4616Z" fill="#F1C40F"/>
<path d="M21.3193 53.9148L21.3359 59.7588L53.5004 41.3054L53.4838 35.4614L21.3193 53.9148Z" fill="#D6B218"/>
<path d="M30.7915 49.6919L30.8017 53.2815L30.7462 53.3135L27.6426 51.5099L30.7915 49.6919Z" fill="#D4DAE8"/>
<path d="M25.3706 52.7048L27.6427 51.5098L30.7464 53.3133L25.3808 56.2944L25.3706 52.7048Z" fill="#F1C40F"/>
<path d="M28.2694 51.8739L25.3706 53.2738V52.7048L27.6427 51.5098L28.2694 51.8739Z" fill="white"/>
<path d="M49.439 38.9258L49.4491 42.5154L49.3937 42.5474L46.29 40.7438L49.439 38.9258Z" fill="#D4DAE8"/>
<path d="M34.791 47.3825L46.2899 40.7437L49.3936 42.5472L34.8012 50.9721L34.791 47.3825Z" fill="#F1C40F"/>
<path d="M46.9166 41.1078L34.791 47.9515V47.3825L46.2899 40.7437L46.9166 41.1078Z" fill="white"/>
<path d="M8.33062 46.3668L4.17969 43.9546L4.19626 49.7986L8.34719 52.2108L8.33062 46.3668Z" fill="#E5BD13"/>
<path d="M40.4951 27.9132L36.3442 25.501L4.17969 43.9544L8.33062 46.3666L40.4951 27.9132Z" fill="#F1C40F"/>
<path d="M8.33057 46.3665L8.34714 52.2105L40.5116 33.757L40.4951 27.9131L8.33057 46.3665Z" fill="#D6B218"/>
<path d="M17.8028 42.1436L17.8129 45.7331L17.7575 45.7651L14.6538 43.9616L17.8028 42.1436Z" fill="#D4DAE8"/>
<path d="M12.3818 45.1565L14.654 43.9614L17.7576 45.765L12.392 48.746L12.3818 45.1565Z" fill="#F1C40F"/>
<path d="M15.2806 44.3256L12.3818 45.7254V45.1565L14.654 43.9614L15.2806 44.3256Z" fill="white"/>
<path d="M36.4502 31.3774L36.4604 34.967L36.4049 34.999L33.3013 33.1954L36.4502 31.3774Z" fill="#D4DAE8"/>
<path d="M21.8022 39.8342L33.3011 33.1953L36.4048 34.9989L21.8124 43.4238L21.8022 39.8342Z" fill="#F1C40F"/>
<path d="M33.9278 33.5595L21.8022 40.4032V39.8342L33.3011 33.1953L33.9278 33.5595Z" fill="white"/>
<path d="M4.17773 43.4307L4.18141 43.9547L34.3104 61.4511L34.3067 60.927L4.17773 43.4307Z" fill="#E5BD13"/>
<path d="M34.3066 60.927L34.3103 61.4511L66.4748 43.0104L66.4711 42.4863L34.3066 60.927Z" fill="#C6A51A"/>
<path d="M4.17773 43.4305L34.3067 60.9268L66.4712 42.4861L36.1888 24.9316L4.17773 43.4305Z" fill="#F1C40F"/>
<path d="M54.5356 15.9839L54.4222 45.6923L36.8442 55.9074L36.9577 26.1991L54.5356 15.9839Z" fill="#D4D6D6"/>
<path d="M36.9574 26.1993L36.844 55.9077L13.8223 42.6161L13.9357 12.9077L36.9574 26.1993Z" fill="#E0E2E2"/>
<path d="M16.2197 17.361L15.4902 16.9399L15.3867 30.262L16.1223 29.8921L16.2197 17.361Z" fill="#D4D6D6"/>
<path d="M16.1223 29.8921L15.3867 30.262L35.2909 41.7531L35.297 40.962L16.1223 29.8921Z" fill="#ECF0F1"/>
<path d="M16.2195 17.3608L16.1221 29.8919L35.2968 40.9618L35.3931 28.4307L16.2195 17.3608Z" fill="#C4C6C6"/>
<path d="M16.2197 33.3273L15.4902 32.9062L15.3867 40.384L16.1223 40.0141L16.2197 33.3273Z" fill="#D4D6D6"/>
<path d="M16.1223 40.0142L15.3867 40.384L35.2909 51.8752L35.297 51.0841L16.1223 40.0142Z" fill="#ECF0F1"/>
<path d="M16.2195 33.3271L16.1221 40.0139L35.2968 51.0838L35.3931 44.3971L16.2195 33.3271Z" fill="#C4C6C6"/>
<path d="M52.0635 20.5144L52.7929 20.0933L52.8964 33.4153L52.1608 33.0454L52.0635 20.5144Z" fill="#E0E2E2"/>
<path d="M52.1606 33.0454L52.8962 33.4153L38.5857 41.6769L38.5796 40.8858L52.1606 33.0454Z" fill="#ECF0F1"/>
<path d="M52.0633 20.5142L52.1607 33.0452L38.5797 40.8856L38.4834 28.3545L52.0633 20.5142Z" fill="#C4C6C6"/>
<path d="M52.0635 36.4807L52.7929 36.0596L52.8964 43.5373L52.1608 43.1675L52.0635 36.4807Z" fill="#E0E2E2"/>
<path d="M52.1606 43.1675L52.8962 43.5374L38.5857 51.799L38.5796 51.0079L52.1606 43.1675Z" fill="#ECF0F1"/>
<path d="M52.0633 36.4805L52.1607 43.1673L38.5797 51.0077L38.4834 44.3209L52.0633 36.4805Z" fill="#C4C6C6"/>
<path d="M54.5352 15.984L36.9573 26.1992L13.9355 12.9076L31.5135 2.69238L54.5352 15.984Z" fill="#ECF0F1"/>
<path d="M31.5156 4.49756V5.33199L39.134 9.72991L39.8544 9.31127L31.5156 4.49756Z" fill="#C4C6C6"/>
<path d="M17.0522 12.9031L17.7725 13.3189L31.5154 5.33199V4.49756L17.0522 12.9031Z" fill="#D4D6D6"/>
<path d="M39.1337 9.72996L31.5153 5.33203L17.7725 13.3189L25.3899 17.7168L39.1337 9.72996Z" fill="#E0E2E2"/>
<path d="M41.8901 10.481V11.3154L49.5085 15.7133L50.2289 15.2947L41.8901 10.481Z" fill="#C4C6C6"/>
<path d="M27.4268 18.8865L28.147 19.3023L41.8899 11.3154V10.481L27.4268 18.8865Z" fill="#D4D6D6"/>
<path d="M49.5082 15.7133L41.8899 11.3154L28.147 19.3023L35.7644 23.7002L49.5082 15.7133Z" fill="#E0E2E2"/>
<path d="M41.037 33.106L41.6157 34.2074L41.2573 34.4144L40.4663 34.8678L41.037 33.106Z" fill="#3F434F"/>
<path d="M41.2577 34.4146L41.2639 36.5935L40.8314 36.8433L40.8252 34.6643L41.2577 34.4146Z" fill="#3F434F"/>
<path d="M43.4061 35.5508L43.4074 36.0172L40.4212 37.7415L40.4199 37.2751L43.4061 35.5508Z" fill="#3F434F"/>
<path d="M48.863 28.7173L48.8674 30.2698C48.8688 30.76 48.5855 31.3294 48.2095 31.6182L48.2135 33.0174C48.4772 32.8958 48.676 32.9072 48.6765 33.0536L47.5122 33.7259C47.5118 33.5795 47.7099 33.3389 47.9735 33.156L47.9695 31.7567C47.7976 31.8253 47.6492 31.8087 47.5333 31.7358C47.3965 31.6341 47.3069 31.4436 47.3062 31.1713L47.3018 29.6188L48.863 28.7173Z" fill="#3F434F"/>
<path d="M42.9877 33.4155L42.9939 35.5945L42.5614 35.8442L42.5552 33.6653L42.9877 33.4155Z" fill="#3F434F"/>
<path d="M42.7704 32.105L43.3462 33.2082L42.9877 33.4151L42.1997 33.8668L42.7704 32.105Z" fill="#3F434F"/>
<path d="M45.6893 35.2192C45.6084 35.1745 45.5609 35.0824 45.5609 34.9666L45.5484 30.3045C45.5456 30.1007 45.6907 29.8509 45.8694 29.7462L49.9195 27.4082C50.0171 27.3524 50.1162 27.3454 50.1958 27.39C50.2753 27.4361 50.3214 27.5296 50.3214 27.6469L50.3353 32.3089C50.3353 32.5127 50.1944 32.7626 50.0213 32.8631L45.9713 35.2011C45.9154 35.2332 45.8582 35.2499 45.8052 35.2499C45.7633 35.2499 45.7242 35.2401 45.6893 35.2192ZM50.006 27.5561L45.9559 29.8941C45.8303 29.9667 45.7186 30.1621 45.7186 30.3045L45.7312 34.9666C45.7326 35.0182 45.7479 35.0559 45.7731 35.0713C45.7996 35.0824 45.8387 35.0796 45.8847 35.0531L49.9348 32.7151C50.0576 32.6439 50.165 32.4541 50.165 32.3089L50.1511 27.6469C50.1511 27.5938 50.1357 27.5534 50.1106 27.538C50.1022 27.5338 50.0925 27.531 50.0813 27.531C50.0604 27.531 50.0339 27.5394 50.006 27.5561Z" fill="#3F434F"/>
<path d="M39.6573 38.699C39.5778 38.6529 39.5331 38.5608 39.5331 38.4478L39.5205 33.7857C39.5178 33.5805 39.6629 33.3293 39.8415 33.2274L43.8916 30.888C43.9893 30.8308 44.087 30.8238 44.1679 30.8712C44.2489 30.9173 44.2935 31.0108 44.2935 31.1267L44.3075 35.7901C44.3075 35.9981 44.1693 36.2423 43.9921 36.3443L39.942 38.6823C39.8876 38.7144 39.8304 38.7297 39.7773 38.7297C39.7341 38.7297 39.6936 38.7199 39.6573 38.699ZM43.9781 31.0359L39.9281 33.3753C39.8024 33.4479 39.6908 33.6419 39.6908 33.7857L39.7034 38.4478C39.7034 38.498 39.7187 38.5357 39.7438 38.551C39.7704 38.5636 39.8122 38.5594 39.8569 38.5343L43.9056 36.1963C44.0284 36.1251 44.1372 35.9353 44.1372 35.7901L44.1233 31.1267C44.1233 31.0736 44.1079 31.0345 44.0828 31.0192C44.0744 31.015 44.0633 31.0122 44.0521 31.0122C44.0312 31.0122 44.0061 31.0206 43.9781 31.0359Z" fill="#3F434F"/>
</svg>
