<svg width="80" height="82" viewBox="0 0 80 82" fill="none" xmlns="http://www.w3.org/2000/svg">
<rect x="0.0893555" y="0.124512" width="79.4078" height="81.093" rx="8" fill="#F1F5F9"/>
<path d="M52.7493 66.4103C52.7493 67.4923 52.3598 68.2568 51.7394 68.6175L47.6711 70.9835C48.2914 70.6228 47.7721 70.09 47.7721 68.9935C47.7865 66.8152 47.1518 63.9144 45.2475 62.818C44.2953 62.2698 43.4153 62.2121 42.7949 62.5728L46.8632 60.2212C47.4836 59.8461 48.3492 59.9039 49.3158 60.4521C51.2201 61.5485 52.7493 64.2174 52.7493 66.4103Z" fill="#111D33"/>
<path d="M22.8035 49.1256C22.8035 50.2076 22.414 50.9722 21.7936 51.3328L17.7253 53.6988C18.3456 53.3382 17.5013 52.4515 17.5013 51.3551C17.5157 49.1768 17.206 46.6298 15.3017 45.5333C14.3495 44.9851 13.4695 44.9274 12.8491 45.2881L16.9174 42.9366C17.5378 42.5615 18.4034 42.6192 19.37 43.1674C21.2743 44.2638 22.8035 46.9328 22.8035 49.1256Z" fill="#111D33"/>
<path d="M10.2583 43.3343L26.2983 34.0129C26.4109 33.9474 26.5718 33.9589 26.7502 34.0618L10.7101 43.3833C10.5318 43.2803 10.3709 43.2689 10.2583 43.3343Z" fill="#4C5C75"/>
<path d="M10.71 43.3832L26.75 34.0618L27.712 34.5796L11.672 43.9011L10.71 43.3832Z" fill="#4C5C75"/>
<path d="M11.6719 43.901L27.7119 34.5796L56.4076 51.1394L40.3676 60.4609L11.6719 43.901Z" fill="#383736"/>
<path d="M40.3677 60.4611L56.4077 51.1396L68.9136 58.3599L52.8736 67.6814L40.3677 60.4611Z" fill="#383736"/>
<path d="M69.0263 58.4224V60.7005C69.0263 60.8915 68.9499 61.0187 68.8481 61.0823L52.8117 70.4114C52.9136 70.3478 51.6313 69.5509 51.6313 69.36L52.9899 67.7514L69.0263 58.4224Z" fill="#4C5C75"/>
<path d="M52.8735 67.6813L68.9135 58.3599L69.0279 58.4259L52.9878 67.7473L52.8735 67.6813Z" fill="#383736"/>
<path d="M52.988 67.7474L52.9815 70.0203C52.9804 70.4032 52.7103 70.5572 52.377 70.3648L10.7017 46.3487C10.3626 46.153 10.0883 45.7003 10.0894 45.3374L10.094 43.6878C10.0951 43.3227 10.371 43.1876 10.7101 43.3834L11.0556 43.5377L40.3678 60.4611L52.8737 67.6814L52.988 67.7474Z" fill="#1D2943"/>
<path d="M40.3739 58.2704L56.4139 48.949L56.4077 51.1396L40.3677 60.461L40.3739 58.2704Z" fill="#A0A8AA"/>
<path d="M11.6782 41.7106L27.7182 32.3892L56.4139 48.949L40.3739 58.2704L11.6782 41.7106Z" fill="#A0A8AA"/>
<path d="M40.3738 58.2705L40.3676 60.4611L11.6719 43.9013L11.6781 41.7107L40.3738 58.2705Z" fill="#1D2943"/>
<path d="M19.8256 51.5868L10.8691 46.4051C11.2539 44.7322 12.5119 43.9761 13.7531 43.9761C14.429 43.9761 15.1349 44.1835 15.8442 44.595C18.0858 45.8865 19.8323 49.0139 19.8256 51.5868Z" fill="#111D33"/>
<path d="M15.3032 45.5351C17.2006 46.6306 18.743 49.3021 18.7369 51.4825C18.7306 53.6733 17.1782 54.5581 15.2807 53.4626C13.3741 52.3618 11.8317 49.6902 11.8379 47.4993C11.8441 45.319 13.3966 44.4343 15.3032 45.5351Z" fill="#4C5C75"/>
<path d="M15.2877 46.9151C16.5777 47.6599 17.6155 49.4519 17.6113 50.9237C17.6106 52.4161 16.5696 53.0094 15.2725 52.2565C13.9895 51.5157 12.9587 49.7183 12.9629 48.2399C12.9671 46.7736 14.0081 46.1804 15.2877 46.9151ZM14.8551 47.1576C14.2656 46.9988 13.8474 47.1366 13.5511 47.587C13.8979 47.88 14.2237 48.1609 14.5565 48.4297C14.5729 48.4429 14.5887 48.4538 14.6038 48.4625C14.7208 48.53 14.7968 48.4665 14.8097 48.3095C14.8171 48.1646 14.8175 48.0115 14.8215 47.8645C14.8326 47.6369 14.8438 47.4053 14.8551 47.1576ZM15.7668 48.8178C15.7776 49.0361 15.8482 49.1807 15.9954 49.2657C16.0303 49.2859 16.0694 49.3026 16.113 49.3162C16.2042 49.3487 16.2954 49.3772 16.3832 49.4036C16.5936 49.4686 16.8042 49.5297 17.0287 49.5947C16.7395 48.8104 16.3199 48.1849 15.742 47.6777L15.7243 47.7039C15.7408 48.0765 15.7538 48.4472 15.7668 48.8178ZM16.692 51.9423C17.0332 51.7116 17.2064 51.3274 17.2291 50.7474C16.9307 50.7042 16.65 50.6471 16.3797 50.6241C16.2638 50.6137 16.2179 50.7163 16.2876 50.9018C16.4166 51.2426 16.5525 51.5833 16.692 51.9423ZM14.2193 49.7117C14.2863 49.5971 14.2412 49.4298 14.0976 49.2743C13.8596 49.0158 13.618 48.7634 13.352 48.4807C13.3609 49.0547 13.5068 49.6151 13.8281 50.2242C13.9127 50.1197 13.9867 50.0253 14.0607 49.9308C14.1135 49.8564 14.1734 49.7942 14.2193 49.7117ZM15.289 51.826C15.5136 51.9557 15.7367 52.038 15.9648 52.0752C15.7832 51.7242 15.6191 51.3874 15.4304 51.0646C15.3956 51.0044 15.3131 50.9308 15.2481 50.8933C15.215 50.8742 15.1865 50.8644 15.1711 50.8705C14.9531 50.9625 14.7561 51.099 14.538 51.2272C14.7959 51.4857 15.0434 51.6842 15.289 51.826ZM15.2852 49.0118C15.0153 48.8559 14.7867 48.9903 14.7858 49.3004C14.7849 49.6146 15.0085 50.006 15.282 50.1639C15.2841 50.1651 15.2862 50.1664 15.2884 50.1676C15.5589 50.3238 15.784 50.2011 15.7884 49.8914C15.7962 49.5795 15.5621 49.1716 15.2912 49.0152C15.2892 49.0141 15.2872 49.0129 15.2852 49.0118ZM15.2903 48.4499C15.2132 48.4094 15.1499 48.4454 15.1496 48.53C15.1494 48.6187 15.2123 48.7276 15.2894 48.7721C15.3665 48.8167 15.4263 48.7826 15.4301 48.696C15.4303 48.6074 15.3674 48.4944 15.2903 48.4499ZM14.9096 50.2273C14.9098 50.1409 14.8467 50.0295 14.7754 49.9882C14.7735 49.9872 14.7717 49.9861 14.7698 49.9852C14.6927 49.9407 14.6294 49.9767 14.6291 50.0613C14.6289 50.1499 14.6918 50.2589 14.7689 50.3034C14.8425 50.3459 14.9058 50.3139 14.9096 50.2273ZM16.1356 50.0434C16.2127 50.0879 16.276 50.0559 16.2762 49.9673C16.2799 49.8828 16.2169 49.7715 16.1423 49.7284C16.1403 49.7273 16.1384 49.7262 16.1365 49.7252C16.0628 49.6827 15.9995 49.7187 15.9993 49.8033C15.999 49.892 16.0619 50.0009 16.1356 50.0434ZM14.4073 49.0456C14.4844 49.0901 14.5442 49.056 14.548 48.9694C14.5482 48.8831 14.4884 48.7735 14.414 48.7306C14.4121 48.7294 14.4101 48.7284 14.4082 48.7274C14.3346 48.6849 14.2713 48.7209 14.271 48.8055C14.2708 48.8941 14.3302 49.0011 14.4073 49.0456ZM15.8561 50.7737C15.8563 50.6873 15.7966 50.5778 15.7221 50.5349C15.7202 50.5337 15.7183 50.5327 15.7163 50.5317C15.6427 50.4892 15.5794 50.5252 15.5791 50.6098C15.5789 50.6984 15.6383 50.8053 15.7154 50.8499C15.7925 50.8944 15.8523 50.8603 15.8561 50.7737Z" fill="white"/>
<path d="M56.9482 27.4314L56.8973 48.6732L56.8082 48.7241L40.3518 58.2695V58.2569L11.6772 41.7114L11.7281 20.4696C11.7281 20.1387 11.8554 19.8969 12.0463 19.7823L28.5918 10.1987C28.7954 10.0841 29.0627 10.0968 29.3554 10.275L55.879 25.5859C56.3499 25.8532 56.7445 26.426 56.8845 26.9987C56.9227 27.1387 56.9482 27.2914 56.9482 27.4314Z" fill="#FEBC1F"/>
<path d="M55.8793 25.5866L29.3566 10.2737C29.0586 10.1016 28.7888 10.0855 28.5941 10.1987L12.0435 19.7843C12.2382 19.6711 12.508 19.6872 12.806 19.8593L39.3287 35.1721C39.9209 35.5141 40.4006 36.3425 40.3986 37.023L40.3456 58.2617L56.8962 48.6761L56.9492 27.4374C56.9512 26.7569 56.4715 25.9285 55.8793 25.5866Z" fill="#FFDE9B"/>
<path d="M56.9448 27.4408L56.8942 48.6773L40.3502 58.2647L40.4008 37.0282C40.4008 36.3453 39.9202 35.5104 39.3257 35.1689L55.8823 25.5815C56.4768 25.923 56.9574 26.7578 56.9448 27.4408Z" fill="#FFD06C"/>
<path d="M39.3289 35.1722C39.9211 35.5142 40.4007 36.3426 40.3988 37.0231L40.3458 58.2618L11.6782 41.7106L11.7313 20.4719C11.7332 19.7914 12.214 19.5174 12.8062 19.8594L39.3289 35.1722Z" fill="#FEBC1F"/>
<path d="M40.5762 45.9479L56.6162 36.6264C56.7213 36.5653 56.8669 36.574 57.0271 36.6665L40.987 45.9879C40.8269 45.8955 40.6813 45.8867 40.5762 45.9479Z" fill="#F8F9FE"/>
<path d="M69.4969 55.8259V58.0278C69.4969 58.2059 69.4333 58.346 69.3187 58.3969L53.2823 67.726C53.3842 67.6623 52.3765 67.3614 52.3765 67.1832L53.4605 65.155L69.4969 55.8259Z" fill="#E9E7FC"/>
<path d="M69.4971 55.826L53.4608 65.1552C53.4608 64.7861 52.4808 65.2675 52.1626 65.0766V63.7424L68.1989 54.4133L68.9244 54.8334C69.2426 55.0115 69.4971 55.457 69.4971 55.826Z" fill="#F3F1FC"/>
<path d="M40.9858 45.9904L57.0259 36.6689L63.9675 40.6767L47.9275 49.9982C45.158 48.5553 41.4142 46.8838 40.9858 45.9904Z" fill="#F8F9FE"/>
<path d="M52.1799 58.404L68.2199 49.0825L68.2048 54.4188L52.1648 63.7402C50.3587 61.8343 50.0325 60.0324 52.1799 58.404Z" fill="#F8F9FE"/>
<path d="M52.0534 57.9137L68.0934 48.5923C68.1744 48.7595 68.2205 48.931 68.2201 49.0824L52.1801 58.4039C51.3968 58.4841 51.6238 58.2319 52.0534 57.9137Z" fill="#F8F9FE"/>
<path d="M48.3794 50.5033L64.4194 41.1819L68.0932 48.5922L52.0532 57.9136C50.3053 55.5712 49.044 53.1101 48.3794 50.5033Z" fill="#F3F1FC"/>
<path d="M67.297 48.3542L63.4251 50.6058L59.9324 52.6328L58.2908 53.5856L52.3099 57.0631L51.6241 55.6824L49.1753 50.7423L54.7405 47.5076L62.275 43.1289L63.9197 42.1761L64.1624 42.0334L65.5917 44.9162L67.297 48.3542Z" fill="#497BFE"/>
<path d="M47.9287 49.9958C48.103 50.0965 48.2694 50.2839 48.3794 50.5035L52.0532 57.9138C52.1343 58.081 52.1803 58.2526 52.1799 58.404L52.1648 63.7402L52.8836 64.1552C53.2013 64.3386 53.4601 64.7846 53.459 65.1497L53.4528 67.3514C53.4517 67.7187 53.1913 67.8649 52.8736 67.6815L40.3677 60.4612L40.3739 58.2706L40.4078 46.3181C40.4088 45.9508 40.6693 45.8046 40.987 45.988L47.9287 49.9958Z" fill="#DEDFFB"/>
<path d="M47.9287 49.9958L63.9687 40.6743C64.1431 40.775 64.3094 40.9625 64.4194 41.182L48.3794 50.5035C48.2694 50.2839 48.1031 50.0964 47.9287 49.9958Z" fill="#F8F9FE"/>
<path d="M49.5613 55.5467L49.5552 57.3977C49.5552 57.7618 49.2973 57.9075 48.9787 57.7254L42.048 53.723C41.7324 53.5409 41.4775 53.0979 41.4775 52.7338L41.4927 48.1578C41.4927 47.7937 41.7506 47.648 42.0662 47.8301L46.7484 50.5338C46.9031 50.6248 47.0549 50.7856 47.1611 50.9768L49.4066 55.0035C49.5067 55.1826 49.5613 55.3798 49.5613 55.5467Z" fill="#497BFE"/>
<path d="M63.2951 55.074L63.2973 55.8476L57.094 59.4291L57.0918 58.6554L63.2951 55.074Z" fill="#B0B8CF"/>
<path d="M63.2911 53.3931L63.2933 54.1693L57.0901 57.7508L57.0879 56.9745L63.2911 53.3931Z" fill="#B0B8CF"/>
<path d="M49.7701 68.8702L40.8154 63.6904C41.2008 62.0184 42.4571 61.2598 43.6982 61.2598C44.3749 61.2598 45.0819 61.4691 45.7889 61.8788C48.0314 63.1715 49.7792 66.3 49.7701 68.8702Z" fill="#111D33"/>
<path d="M45.249 62.82C47.1464 63.9155 48.6888 66.587 48.6827 68.7674C48.6764 70.9582 47.124 71.843 45.2265 70.7475C43.3199 69.6467 41.7775 66.9751 41.7837 64.7843C41.7899 62.6039 43.3424 61.7192 45.249 62.82Z" fill="#4C5C75"/>
<path d="M45.2335 64.2C46.5235 64.9448 47.5613 66.7368 47.5571 68.2086C47.5564 69.701 46.5154 70.2943 45.2183 69.5414C43.9353 68.8006 42.9045 67.0032 42.9087 65.5248C42.9129 64.0586 43.9539 63.4653 45.2335 64.2ZM44.8009 64.4425C44.2114 64.2838 43.7932 64.4216 43.4969 64.8719C43.8437 65.1649 44.1695 65.4458 44.5023 65.7146C44.5187 65.7278 44.5345 65.7387 44.5496 65.7474C44.6666 65.8149 44.7426 65.7514 44.7555 65.5945C44.7629 65.4495 44.7633 65.2964 44.7673 65.1494C44.7784 64.9218 44.7896 64.6902 44.8009 64.4425ZM45.7126 66.1027C45.7234 66.321 45.794 66.4657 45.9412 66.5507C45.9761 66.5708 46.0152 66.5875 46.0588 66.6011C46.15 66.6336 46.2412 66.6621 46.329 66.6885C46.5394 66.7536 46.75 66.8146 46.9745 66.8797C46.6853 66.0953 46.2657 65.4698 45.6878 64.9626L45.6701 64.9888C45.6866 65.3614 45.6996 65.7321 45.7126 66.1027ZM46.6378 69.2272C46.979 68.9965 47.1522 68.6123 47.1749 68.0323C46.8765 67.9892 46.5958 67.932 46.3255 67.9091C46.2096 67.8987 46.1637 68.0012 46.2334 68.1867C46.3624 68.5275 46.4983 68.8683 46.6378 69.2272ZM44.1651 66.9966C44.2321 66.882 44.187 66.7147 44.0434 66.5592C43.8054 66.3008 43.5638 66.0483 43.2978 65.7656C43.3067 66.3396 43.4526 66.9 43.7739 67.5091C43.8585 67.4046 43.9325 67.3102 44.0065 67.2157C44.0593 67.1414 44.1192 67.0791 44.1651 66.9966ZM45.2348 69.1109C45.4594 69.2406 45.6825 69.3229 45.9106 69.3601C45.729 69.0091 45.5649 68.6723 45.3762 68.3495C45.3414 68.2893 45.2589 68.2157 45.1939 68.1782C45.1608 68.1591 45.1323 68.1493 45.1169 68.1554C44.8989 68.2475 44.7019 68.3839 44.4838 68.5122C44.7417 68.7706 44.9892 68.9691 45.2348 69.1109ZM45.231 66.2967C44.9611 66.1409 44.7325 66.2752 44.7316 66.5853C44.7307 66.8995 44.9543 67.2909 45.2277 67.4488C45.2299 67.45 45.232 67.4513 45.2342 67.4525C45.5047 67.6087 45.7298 67.486 45.7342 67.1763C45.742 66.8644 45.5079 66.4565 45.237 66.3001C45.235 66.299 45.233 66.2978 45.231 66.2967ZM45.2361 65.7348C45.159 65.6943 45.0957 65.7304 45.0954 65.815C45.0952 65.9036 45.1581 66.0125 45.2352 66.057C45.3123 66.1016 45.3721 66.0675 45.3759 65.9809C45.3761 65.8923 45.3132 65.7793 45.2361 65.7348ZM44.8554 67.5122C44.8556 67.4258 44.7925 67.3144 44.7212 67.2732C44.7193 67.2721 44.7175 67.2711 44.7156 67.2701C44.6385 67.2256 44.5752 67.2616 44.5749 67.3462C44.5747 67.4349 44.6376 67.5438 44.7147 67.5883C44.7883 67.6308 44.8516 67.5988 44.8554 67.5122ZM46.0814 67.3283C46.1585 67.3728 46.2218 67.3408 46.222 67.2522C46.2257 67.1678 46.1627 67.0564 46.0881 67.0133C46.0861 67.0122 46.0842 67.0111 46.0823 67.0101C46.0086 66.9676 45.9453 67.0036 45.9451 67.0882C45.9448 67.1769 46.0077 67.2858 46.0814 67.3283ZM44.3531 66.3305C44.4302 66.375 44.49 66.3409 44.4938 66.2544C44.494 66.168 44.4342 66.0585 44.3598 66.0155C44.3579 66.0144 44.3559 66.0133 44.354 66.0123C44.2804 65.9698 44.2171 66.0058 44.2168 66.0904C44.2166 66.1791 44.276 66.286 44.3531 66.3305ZM45.8019 68.0586C45.8021 67.9723 45.7424 67.8627 45.6679 67.8198C45.666 67.8187 45.6641 67.8176 45.6621 67.8166C45.5885 67.7741 45.5252 67.8101 45.525 67.8947C45.5247 67.9833 45.5841 68.0903 45.6612 68.1348C45.7383 68.1793 45.7981 68.1452 45.8019 68.0586Z" fill="white"/>
<g opacity="0.3">
<path d="M62.2749 43.1292L58.2907 53.5859L52.3098 57.0633L51.624 55.6827L54.7404 47.5079L62.2749 43.1292Z" fill="white"/>
</g>
<g opacity="0.3">
<path d="M65.5914 44.9164L63.4248 50.606L59.9321 52.633L63.9194 42.1763L64.1622 42.0337L65.5914 44.9164Z" fill="white"/>
</g>
<path d="M56.25 57.8945C56.3664 57.8273 56.4636 57.8772 56.464 58.0109L56.4692 59.8598C56.4696 59.9991 56.373 60.1608 56.2567 60.228L53.6782 61.7167C53.5619 61.7838 53.4695 61.7312 53.4691 61.5919L53.4639 59.743C53.4635 59.6093 53.5553 59.4503 53.6716 59.3832L56.25 57.8945Z" fill="#FEBC1F"/>
<path d="M67.6227 51.4014C67.5772 51.3786 67.524 51.3862 67.4633 51.4166L64.8899 52.9045C64.7685 52.9727 64.6773 53.1322 64.6773 53.2688L64.6849 55.1135C64.6849 55.1894 64.7077 55.2349 64.7457 55.2577L64.2143 54.9465C64.1763 54.9237 64.146 54.8781 64.146 54.8022V52.9576C64.146 52.8209 64.2371 52.6615 64.3509 52.6008L66.9319 51.1054C66.9927 51.075 67.0458 51.0674 67.0838 51.0902L67.6227 51.4014Z" fill="#FFD06C"/>
<path d="M55.8716 57.5655L56.403 57.8767C56.3651 57.8539 56.3119 57.8615 56.2512 57.8919L53.6702 59.3798C53.5563 59.4481 53.4653 59.6075 53.4653 59.7442L53.4729 61.5888C53.4729 61.6647 53.4956 61.7103 53.5336 61.7331L52.9946 61.4218C52.9566 61.399 52.9339 61.3535 52.9339 61.2776L52.9263 59.4329C52.9263 59.2963 53.0174 59.1368 53.1388 59.0761L55.7122 57.5807C55.773 57.5503 55.8261 57.5427 55.8716 57.5655Z" fill="#FFD06C"/>
<path d="M67.4654 51.4194C67.5817 51.3522 67.6789 51.4021 67.6793 51.5358L67.6845 53.3847C67.6849 53.524 67.5883 53.6857 67.472 53.7529L64.8935 55.2416C64.7772 55.3087 64.6848 55.2561 64.6844 55.1168L64.6792 53.2679C64.6788 53.1342 64.7706 52.9752 64.8869 52.9081L67.4654 51.4194Z" fill="#FEBC1F"/>
<path d="M54.3186 51.531C53.4707 51.531 52.7833 52.2188 52.7833 53.0667C52.7833 52.2188 52.0955 51.5313 51.2476 51.5313C52.0955 51.5313 52.7829 50.8435 52.7829 49.9956C52.7829 50.8435 53.4707 51.531 54.3186 51.531Z" fill="#F8F9FE"/>
</svg>
