<svg width="70" height="70" viewBox="0 0 70 70" fill="none" xmlns="http://www.w3.org/2000/svg">
<path d="M62.8688 26.1934L62.9189 46.2273L60.0014 47.9117C56.0914 41.0223 56.1054 34.346 59.9513 27.8778L62.8688 26.1934Z" fill="#F3F1FC"/>
<path d="M59.9984 47.9167L29.7711 30.3403L29.7202 10.3076L59.9475 27.884L59.9984 47.9167Z" fill="#DEDFFB"/>
<path d="M55.7983 38.6257L55.7855 39.9112L55.7728 50.3348L44.5473 56.8512L33.271 50.3348L33.2965 38.6257L37.7255 36.0548L38.6165 35.533L38.9092 35.3676L40.0801 34.6802L44.5092 32.1094L55.7983 38.6257Z" fill="#AA6256"/>
<path d="M55.7925 38.6211L55.7761 50.3371L44.55 56.8512L44.4614 45.2205L55.7925 38.6211Z" fill="#AA6256"/>
<path d="M55.7927 38.6211L55.7912 39.9163L44.5503 46.4488L44.5835 45.1352L55.7927 38.6211Z" fill="#774B24"/>
<path d="M44.5833 45.1351L44.5501 56.8511L33.2676 50.3371L33.3008 38.6211L44.5833 45.1351Z" fill="#BF7D5A"/>
<path d="M55.7927 38.6212L51.3638 41.1932L49.0081 42.5639L44.5841 45.137L33.2998 38.6202L37.7238 36.0506L40.083 34.68L44.5105 32.1069L55.7927 38.6212Z" fill="#8D613A"/>
<path d="M51.3636 41.1934L49.0079 42.5641L37.7236 36.0508L40.0828 34.6802L51.3636 41.1934Z" fill="#DBA660"/>
<path d="M50.4685 41.7134L49.9029 42.0441L38.6187 35.5308L39.1877 35.2002L50.4685 41.7134Z" fill="#8D613A"/>
<path d="M51.363 41.1934L51.3684 43.899L50.7555 43.7124L50.2494 44.5502L49.772 44.2576L49.0132 45.2695L49.0078 42.5639L51.363 41.1934Z" fill="#DBA660"/>
<path d="M59.9516 27.8779L58.77 27.1913L61.6875 25.5068L62.8691 26.1935L59.9516 27.8779Z" fill="#DBB846"/>
<path d="M7.61309 27.4371C6.97041 27.2341 6.43393 26.8399 5.89062 26.4541L5.93638 44.9489L7.94119 46.1139L7.89508 27.4936C7.80495 27.4859 7.71105 27.468 7.61309 27.4371Z" fill="#DEDFFB"/>
<path d="M10.8086 24.3955L10.8586 44.4294L7.94112 46.1139L7.89111 26.0799L10.8086 24.3955Z" fill="#F3F1FC"/>
<path d="M35.4379 62.0935L7.14278 45.6501L7.09277 25.6162L35.3878 42.0595C36.6749 49.5181 37.0999 56.447 35.4379 62.0935Z" fill="#DEDFFB"/>
<path d="M35.3881 42.0596L34.2065 41.3729L37.1241 39.6885L38.3056 40.3751L35.3881 42.0596Z" fill="#DBB846"/>
<path d="M38.3057 40.375L38.3557 60.4089L35.4382 62.0934L35.3882 42.0594L38.3057 40.375Z" fill="#F3F1FC"/>
<path d="M7.89104 26.0801L6.70947 25.3934L9.62698 23.709L10.8086 24.3956L7.89104 26.0801Z" fill="#DBB846"/>
<path d="M32.5045 30.0165L31.323 29.3299L31.2729 11.2119L32.4545 11.8986L32.5045 30.0165Z" fill="#E9E7FC"/>
<path d="M32.4545 11.8984L31.2729 11.2118L34.1905 9.52734L35.372 10.214L32.4545 11.8984Z" fill="#DBB846"/>
<path d="M35.3721 10.2139L35.4221 28.3318L32.5046 30.0163L32.4546 11.8983L35.3721 10.2139Z" fill="#F3F1FC"/>
<path d="M49.1551 25.5068L62.9192 26.2876L35.4365 42.1547L49.1551 25.5068Z" fill="#F3F1FC"/>
<path d="M33.2259 44.8373L4.86835 28.3577L4.45459 27.7412C16.894 32.2073 28.357 37.009 32.8122 44.2209L33.2259 44.8373Z" fill="#CC104A"/>
<path d="M49.1515 24.3912C53.3837 23.8999 59.2428 24.4667 65.5453 25.3221L65.1364 26.4135L62.9187 26.2877L49.1547 25.5069L35.4361 42.1548L33.2257 44.8371L32.812 44.2207C35.6148 35.5218 40.0323 28.0987 49.1515 24.3912Z" fill="#DF3260"/>
<path d="M49.1515 24.3912C33.2362 31.5905 26.0715 21.6042 20.7939 7.91162L37.1878 8.84248L65.5453 25.3221L49.1515 24.3912Z" fill="#F45170"/>
<path d="M49.1528 24.388L32.8109 44.2171L4.45459 27.7353L20.7964 7.90625L49.1528 24.388Z" fill="#E93565"/>
</svg>
