<svg width="250" height="250" viewBox="0 0 250 250" fill="none" xmlns="http://www.w3.org/2000/svg">
<g clipPath="url(#clip0_186_6303)">
<rect width="250" height="250" fill="white"/>
<mask id="mask0_186_6303" style="mask-type:alpha" maskUnits="userSpaceOnUse" x="-13" y="0" width="278" height="276">
<ellipse cx="126.03" cy="138" rx="138.377" ry="138" fill="url(#paint0_linear_186_6303)"/>
</mask>
<g mask="url(#mask0_186_6303)">
<g clipPath="url(#clip1_186_6303)">
<rect x="27.0454" y="-177.967" width="194.953" height="422.647" rx="22.9519" fill="white"/>
<rect x="27.0454" y="43.7734" width="194.953" height="216.284" rx="9.42523" fill="white"/>
<path d="M44.2177 68.6558V61.2594H46.9574C48.7492 61.2594 49.5305 62.3012 49.5305 63.7179C49.5305 65.343 48.4367 66.1243 46.8116 66.1243H45.6657V68.6558H44.2177ZM45.6657 64.8326H46.6553C47.5721 64.8326 48.0096 64.3742 48.0096 63.6971C48.0096 63.0096 47.5721 62.5616 46.7282 62.5616H45.6657V64.8326ZM51.4897 62.9366L50.4271 61.4053H51.6876L52.2085 62.1866H52.2293L52.7502 61.4053H54.0003L52.9377 62.9366H51.4897ZM50.573 68.6558V63.5617H51.9377V64.3013H51.9585C52.3439 63.7804 52.8961 63.4888 53.4898 63.4888H53.594V64.9784C53.4482 64.968 53.3128 64.968 53.2294 64.968C52.3856 64.968 51.9377 65.5306 51.9377 66.3014V68.6558H50.573ZM59.0566 66.0618C59.0566 66.2285 59.0358 66.4681 59.0254 66.5515H55.4522C55.6189 67.1661 56.1085 67.5307 56.7961 67.5307C57.369 67.5307 57.7649 67.2911 58.0357 66.9577L58.9212 67.7807C58.4941 68.3328 57.8378 68.7495 56.7023 68.7495C55.1397 68.7495 54.0355 67.6974 54.0355 66.1035C54.0355 64.5513 55.1084 63.4888 56.619 63.4888C58.0566 63.4888 59.0566 64.5722 59.0566 66.0618ZM56.6085 64.6763C56.0564 64.6763 55.6189 64.9889 55.4626 65.5722H57.7024C57.5669 65.0305 57.2023 64.6763 56.6085 64.6763ZM61.2997 68.6558L59.2996 63.5617H60.758L61.9351 66.9786H61.9456L63.1436 63.5617H64.5707L62.5706 68.6558H61.2997ZM67.5174 68.7495C65.8923 68.7495 64.8089 67.6349 64.8089 66.1139C64.8089 64.593 65.8923 63.4888 67.5174 63.4888C69.1008 63.4888 70.2155 64.5513 70.2155 66.1139C70.2155 67.6661 69.1008 68.7495 67.5174 68.7495ZM67.5174 67.5203C68.2466 67.5203 68.83 66.9473 68.83 66.1139C68.83 65.2805 68.2674 64.7076 67.5174 64.7076C66.7257 64.7076 66.1944 65.3118 66.1944 66.1139C66.1944 66.9056 66.7361 67.5203 67.5174 67.5203ZM70.8307 68.6558V67.7182L73.2788 64.718L73.2683 64.6867H71.0182V63.5617H75.1226V64.4888L72.6433 67.5099L72.6537 67.5307H75.0601V68.6558H70.8307ZM78.8647 68.6558V63.5617H80.2293V64.218H80.2502C80.6564 63.7388 81.2398 63.4888 81.8753 63.4888C82.9587 63.4888 83.7191 64.0721 83.7191 65.6347V68.6558H82.3545V65.9785C82.3545 65.0097 82.0107 64.7076 81.3752 64.7076C80.6877 64.7076 80.2293 65.1868 80.2293 66.1035V68.6558H78.8647ZM86.6036 62.8845L87.7912 61.3636L89.2184 61.3532L87.9266 62.8845H86.6036ZM87.1245 68.7495C85.7286 68.7495 84.6972 67.6974 84.6972 66.1243C84.6972 64.5826 85.7286 63.4888 87.0932 63.4888C87.687 63.4888 88.2287 63.7179 88.5933 64.1555L88.6142 64.145V63.5617H89.9788V68.6558H88.6767V68.0516L88.6558 68.0411C88.3016 68.4995 87.7912 68.7495 87.1245 68.7495ZM87.3849 67.5203C88.0829 67.5203 88.6767 66.9681 88.6767 66.1348C88.6767 65.3118 88.1141 64.7076 87.3849 64.7076C86.6453 64.7076 86.0827 65.2597 86.0827 66.1348C86.0827 66.9473 86.614 67.5203 87.3849 67.5203ZM91.276 68.6558V60.9886H92.6302V65.6972H92.6511L94.4637 63.5617H96.0679L94.2866 65.6035L96.1096 68.6558H94.5783L93.3178 66.5202L92.6302 67.2703V68.6558H91.276ZM96.9236 68.6558V60.9886H98.2882V68.6558H96.9236ZM101.845 68.7495C100.449 68.7495 99.4179 67.6974 99.4179 66.1243C99.4179 64.5826 100.449 63.4888 101.814 63.4888C102.408 63.4888 102.949 63.7179 103.314 64.1555L103.335 64.145V63.5617H104.699V68.6558H103.397V68.0516L103.376 68.0411C103.022 68.4995 102.512 68.7495 101.845 68.7495ZM102.106 67.5203C102.804 67.5203 103.397 66.9681 103.397 66.1348C103.397 65.3118 102.835 64.7076 102.106 64.7076C101.366 64.7076 100.803 65.2597 100.803 66.1348C100.803 66.9473 101.335 67.5203 102.106 67.5203ZM108.143 68.7495C106.736 68.7495 105.705 67.6974 105.705 66.1243C105.705 64.5826 106.747 63.4888 108.111 63.4888C108.736 63.4888 109.278 63.7179 109.653 64.1555H109.674V60.9886H111.028V68.6558H109.726V68.0307H109.716C109.361 68.4891 108.83 68.7495 108.143 68.7495ZM108.393 67.5203C109.143 67.5203 109.726 66.9681 109.726 66.1348C109.726 65.3118 109.174 64.7076 108.393 64.7076C107.663 64.7076 107.09 65.2597 107.09 66.1348C107.09 66.9473 107.632 67.5203 108.393 67.5203ZM114.167 68.7495C113.062 68.7495 112.292 68.187 112.292 66.6348V63.5617H113.646V66.2806C113.646 67.2077 113.927 67.5203 114.563 67.5203C115.156 67.5203 115.688 67.0202 115.688 66.041V63.5617H117.063V68.6558H115.688V68.0516L115.667 68.0411C115.281 68.5099 114.74 68.7495 114.167 68.7495Z" fill="black"/>
<path d="M44.1576 119.734V113.747H44.8913V116.555H48.02V113.747H48.7537V119.734H48.02V117.221H44.8913V119.734H44.1576ZM50.1342 119.734V115.627H50.8173V116.37H50.8257C51.1377 115.872 51.6522 115.577 52.2003 115.577C52.8159 115.577 53.2629 115.889 53.4737 116.454H53.4821C53.7942 115.897 54.3508 115.577 54.9917 115.577C55.9024 115.577 56.4084 116.201 56.4084 117.373V119.734H55.7254V117.559C55.7254 116.682 55.4133 116.201 54.7893 116.201C54.1484 116.201 53.6339 116.774 53.6339 117.694V119.734H52.9509V117.559C52.9509 116.682 52.6135 116.201 51.9979 116.201C51.3233 116.201 50.8173 116.774 50.8173 117.694V119.734H50.1342ZM59.4592 119.785C58.1858 119.785 57.3341 118.866 57.3341 117.685C57.3341 116.504 58.1858 115.577 59.4592 115.577C60.6736 115.577 61.5759 116.437 61.5759 117.685C61.5759 118.933 60.6736 119.785 59.4592 119.785ZM59.4592 119.161C60.2435 119.161 60.876 118.562 60.876 117.685C60.876 116.808 60.2519 116.201 59.4592 116.201C58.5991 116.201 58.034 116.867 58.034 117.685C58.034 118.503 58.6075 119.161 59.4592 119.161ZM63.7498 119.785C63.0245 119.785 62.6872 119.338 62.6872 118.512V116.218H62.1559V115.627H62.6872V114.228L63.3703 114.152V115.627H64.728V116.218H63.3703V118.41C63.3703 118.908 63.4799 119.144 63.8678 119.144C64.1124 119.144 64.3654 119.043 64.5678 118.933L64.7449 119.532C64.5172 119.667 64.2389 119.785 63.7498 119.785ZM65.6416 119.734V115.627H66.3246V116.37H66.3331C66.6535 115.872 67.1932 115.577 67.8257 115.577C68.7112 115.577 69.3015 116.125 69.3015 117.297V119.734H68.6184V117.491C68.6184 116.53 68.2052 116.201 67.6065 116.201C66.8306 116.201 66.3246 116.757 66.3246 117.685V119.734H65.6416ZM72.3642 119.785C71.0908 119.785 70.239 118.866 70.239 117.685C70.239 116.504 71.0908 115.577 72.3642 115.577C73.5786 115.577 74.4809 116.437 74.4809 117.685C74.4809 118.933 73.5786 119.785 72.3642 119.785ZM72.3642 119.161C73.1485 119.161 73.7809 118.562 73.7809 117.685C73.7809 116.808 73.1569 116.201 72.3642 116.201C71.504 116.201 70.939 116.867 70.939 117.685C70.939 118.503 71.5124 119.161 72.3642 119.161ZM76.7391 119.785C76.056 119.785 75.5331 119.549 75.1368 119.203L75.4825 118.68C75.803 118.992 76.1656 119.178 76.7391 119.178C77.2366 119.178 77.5233 118.933 77.5233 118.621C77.5233 118.259 77.1438 118.157 76.5451 117.938C75.8789 117.702 75.3139 117.432 75.3139 116.682C75.3139 116.049 75.8873 115.577 76.6632 115.577C77.1607 115.577 77.6245 115.712 78.0799 116.083L77.7257 116.623C77.3715 116.294 76.992 116.184 76.6379 116.184C76.3174 116.184 76.0054 116.37 76.0054 116.682C76.0054 117.002 76.3343 117.162 76.7812 117.323C77.6498 117.66 78.2233 117.812 78.2148 118.613C78.2148 119.254 77.7257 119.785 76.7391 119.785ZM80.336 119.785C79.6107 119.785 79.2734 119.338 79.2734 118.512V116.218H78.7421V115.627H79.2734V114.228L79.9565 114.152V115.627H81.3142V116.218H79.9565V118.41C79.9565 118.908 80.0661 119.144 80.454 119.144C80.6986 119.144 80.9516 119.043 81.154 118.933L81.3311 119.532C81.1034 119.667 80.8251 119.785 80.336 119.785ZM84.5254 119.734V115.627H85.2085V116.37H85.217C85.5374 115.872 86.0771 115.577 86.7096 115.577C87.5951 115.577 88.1854 116.125 88.1854 117.297V119.734H87.5023V117.491C87.5023 116.53 87.0891 116.201 86.4904 116.201C85.7145 116.201 85.2085 116.757 85.2085 117.685V119.734H84.5254ZM90.877 115.037L91.8721 113.848L92.6395 113.84L91.5938 115.037H90.877ZM91.1131 119.785C89.9831 119.785 89.1145 118.959 89.1145 117.71C89.1145 116.496 89.9494 115.577 91.1131 115.577C91.7203 115.577 92.2516 115.864 92.5468 116.361L92.5636 116.353V115.627H93.2467V119.734H92.5889V118.992H92.5805C92.2853 119.481 91.7794 119.785 91.1131 119.785ZM91.2143 119.161C91.9733 119.161 92.5889 118.579 92.5889 117.71C92.5889 116.867 92.0239 116.201 91.2143 116.201C90.4385 116.201 89.806 116.8 89.806 117.71C89.806 118.537 90.371 119.161 91.2143 119.161ZM94.4739 119.734V113.528H95.1569V117.871L95.1654 117.879L97.1809 115.627H98.0073L96.4725 117.323L98.0242 119.734H97.2399L96.0003 117.803L95.1569 118.714V119.734H94.4739ZM98.881 119.734V113.528H99.5641V119.734H98.881ZM102.626 119.785C101.496 119.785 100.628 118.959 100.628 117.71C100.628 116.496 101.463 115.577 102.626 115.577C103.233 115.577 103.765 115.864 104.06 116.361L104.077 116.353V115.627H104.76V119.734H104.102V118.992H104.094C103.799 119.481 103.293 119.785 102.626 119.785ZM102.728 119.161C103.486 119.161 104.102 118.579 104.102 117.71C104.102 116.867 103.537 116.201 102.728 116.201C101.952 116.201 101.319 116.8 101.319 117.71C101.319 118.537 101.884 119.161 102.728 119.161ZM107.733 119.785C106.594 119.785 105.717 118.959 105.717 117.71C105.717 116.496 106.569 115.577 107.724 115.577C108.348 115.577 108.88 115.864 109.192 116.361H109.2V113.528H109.883V119.734H109.225V118.975H109.217C108.922 119.473 108.399 119.785 107.733 119.785ZM107.825 119.161C108.601 119.161 109.225 118.579 109.225 117.71C109.225 116.867 108.66 116.201 107.834 116.201C107.05 116.201 106.417 116.8 106.417 117.71C106.417 118.537 106.991 119.161 107.825 119.161ZM112.609 119.785C111.665 119.785 111.066 119.245 111.066 118.073V115.627H111.749V117.879C111.749 118.807 112.103 119.161 112.753 119.161C113.411 119.161 113.976 118.596 113.976 117.618V115.627H114.659V119.734H113.976V119.026H113.967C113.655 119.515 113.149 119.785 112.609 119.785Z" fill="black"/>
<path d="M189.479 119.734L189.462 119.085L191.326 117.12C191.798 116.623 192.144 116.201 192.144 115.703C192.144 115.189 191.781 114.801 191.259 114.801C190.795 114.801 190.415 115.029 190.154 115.484L189.454 114.987C189.783 114.362 190.382 113.89 191.326 113.89C192.279 113.89 193.139 114.531 193.139 115.594C193.139 116.235 192.911 116.783 192.178 117.542L190.955 118.815L190.963 118.84H193.198V119.734H189.479ZM194.752 119.802C194.398 119.802 194.111 119.524 194.111 119.178C194.111 118.832 194.398 118.545 194.752 118.545C195.098 118.545 195.384 118.832 195.384 119.178C195.384 119.524 195.098 119.802 194.752 119.802ZM198.383 116.015C199.386 116.015 200.212 116.715 200.212 117.879C200.212 119.018 199.394 119.802 198.163 119.802C197.371 119.802 196.645 119.473 196.19 118.866L196.898 118.301C197.143 118.655 197.564 118.899 198.079 118.899C198.787 118.899 199.217 118.453 199.217 117.862C199.217 117.213 198.644 116.859 198.096 116.859C197.742 116.859 197.43 116.935 197.151 117.162L196.62 116.977L196.789 113.941H199.926V114.843H197.708L197.632 116.142C197.902 116.058 198.18 116.015 198.383 116.015ZM204.741 119.802C204.033 119.802 203.594 119.355 203.594 118.436V116.42H203.088V115.619H203.594V114.253L204.539 114.152V115.619H205.745V116.42H204.539V118.343C204.539 118.765 204.665 118.916 204.935 118.916C205.096 118.916 205.323 118.857 205.542 118.739L205.787 119.557C205.542 119.692 205.281 119.802 204.741 119.802Z" fill="black"/>
<path d="M43.4155 126.695H206.125" stroke="#EDEDED" strokeWidth="0.496065"/>
<path d="M46.4936 133.061L45.5407 132.015H46.2322L46.8478 132.673H46.8647L47.4971 132.015H48.1887L47.2104 133.061H46.4936ZM46.8815 139.698C45.2624 139.698 43.8962 138.635 43.8962 136.679C43.8962 134.984 44.9588 133.609 46.8731 133.609C47.7333 133.609 48.5766 133.98 49.2091 134.756L48.6609 135.212C48.1634 134.596 47.5477 134.309 46.8731 134.309C45.5154 134.309 44.6636 135.304 44.6636 136.679C44.6636 138.113 45.6166 139.006 46.8815 139.006C47.6574 139.006 48.2477 138.635 48.6693 138.104L49.2175 138.568C48.6946 139.217 47.9357 139.698 46.8815 139.698ZM50.375 134.959L51.3701 133.769L52.1375 133.761L51.0918 134.959H50.375ZM50.3413 139.656V135.549H51.0244V139.656H50.3413ZM53.5974 139.706C52.9144 139.706 52.3915 139.47 51.9952 139.124L52.3409 138.602C52.6614 138.914 53.024 139.099 53.5974 139.099C54.095 139.099 54.3817 138.855 54.3817 138.543C54.3817 138.18 54.0022 138.079 53.4035 137.86C52.7373 137.623 52.1722 137.354 52.1722 136.603C52.1722 135.97 52.7457 135.498 53.5215 135.498C54.0191 135.498 54.4829 135.633 54.9383 136.004L54.5841 136.544C54.2299 136.215 53.8504 136.105 53.4962 136.105C53.1758 136.105 52.8638 136.291 52.8638 136.603C52.8638 136.923 53.1927 137.084 53.6396 137.244C54.5082 137.581 55.0817 137.733 55.0732 138.534C55.0732 139.175 54.5841 139.706 53.5974 139.706ZM56.0896 139.656V133.449H56.7727V139.656H56.0896ZM59.9698 139.706C58.6964 139.706 57.8447 138.787 57.8447 137.607C57.8447 136.426 58.6964 135.498 59.9698 135.498C61.1842 135.498 62.0865 136.358 62.0865 137.607C62.0865 138.855 61.1842 139.706 59.9698 139.706ZM59.9698 139.082C60.7541 139.082 61.3866 138.484 61.3866 137.607C61.3866 136.729 60.7625 136.122 59.9698 136.122C59.1097 136.122 58.5446 136.789 58.5446 137.607C58.5446 138.425 59.1181 139.082 59.9698 139.082ZM65.4027 141.326V135.549H66.0858V136.274H66.0942C66.4063 135.785 66.9291 135.498 67.5532 135.498C68.7169 135.498 69.5518 136.417 69.5518 137.632C69.5518 138.88 68.6832 139.706 67.5532 139.706C66.9038 139.706 66.3978 139.42 66.0942 138.947H66.0858V141.326H65.4027ZM67.4604 139.082C68.2869 139.082 68.8603 138.458 68.8603 137.632C68.8603 136.721 68.2278 136.122 67.452 136.122C66.6171 136.122 66.0521 136.789 66.0521 137.632C66.0521 138.5 66.6761 139.082 67.4604 139.082ZM71.3502 134.975L70.4142 133.803H71.1057L71.7129 134.545H71.7297L72.3369 133.803H73.0369L72.0671 134.975H71.3502ZM70.5828 139.656V135.549H71.2659V136.299H71.2828C71.5779 135.802 72.0502 135.498 72.6152 135.498C72.6742 135.498 72.7248 135.498 72.7839 135.507V136.266C72.6827 136.257 72.5815 136.249 72.514 136.249C71.7297 136.249 71.2659 136.848 71.2659 137.674V139.656H70.5828ZM77.0756 137.531C77.0756 137.64 77.0587 137.758 77.0587 137.809H73.8541C73.9469 138.576 74.4866 139.082 75.2625 139.082C75.8106 139.082 76.1985 138.846 76.4515 138.534L76.9322 138.939C76.578 139.394 76.0636 139.706 75.2372 139.706C74.0228 139.706 73.1626 138.863 73.1626 137.607C73.1626 136.367 74.0144 135.498 75.1866 135.498C76.3082 135.498 77.0756 136.358 77.0756 137.531ZM75.1781 136.122C74.5204 136.122 73.9975 136.552 73.871 137.252H76.3925C76.2913 136.578 75.8528 136.122 75.1781 136.122ZM79.1187 139.656L77.449 135.549H78.1911L79.4476 138.787H79.456L80.7126 135.549H81.4462L79.7765 139.656H79.1187ZM83.9021 139.706C82.6287 139.706 81.7769 138.787 81.7769 137.607C81.7769 136.426 82.6287 135.498 83.9021 135.498C85.1164 135.498 86.0188 136.358 86.0188 137.607C86.0188 138.855 85.1164 139.706 83.9021 139.706ZM83.9021 139.082C84.6863 139.082 85.3188 138.484 85.3188 137.607C85.3188 136.729 84.6948 136.122 83.9021 136.122C83.0419 136.122 82.4769 136.789 82.4769 137.607C82.4769 138.425 83.0503 139.082 83.9021 139.082ZM86.5929 139.656V139.158L88.9794 136.164L88.971 136.139H86.7194V135.549H89.9155V136.038L87.5205 139.057L87.5289 139.065H89.9155V139.656H86.5929ZM92.3502 139.706C91.4057 139.706 90.8069 139.167 90.8069 137.994V135.549H91.49V137.8C91.49 138.728 91.8442 139.082 92.4935 139.082C93.1513 139.082 93.7163 138.517 93.7163 137.539V135.549H94.3994V139.656H93.7163V138.947H93.7079C93.3959 139.437 92.8899 139.706 92.3502 139.706Z" fill="black"/>
<path d="M181.462 139.656V138.99L183.579 136.367L183.571 136.342H181.606V135.54H184.878V136.19L182.744 138.838L182.753 138.855H184.844V139.656H181.462ZM186.912 139.656V135.034L185.867 135.819L185.403 135.093L187.098 133.862H187.891V139.656H186.912ZM188.973 139.656L188.957 139.006L190.82 137.042C191.293 136.544 191.638 136.122 191.638 135.625C191.638 135.11 191.276 134.722 190.753 134.722C190.289 134.722 189.91 134.95 189.648 135.405L188.948 134.908C189.277 134.284 189.876 133.812 190.82 133.812C191.773 133.812 192.633 134.453 192.633 135.515C192.633 136.156 192.406 136.704 191.672 137.463L190.449 138.737L190.458 138.762H192.692V139.656H188.973ZM195.792 139.656V138.678H193.262V138.011L195.952 133.862H196.77V137.809H197.571V138.678H196.77V139.656H195.792ZM194.401 137.834H195.826V135.515L194.401 137.834ZM199.364 139.656V135.034L198.319 135.819L197.855 135.093L199.55 133.862H200.343V139.656H199.364ZM203.567 135.937C204.571 135.937 205.397 136.637 205.397 137.8C205.397 138.939 204.579 139.723 203.348 139.723C202.555 139.723 201.83 139.394 201.375 138.787L202.083 138.222C202.328 138.576 202.749 138.821 203.264 138.821C203.972 138.821 204.402 138.374 204.402 137.784C204.402 137.134 203.829 136.78 203.281 136.78C202.927 136.78 202.615 136.856 202.336 137.084L201.805 136.898L201.974 133.862H205.111V134.765H202.893L202.817 136.063C203.087 135.979 203.365 135.937 203.567 135.937Z" fill="black"/>
<path d="M181.125 140.373H205.828V140.786H181.125V140.373Z" fill="black"/>
<path d="M43.4155 146.616H206.125" stroke="#EDEDED" strokeWidth="0.496065"/>
<path d="M46.9068 159.628C45.1612 159.628 43.8962 158.363 43.8962 156.583C43.8962 154.804 45.1612 153.531 46.9068 153.531C48.585 153.531 49.8921 154.753 49.8921 156.583C49.8921 158.405 48.585 159.628 46.9068 159.628ZM46.9068 158.936C48.1465 158.936 49.1247 157.966 49.1247 156.583C49.1247 155.192 48.1465 154.222 46.9068 154.222C45.6081 154.222 44.6636 155.226 44.6636 156.583C44.6636 157.933 45.6081 158.936 46.9068 158.936ZM52.8042 159.628C52.0537 159.628 51.2862 159.341 50.6875 158.7L51.1597 158.135C51.5898 158.675 52.2308 158.945 52.8126 158.945C53.5463 158.945 54.0439 158.607 54.0439 158.025C54.0439 157.359 53.5042 157.182 52.703 156.879C51.8175 156.55 50.9152 156.17 50.9152 155.116C50.9152 154.222 51.7163 153.531 52.7452 153.531C53.4114 153.531 54.0692 153.775 54.6342 154.231L54.1872 154.812C53.7065 154.416 53.1921 154.205 52.7452 154.205C52.1802 154.205 51.6826 154.509 51.6742 155.082C51.6657 155.656 52.2055 155.867 52.956 156.153C53.9595 156.55 54.8113 156.82 54.8113 157.941C54.8113 159.037 53.8499 159.628 52.8042 159.628ZM55.9673 159.577V153.59H58.0587C59.4586 153.59 60.0405 154.382 60.0405 155.445C60.0405 156.71 59.1803 157.292 57.9322 157.292H56.701V159.577H55.9673ZM56.701 156.626H57.8647C58.8598 156.626 59.2815 156.12 59.2815 155.428C59.2815 154.661 58.7839 154.256 57.9828 154.256H56.701V156.626Z" fill="black"/>
<path d="M194.786 159.577V154.956L193.741 155.74L193.277 155.015L194.972 153.784H195.765V159.577H194.786ZM196.847 159.577L196.831 158.928L198.694 156.963C199.167 156.465 199.512 156.044 199.512 155.546C199.512 155.032 199.15 154.644 198.627 154.644C198.163 154.644 197.784 154.871 197.522 155.327L196.822 154.829C197.151 154.205 197.75 153.733 198.694 153.733C199.647 153.733 200.507 154.374 200.507 155.436C200.507 156.077 200.28 156.626 199.546 157.385L198.323 158.658L198.332 158.683H200.566V159.577H196.847ZM203.913 159.577V153.37H204.857V159.577H203.913Z" fill="black"/>
<path d="M193.125 160.294H205.532V160.707H193.125V160.294Z" fill="black"/>
<path d="M27.0454 99.085H221.999" stroke="#EDEDED" strokeWidth="1.98426"/>
<path d="M44.114 84.5142V78.8789H44.7966L47.9793 83.3633H47.9873V78.8789H48.6778V84.5142H47.9714L44.8204 80.0774H44.8045V84.5142H44.114ZM51.3841 80.0932L52.3207 78.9741L53.043 78.9662L52.0588 80.0932H51.3841ZM51.6064 84.5618C50.5428 84.5618 49.7253 83.784 49.7253 82.6093C49.7253 81.4663 50.5111 80.6012 51.6064 80.6012C52.1778 80.6012 52.6779 80.8711 52.9557 81.3393L52.9715 81.3314V80.6488H53.6144V84.5142H52.9953V83.8157H52.9874C52.7096 84.276 52.2334 84.5618 51.6064 84.5618ZM51.7016 83.9744C52.4159 83.9744 52.9953 83.4268 52.9953 82.6093C52.9953 81.8156 52.4636 81.1885 51.7016 81.1885C50.9714 81.1885 50.3761 81.7521 50.3761 82.6093C50.3761 83.3871 50.9079 83.9744 51.7016 83.9744ZM56.4124 84.5618C55.3409 84.5618 54.5154 83.784 54.5154 82.6093C54.5154 81.4663 55.317 80.6012 56.4044 80.6012C56.9918 80.6012 57.4918 80.8711 57.7855 81.3393H57.7934V78.6725H58.4363V84.5142H57.8172V83.7998H57.8093C57.5315 84.2681 57.0394 84.5618 56.4124 84.5618ZM56.4997 83.9744C57.2299 83.9744 57.8172 83.4268 57.8172 82.6093C57.8172 81.8156 57.2854 81.1885 56.5076 81.1885C55.7695 81.1885 55.1742 81.7521 55.1742 82.6093C55.1742 83.3871 55.7139 83.9744 56.4997 83.9744ZM59.637 84.5142V80.6488H60.2799V81.3552H60.2958C60.5736 80.8869 61.0181 80.6012 61.5499 80.6012C61.6054 80.6012 61.653 80.6012 61.7086 80.6091V81.3235C61.6134 81.3155 61.5181 81.3076 61.4546 81.3076C60.7165 81.3076 60.2799 81.8711 60.2799 82.649V84.5142H59.637ZM63.946 84.5618C62.8824 84.5618 62.0649 83.784 62.0649 82.6093C62.0649 81.4663 62.8507 80.6012 63.946 80.6012C64.5174 80.6012 65.0175 80.8711 65.2953 81.3393L65.3111 81.3314V80.6488H65.954V84.5142H65.335V83.8157H65.327C65.0492 84.276 64.573 84.5618 63.946 84.5618ZM64.0412 83.9744C64.7556 83.9744 65.335 83.4268 65.335 82.6093C65.335 81.8156 64.8032 81.1885 64.0412 81.1885C63.311 81.1885 62.7157 81.7521 62.7157 82.6093C62.7157 83.3871 63.2475 83.9744 64.0412 83.9744ZM68.0218 80.1091L67.1408 79.0059H67.7916L68.3631 79.7043H68.3789L68.9504 79.0059H69.6092L68.6964 80.1091H68.0218ZM66.7915 84.5142V84.0459L69.0377 81.2282L69.0298 81.2044H66.9106V80.6488H69.9187V81.1092L67.6646 83.9506L67.6725 83.9586H69.9187V84.5142H66.7915ZM70.9244 80.0932L71.8609 78.9741L72.5832 78.9662L71.599 80.0932H70.9244ZM70.8926 84.5142V80.6488H71.5355V84.5142H70.8926ZM76.7151 84.5142L74.5879 78.8789H75.334L77.0246 83.5141H77.0325L78.7231 78.8789H79.4613L77.3341 84.5142H76.7151ZM83.1489 82.514C83.1489 82.6172 83.133 82.7283 83.133 82.7759H80.1169C80.2042 83.4982 80.7122 83.9744 81.4424 83.9744C81.9583 83.9744 82.3234 83.7522 82.5615 83.4585L83.014 83.8395C82.6806 84.2681 82.1964 84.5618 81.4186 84.5618C80.2757 84.5618 79.4661 83.7681 79.4661 82.5855C79.4661 81.4187 80.2677 80.6012 81.371 80.6012C82.4266 80.6012 83.1489 81.4108 83.1489 82.514ZM81.3631 81.1885C80.744 81.1885 80.2519 81.5933 80.1328 82.2521H82.506C82.4107 81.6171 81.998 81.1885 81.3631 81.1885ZM84.1391 84.5142V78.6725H84.782V84.5142H84.1391ZM89.4737 82.514C89.4737 82.6172 89.4578 82.7283 89.4578 82.7759H86.4418C86.5291 83.4982 87.037 83.9744 87.7673 83.9744C88.2832 83.9744 88.6483 83.7522 88.8864 83.4585L89.3388 83.8395C89.0054 84.2681 88.5213 84.5618 87.7434 84.5618C86.6005 84.5618 85.7909 83.7681 85.7909 82.5855C85.7909 81.4187 86.5926 80.6012 87.6958 80.6012C88.7514 80.6012 89.4737 81.4108 89.4737 82.514ZM87.6879 81.1885C87.0688 81.1885 86.5767 81.5933 86.4576 82.2521H88.8308C88.7356 81.6171 88.3228 81.1885 87.6879 81.1885ZM91.583 84.5618C90.9401 84.5618 90.448 84.3395 90.075 84.0141L90.4004 83.522C90.702 83.8157 91.0433 83.9903 91.583 83.9903C92.0513 83.9903 92.3212 83.7601 92.3212 83.4665C92.3212 83.1252 91.964 83.0299 91.4005 82.8236C90.7735 82.6013 90.2417 82.3473 90.2417 81.641C90.2417 81.0457 90.7814 80.6012 91.5116 80.6012C91.9799 80.6012 92.4164 80.7282 92.845 81.0774L92.5117 81.5854C92.1783 81.2758 91.8211 81.1727 91.4878 81.1727C91.1862 81.1727 90.8925 81.3473 90.8925 81.641C90.8925 81.9426 91.2021 82.0934 91.6227 82.2442C92.4402 82.5616 92.98 82.7045 92.972 83.4585C92.972 84.0617 92.5117 84.5618 91.583 84.5618ZM93.9286 84.5142V78.6725H94.5715V84.5142H93.9286ZM97.4536 84.5618C96.39 84.5618 95.5725 83.784 95.5725 82.6093C95.5725 81.4663 96.3583 80.6012 97.4536 80.6012C98.0251 80.6012 98.5251 80.8711 98.8029 81.3393L98.8188 81.3314V80.6488H99.4617V84.5142H98.8426V83.8157H98.8346C98.5568 84.276 98.0806 84.5618 97.4536 84.5618ZM97.5488 83.9744C98.2632 83.9744 98.8426 83.4268 98.8426 82.6093C98.8426 81.8156 98.3108 81.1885 97.5488 81.1885C96.8186 81.1885 96.2234 81.7521 96.2234 82.6093C96.2234 83.3871 96.7551 83.9744 97.5488 83.9744ZM101.767 84.5142L100.196 80.6488H100.894L102.077 83.6966H102.085L103.268 80.6488H103.958L102.387 84.5142H101.767ZM104.82 80.0932L105.756 78.9741L106.478 78.9662L105.494 80.0932H104.82ZM104.788 84.5142V80.6488H105.431V84.5142H104.788ZM106.686 84.5142V80.6488H107.329V81.3473H107.337C107.638 80.879 108.146 80.6012 108.741 80.6012C109.575 80.6012 110.13 81.1171 110.13 82.2204V84.5142H109.487V82.4029C109.487 81.4981 109.099 81.1885 108.535 81.1885C107.805 81.1885 107.329 81.7124 107.329 82.5855V84.5142H106.686Z" fill="#484848"/>
<circle cx="117.368" cy="81.5141" r="0.99213" fill="#484848"/>
<path d="M124.893 84.5142V79.8631L123.805 80.6885L123.48 80.1885L125.004 79.0614H125.56V84.5142H124.893ZM129.04 84.5142V78.6725H129.683V81.3235H129.691C129.993 80.8631 130.501 80.6012 131.12 80.6012C131.953 80.6012 132.525 81.0933 132.525 82.1965V84.5142H131.882V82.3791C131.882 81.506 131.493 81.1885 130.929 81.1885C130.159 81.1885 129.683 81.6965 129.683 82.5696V84.5142H129.04ZM135.406 84.5618C134.208 84.5618 133.406 83.6966 133.406 82.5855C133.406 81.4743 134.208 80.6012 135.406 80.6012C136.549 80.6012 137.398 81.4108 137.398 82.5855C137.398 83.7601 136.549 84.5618 135.406 84.5618ZM135.406 83.9744C136.144 83.9744 136.74 83.4109 136.74 82.5855C136.74 81.76 136.152 81.1885 135.406 81.1885C134.597 81.1885 134.065 81.8156 134.065 82.5855C134.065 83.3554 134.604 83.9744 135.406 83.9744ZM140 84.5618C138.928 84.5618 138.103 83.784 138.103 82.6093C138.103 81.4663 138.905 80.6012 139.992 80.6012C140.579 80.6012 141.079 80.8711 141.373 81.3393H141.381V78.6725H142.024V84.5142H141.405V83.7998H141.397C141.119 84.2681 140.627 84.5618 140 84.5618ZM140.087 83.9744C140.817 83.9744 141.405 83.4268 141.405 82.6093C141.405 81.8156 140.873 81.1885 140.095 81.1885C139.357 81.1885 138.762 81.7521 138.762 82.6093C138.762 83.3871 139.301 83.9744 140.087 83.9744ZM147.03 81.0536C147.998 81.0536 148.792 81.6965 148.792 82.7918C148.792 83.8474 147.998 84.5618 146.895 84.5618C146.141 84.5618 145.458 84.2284 145.078 83.657L145.578 83.2839C145.824 83.6808 146.284 83.9427 146.84 83.9427C147.601 83.9427 148.109 83.4585 148.109 82.7839C148.109 82.0457 147.514 81.633 146.847 81.633C146.49 81.633 146.165 81.7203 145.887 81.9346L145.498 81.8156L145.657 79.0614H148.538V79.6805H146.284L146.197 81.2124C146.482 81.1092 146.808 81.0536 147.03 81.0536ZM151.929 84.5142V80.6488H152.572V81.3473H152.58C152.873 80.879 153.358 80.6012 153.873 80.6012C154.453 80.6012 154.874 80.8949 155.072 81.4267H155.08C155.374 80.9028 155.897 80.6012 156.501 80.6012C157.358 80.6012 157.834 81.1885 157.834 82.2918V84.5142H157.191V82.4664C157.191 81.641 156.897 81.1885 156.31 81.1885C155.707 81.1885 155.223 81.7283 155.223 82.5934V84.5142H154.58V82.4664C154.58 81.641 154.262 81.1885 153.683 81.1885C153.048 81.1885 152.572 81.7283 152.572 82.5934V84.5142H151.929ZM159.324 79.9424C159.062 79.9424 158.856 79.7361 158.856 79.4821C158.856 79.2281 159.062 79.0217 159.324 79.0217C159.586 79.0217 159.793 79.2281 159.793 79.4821C159.793 79.7361 159.586 79.9424 159.324 79.9424ZM158.999 84.5142V80.6488H159.642V84.5142H158.999ZM160.897 84.5142V80.6488H161.54V81.3473H161.548C161.849 80.879 162.357 80.6012 162.953 80.6012C163.786 80.6012 164.342 81.1171 164.342 82.2204V84.5142H163.699V82.4029C163.699 81.4981 163.31 81.1885 162.746 81.1885C162.016 81.1885 161.54 81.7124 161.54 82.5855V84.5142H160.897Z" fill="#484848"/>
<rect x="42.9194" y="190.609" width="163.205" height="29.8426" rx="14.9213" fill="black"/>
<path d="M101.919 208.53V207.657L104.546 203.911L104.538 203.887H102.03V202.895H106.03V203.744L103.34 207.514L103.355 207.538H106.038V208.53H101.919ZM108.471 208.602C107.407 208.602 106.621 207.8 106.621 206.602C106.621 205.427 107.407 204.594 108.447 204.594C108.899 204.594 109.312 204.768 109.59 205.101L109.606 205.094V204.649H110.645V208.53H109.653V208.07L109.637 208.062C109.367 208.411 108.979 208.602 108.471 208.602ZM108.669 207.665C109.201 207.665 109.653 207.244 109.653 206.61C109.653 205.982 109.225 205.522 108.669 205.522C108.105 205.522 107.677 205.943 107.677 206.61C107.677 207.229 108.082 207.665 108.669 207.665ZM111.634 208.53V202.689H112.673V205.117H112.681C112.999 204.768 113.443 204.594 113.951 204.594C114.777 204.594 115.372 205.014 115.372 206.205V208.53H114.332V206.467C114.332 205.76 114.07 205.522 113.578 205.522C113.023 205.522 112.673 205.871 112.673 206.57V208.53H111.634ZM117.569 204.133L118.474 202.974L119.561 202.966L118.577 204.133H117.569ZM117.966 208.602C116.902 208.602 116.116 207.8 116.116 206.602C116.116 205.427 116.902 204.594 117.942 204.594C118.394 204.594 118.807 204.768 119.085 205.101L119.101 205.094V204.649H120.14V208.53H119.148V208.07L119.132 208.062C118.862 208.411 118.474 208.602 117.966 208.602ZM118.164 207.665C118.696 207.665 119.148 207.244 119.148 206.61C119.148 205.982 118.72 205.522 118.164 205.522C117.6 205.522 117.172 205.943 117.172 206.61C117.172 207.229 117.577 207.665 118.164 207.665ZM121.637 204.125C121.256 204.125 120.978 203.839 120.978 203.482C120.978 203.133 121.256 202.847 121.637 202.847C122.01 202.847 122.295 203.133 122.295 203.482C122.295 203.839 122.01 204.125 121.637 204.125ZM121.01 210.173C120.66 210.173 120.454 210.126 120.2 210.022L120.375 209.165C120.478 209.221 120.637 209.26 120.756 209.26C121.002 209.26 121.113 209.078 121.113 208.721V204.649H122.152V208.76C122.152 209.697 121.684 210.173 121.01 210.173ZM123.723 204.125C123.342 204.125 123.065 203.839 123.065 203.482C123.065 203.133 123.342 202.847 123.723 202.847C124.096 202.847 124.382 203.133 124.382 203.482C124.382 203.839 124.096 204.125 123.723 204.125ZM123.192 208.53V204.649H124.231V208.53H123.192ZM126.513 208.602C125.846 208.602 125.409 208.181 125.409 207.308V205.514H124.949V204.649H125.409V203.387L126.449 203.276V204.649H127.497V205.514H126.449V207.157C126.449 207.498 126.536 207.657 126.783 207.657C126.91 207.657 127.1 207.61 127.275 207.522L127.537 208.356C127.29 208.491 127.037 208.602 126.513 208.602ZM130.791 204.125C130.41 204.125 130.132 203.839 130.132 203.482C130.132 203.133 130.41 202.847 130.791 202.847C131.164 202.847 131.449 203.133 131.449 203.482C131.449 203.839 131.164 204.125 130.791 204.125ZM130.164 210.173C129.814 210.173 129.608 210.126 129.354 210.022L129.529 209.165C129.632 209.221 129.79 209.26 129.91 209.26C130.156 209.26 130.267 209.078 130.267 208.721V204.649H131.306V208.76C131.306 209.697 130.838 210.173 130.164 210.173ZM132.393 204.133L133.298 202.974L134.385 202.966L133.401 204.133H132.393ZM132.345 208.53V204.649H133.385V208.53H132.345ZM134.23 208.53V207.816L136.095 205.53L136.087 205.506H134.373V204.649H137.5V205.355L135.611 207.657L135.619 207.673H137.452V208.53H134.23ZM139.831 208.602C138.76 208.602 137.974 207.8 137.974 206.602C137.974 205.427 138.768 204.594 139.808 204.594C140.284 204.594 140.697 204.768 140.982 205.101H140.998V202.689H142.03V208.53H141.038V208.054H141.03C140.76 208.403 140.355 208.602 139.831 208.602ZM140.022 207.665C140.593 207.665 141.038 207.244 141.038 206.61C141.038 205.982 140.617 205.522 140.022 205.522C139.466 205.522 139.03 205.943 139.03 206.61C139.03 207.229 139.442 207.665 140.022 207.665ZM144.421 208.602C143.58 208.602 142.993 208.173 142.993 206.99V204.649H144.024V206.721C144.024 207.427 144.239 207.665 144.723 207.665C145.175 207.665 145.58 207.284 145.58 206.538V204.649H146.628V208.53H145.58V208.07L145.564 208.062C145.27 208.419 144.858 208.602 144.421 208.602Z" fill="white"/>
</g>
<rect x="27.5444" y="-177.468" width="193.956" height="421.649" rx="22.4529" stroke="black" strokeWidth="0.997908"/>
</g>
<path d="M174.257 234.447V206.272L195.161 225.359L186.072 226.722L191.071 236.72L185.618 238.537L181.073 227.631L174.257 234.447Z" fill="white" stroke="black" strokeWidth="0.908869"/>
<path d="M197.954 226.673L173.298 204L173.281 237.496L180.763 230.337L185.158 240.355L192.014 237.347L187.62 227.329L197.954 226.673ZM189.208 236.252L186.253 237.549L181.491 226.693L175.413 232.508L175.425 208.85L192.84 224.864L184.446 225.397L189.208 236.252Z" fill="black"/>
</g>
<defs>
<linearGradient id="paint0_linear_186_6303" x1="126.03" y1="0" x2="126.03" y2="276" gradientUnits="userSpaceOnUse">
<stop offset="0.13" stopOpacity="0"/>
<stop offset="0.4"/>
</linearGradient>
<clipPath id="clip0_186_6303">
<rect width="250" height="250" fill="white"/>
</clipPath>
<clipPath id="clip1_186_6303">
<rect x="27.0454" y="-177.967" width="194.953" height="422.647" rx="22.9519" fill="white"/>
</clipPath>
</defs>
</svg>
