<svg width="91" height="91" viewBox="0 0 91 91" fill="none" xmlns="http://www.w3.org/2000/svg">
<rect x="0.0893555" y="0.670898" width="90" height="90" rx="8" fill="#F1F5F9"/>
<path d="M72.9582 36.8645L73.0082 56.8984L70.0907 58.5829C66.1807 51.6935 66.1948 45.0172 70.0407 38.5489L72.9582 36.8645Z" fill="#F3F1FC"/>
<path d="M70.0877 58.5876L39.8605 41.0112L39.8096 20.9785L70.0368 38.5549L70.0877 58.5876Z" fill="#DEDFFB"/>
<path d="M65.8876 49.2966L65.8749 50.5821L65.8622 61.0057L54.6367 67.5221L43.3604 61.0057L43.3858 49.2966L47.8149 46.7257L48.7058 46.2039L48.9985 46.0385L50.1694 45.3511L54.5986 42.7803L65.8876 49.2966Z" fill="#AA6256"/>
<path d="M65.8818 49.2917L65.8655 61.0078L54.6394 67.5219L54.5508 55.8912L65.8818 49.2917Z" fill="#AA6256"/>
<path d="M65.8821 49.2917L65.8806 50.5869L54.6396 57.1195L54.6729 55.8058L65.8821 49.2917Z" fill="#774B24"/>
<path d="M54.6727 55.806L54.6395 67.522L43.3569 61.008L43.3901 49.292L54.6727 55.806Z" fill="#BF7D5A"/>
<path d="M65.8821 49.2919L61.4531 51.8639L59.0974 53.2346L54.6734 55.8076L43.3892 49.2909L47.8131 46.7213L50.1723 45.3507L54.5998 42.7776L65.8821 49.2919Z" fill="#8D613A"/>
<path d="M61.453 51.8638L59.0973 53.2345L47.813 46.7212L50.1722 45.3506L61.453 51.8638Z" fill="#DBA660"/>
<path d="M60.5578 52.3839L59.9923 52.7145L48.708 46.2012L49.2771 45.8706L60.5578 52.3839Z" fill="#8D613A"/>
<path d="M61.4524 51.864L61.4578 54.5696L60.8449 54.383L60.3387 55.2208L59.8614 54.9283L59.1026 55.9401L59.0972 53.2345L61.4524 51.864Z" fill="#DBA660"/>
<path d="M70.0409 38.5491L68.8594 37.8624L71.7769 36.178L72.9585 36.8646L70.0409 38.5491Z" fill="#DBB846"/>
<path d="M17.7024 38.1085C17.0598 37.9055 16.5233 37.5113 15.98 37.1255L16.0257 55.6203L18.0305 56.7853L17.9844 38.165C17.8943 38.1573 17.8004 38.1394 17.7024 38.1085Z" fill="#DEDFFB"/>
<path d="M20.898 35.0669L20.948 55.1008L18.0305 56.7852L17.9805 36.7513L20.898 35.0669Z" fill="#F3F1FC"/>
<path d="M45.5272 72.7646L17.2321 56.3213L17.1821 36.2874L45.4772 52.7307C46.7643 60.1893 47.1893 67.1181 45.5272 72.7646Z" fill="#DEDFFB"/>
<path d="M45.4775 52.7307L44.2959 52.044L47.2134 50.3596L48.395 51.0463L45.4775 52.7307Z" fill="#DBB846"/>
<path d="M48.3951 51.0464L48.4451 71.0803L45.5275 72.7647L45.4775 52.7308L48.3951 51.0464Z" fill="#F3F1FC"/>
<path d="M17.9804 36.7512L16.7988 36.0646L19.7163 34.3801L20.8979 35.0668L17.9804 36.7512Z" fill="#DBB846"/>
<path d="M42.5939 40.6874L41.4123 40.0008L41.3623 21.8828L42.5439 22.5695L42.5939 40.6874Z" fill="#E9E7FC"/>
<path d="M42.5439 22.5696L41.3623 21.8829L44.2798 20.1985L45.4614 20.8851L42.5439 22.5696Z" fill="#DBB846"/>
<path d="M45.4615 20.8853L45.5115 39.0032L42.594 40.6877L42.5439 22.5697L45.4615 20.8853Z" fill="#F3F1FC"/>
<path d="M59.2445 36.178L73.0085 36.9588L45.5259 52.8259L59.2445 36.178Z" fill="#F3F1FC"/>
<path d="M43.3153 55.5082L14.9577 39.0286L14.5439 38.4121C26.9833 42.8782 38.4463 47.6799 42.9015 54.8918L43.3153 55.5082Z" fill="#CC104A"/>
<path d="M59.2409 35.0623C63.4731 34.571 69.3321 35.1379 75.6347 35.9932L75.2258 37.0846L73.0081 36.9588L59.244 36.178L45.5255 52.8259L43.3151 55.5082L42.9014 54.8918C45.7042 46.1929 50.1216 38.7699 59.2409 35.0623Z" fill="#DF3260"/>
<path d="M59.2409 35.0621C43.3256 42.2614 36.1609 32.2751 30.8833 18.5825L47.2771 19.5134L75.6347 35.993L59.2409 35.0621Z" fill="#F45170"/>
<path d="M59.2421 35.0589L42.9003 54.888L14.5439 38.4062L30.8857 18.5771L59.2421 35.0589Z" fill="#E93565"/>
</svg>
