<svg width="19" height="20" viewBox="0 0 19 20" fill="none" xmlns="http://www.w3.org/2000/svg">
<path d="M17.7597 8.69928L14.0612 12.3045L14.9346 17.3965C14.9726 17.6192 14.8812 17.8442 14.6983 17.9772C14.595 18.0526 14.4721 18.0906 14.3492 18.0906C14.2548 18.0906 14.1598 18.0681 14.0731 18.0223L9.50003 15.6182L4.92756 18.0217C4.72806 18.1274 4.48522 18.1102 4.30234 17.9766C4.11947 17.8436 4.02803 17.6186 4.06603 17.3959L4.93944 12.3039L1.24038 8.69928C1.07888 8.54134 1.02009 8.30503 1.09016 8.09069C1.16022 7.87634 1.34606 7.719 1.56991 7.68634L6.6815 6.94415L8.96744 2.31172C9.16753 1.90619 9.83253 1.90619 10.0326 2.31172L12.3186 6.94415L17.4302 7.68634C17.654 7.719 17.8398 7.87575 17.9099 8.09069C17.98 8.30562 17.9212 8.54075 17.7597 8.69928Z" fill="#FCD34D"/>
</svg>
