<svg width="71" height="70" viewBox="0 0 71 70" fill="none" xmlns="http://www.w3.org/2000/svg">
<path d="M48.6223 60.7394C48.6223 61.8214 48.2328 62.5859 47.6125 62.9466L43.5442 65.3126C44.1645 64.9519 43.6452 64.4191 43.6452 63.3226C43.6596 61.1443 43.0248 58.2435 41.1205 57.1471C40.1684 56.5989 39.2883 56.5412 38.668 56.9019L42.7363 54.5503C43.3566 54.1752 44.2223 54.233 45.1888 54.7812C47.0931 55.8776 48.6223 58.5465 48.6223 60.7394Z" fill="#111D33"/>
<path d="M18.6765 43.4547C18.6765 44.5367 18.287 45.3013 17.6667 45.6619L13.5984 48.0279C14.2187 47.6673 13.3744 46.7806 13.3744 45.6842C13.3888 43.5059 13.079 40.9589 11.1747 39.8624C10.2226 39.3142 9.3425 39.2565 8.72217 39.6172L12.7905 37.2657C13.4108 36.8906 14.2765 36.9483 15.243 37.4965C17.1473 38.5929 18.6765 41.2619 18.6765 43.4547Z" fill="#111D33"/>
<path d="M6.13135 37.6634L22.1714 28.342C22.284 28.2765 22.4449 28.288 22.6232 28.391L6.58319 37.7124C6.40484 37.6094 6.24395 37.598 6.13135 37.6634Z" fill="#4C5C75"/>
<path d="M6.58301 37.7126L22.623 28.3911L23.585 28.909L7.54501 38.2304L6.58301 37.7126Z" fill="#4C5C75"/>
<path d="M7.54492 38.2301L23.5849 28.9087L52.2806 45.4685L36.2406 54.79L7.54492 38.2301Z" fill="#383736"/>
<path d="M36.2407 54.7902L52.2807 45.4688L64.7866 52.689L48.7466 62.0105L36.2407 54.7902Z" fill="#383736"/>
<path d="M64.8993 52.7515V55.0296C64.8993 55.2206 64.823 55.3478 64.7211 55.4114L48.6848 64.7405C48.7866 64.6769 47.5044 63.88 47.5044 63.6891L48.863 62.0805L64.8993 52.7515Z" fill="#4C5C75"/>
<path d="M48.7466 62.0104L64.7866 52.689L64.9009 52.755L48.8609 62.0764L48.7466 62.0104Z" fill="#383736"/>
<path d="M48.861 62.0762L48.8546 64.3492C48.8535 64.7321 48.5833 64.886 48.2501 64.6937L6.5747 40.6776C6.23566 40.4818 5.96138 40.0291 5.96241 39.6662L5.96708 38.0166C5.96812 37.6515 6.24406 37.5165 6.58311 37.7122L6.92866 37.8666L36.2408 54.7899L48.7467 62.0102L48.861 62.0762Z" fill="#1D2943"/>
<path d="M36.2469 52.5998L52.2869 43.2783L52.2807 45.4689L36.2407 54.7903L36.2469 52.5998Z" fill="#A0A8AA"/>
<path d="M7.55127 36.0397L23.5913 26.7183L52.287 43.2781L36.247 52.5995L7.55127 36.0397Z" fill="#A0A8AA"/>
<path d="M36.2468 52.5994L36.2406 54.79L7.54492 38.2301L7.55113 36.0396L36.2468 52.5994Z" fill="#1D2943"/>
<path d="M15.6987 45.9159L6.74219 40.7342C7.12695 39.0613 8.38494 38.3052 9.62619 38.3052C10.302 38.3052 11.008 38.5126 11.7173 38.9241C13.9589 40.2156 15.7054 43.343 15.6987 45.9159Z" fill="#111D33"/>
<path d="M11.1763 39.8642C13.0737 40.9597 14.6161 43.6312 14.6099 45.8116C14.6037 48.0024 13.0512 48.8872 11.1538 47.7917C9.24713 46.6909 7.70475 44.0193 7.71096 41.8285C7.71714 39.6481 9.2696 38.7634 11.1763 39.8642Z" fill="#4C5C75"/>
<path d="M11.1607 41.244C12.4507 41.9888 13.4885 43.7807 13.4844 45.2525C13.4836 46.745 12.4426 47.3382 11.1456 46.5854C9.86251 45.8446 8.83176 44.0471 8.83595 42.5688C8.84011 41.1025 9.88114 40.5092 11.1607 41.244ZM10.7281 41.4865C10.1387 41.3277 9.72042 41.4655 9.42419 41.9158C9.77098 42.2089 10.0967 42.4897 10.4296 42.7585C10.446 42.7717 10.4618 42.7826 10.4769 42.7913C10.5939 42.8589 10.6698 42.7953 10.6827 42.6384C10.6901 42.4934 10.6906 42.3403 10.6945 42.1933C10.7057 41.9658 10.7169 41.7342 10.7281 41.4865ZM11.6399 43.1466C11.6506 43.3649 11.7213 43.5096 11.8685 43.5946C11.9033 43.6147 11.9424 43.6315 11.9861 43.6451C12.0773 43.6776 12.1685 43.706 12.2562 43.7325C12.4667 43.7975 12.6772 43.8585 12.9017 43.9236C12.6125 43.1393 12.1929 42.5137 11.615 42.0066L11.5974 42.0327C11.6139 42.4054 11.6269 42.776 11.6399 43.1466ZM12.565 46.2711C12.9063 46.0405 13.0794 45.6562 13.1021 45.0762C12.8038 45.0331 12.523 44.9759 12.2527 44.953C12.1369 44.9426 12.091 45.0452 12.1607 45.2307C12.2896 45.5714 12.4256 45.9122 12.565 46.2711ZM10.0923 44.0406C10.1594 43.926 10.1142 43.7587 9.97069 43.6032C9.73265 43.3447 9.49109 43.0923 9.22503 42.8096C9.23393 43.3836 9.37982 43.9439 9.70114 44.5531C9.7857 44.4486 9.85971 44.3541 9.93371 44.2597C9.9866 44.1853 10.0465 44.123 10.0923 44.0406ZM11.162 46.1549C11.3867 46.2846 11.6098 46.3668 11.8378 46.404C11.6562 46.0531 11.4921 45.7162 11.3034 45.3934C11.2687 45.3333 11.1862 45.2597 11.1211 45.2222C11.0881 45.2031 11.0596 45.1933 11.0441 45.1994C10.8262 45.2914 10.6292 45.4278 10.4111 45.5561C10.6689 45.8145 10.9164 46.0131 11.162 46.1549ZM11.1583 43.3407C10.8883 43.1848 10.6597 43.3191 10.6588 43.6293C10.6579 43.9435 10.8816 44.3348 11.155 44.4927C11.1572 44.494 11.1593 44.4952 11.1614 44.4965C11.432 44.6527 11.657 44.5299 11.6614 44.2202C11.6693 43.9083 11.4352 43.5005 11.1642 43.3441C11.1622 43.3429 11.1603 43.3418 11.1583 43.3407ZM11.1634 42.7787C11.0862 42.7382 11.0229 42.7743 11.0227 42.8589C11.0224 42.9475 11.0853 43.0565 11.1625 43.101C11.2396 43.1455 11.2994 43.1114 11.3031 43.0248C11.3034 42.9362 11.2405 42.8233 11.1634 42.7787ZM10.7826 44.5561C10.7829 44.4697 10.7198 44.3583 10.6484 44.3171C10.6466 44.316 10.6447 44.315 10.6428 44.314C10.5657 44.2695 10.5024 44.3056 10.5022 44.3902C10.5019 44.4788 10.5648 44.5877 10.6419 44.6323C10.7156 44.6748 10.7789 44.6427 10.7826 44.5561ZM12.0086 44.3723C12.0857 44.4168 12.149 44.3847 12.1493 44.2961C12.1529 44.2117 12.0899 44.1003 12.0153 44.0572C12.0134 44.0561 12.0114 44.055 12.0095 44.054C11.9359 44.0115 11.8726 44.0476 11.8723 44.1322C11.8721 44.2208 11.935 44.3298 12.0086 44.3723ZM10.2803 43.3745C10.3575 43.419 10.4172 43.3849 10.421 43.2983C10.4212 43.2119 10.3615 43.1024 10.287 43.0594C10.2851 43.0583 10.2832 43.0572 10.2812 43.0562C10.2076 43.0137 10.1443 43.0498 10.1441 43.1344C10.1438 43.223 10.2032 43.3299 10.2803 43.3745ZM11.7291 45.1026C11.7294 45.0162 11.6696 44.9067 11.5952 44.8637C11.5932 44.8626 11.5913 44.8615 11.5894 44.8605C11.5157 44.818 11.4524 44.8541 11.4522 44.9387C11.4519 45.0273 11.5113 45.1342 11.5885 45.1787C11.6656 45.2233 11.7254 45.1892 11.7291 45.1026Z" fill="white"/>
<path d="M52.8212 21.7605L52.7703 43.0023L52.6812 43.0532L36.2249 52.5986V52.586L7.55029 36.0405L7.60117 14.7987C7.60117 14.4678 7.72849 14.226 7.91936 14.1114L24.4648 4.52778C24.6685 4.41321 24.9357 4.42594 25.2285 4.60415L51.7521 19.915C52.223 20.1823 52.6175 20.7551 52.7576 21.3278C52.7957 21.4678 52.8212 21.6205 52.8212 21.7605Z" fill="#FEBC1F"/>
<path d="M51.7523 19.9157L25.2297 4.60276C24.9316 4.43071 24.6618 4.4146 24.4671 4.52779L7.9165 14.1134C8.11126 14.0002 8.38103 14.0163 8.67907 14.1884L35.2018 29.5012C35.794 29.8432 36.2736 30.6716 36.2717 31.3521L36.2186 52.5908L52.7692 43.0052L52.8223 21.7665C52.8242 21.086 52.3446 20.2576 51.7523 19.9157Z" fill="#FFDE9B"/>
<path d="M52.8179 21.7699L52.7672 43.0064L36.2232 52.5938L36.2739 31.3573C36.2739 30.6744 35.7932 29.8395 35.1987 29.498L51.7554 19.9106C52.3498 20.2521 52.8305 21.0869 52.8179 21.7699Z" fill="#FFD06C"/>
<path d="M35.202 29.5011C35.7942 29.843 36.2738 30.6715 36.2719 31.352L36.2188 52.5907L7.55127 36.0395L7.60431 14.8008C7.60624 14.1203 8.08702 13.8463 8.67924 14.1882L35.202 29.5011Z" fill="#FEBC1F"/>
<path d="M36.4492 40.277L52.4892 30.9555C52.5944 30.8944 52.74 30.9031 52.9001 30.9956L36.8601 40.317C36.7 40.2246 36.5544 40.2158 36.4492 40.277Z" fill="#F8F9FE"/>
<path d="M65.3699 50.1553V52.3571C65.3699 52.5353 65.3063 52.6753 65.1917 52.7262L49.1554 62.0553C49.2572 61.9916 48.2495 61.6907 48.2495 61.5125L49.3336 59.4844L65.3699 50.1553Z" fill="#E9E7FC"/>
<path d="M65.3702 50.1549L49.3339 59.484C49.3339 59.1149 48.3538 59.5964 48.0356 59.4055V58.0713L64.072 48.7422L64.7974 49.1622C65.1156 49.3403 65.3702 49.7858 65.3702 50.1549Z" fill="#F3F1FC"/>
<path d="M36.8589 40.3195L52.8989 30.998L59.8406 35.0058L43.8006 44.3273C41.0311 42.8844 37.2872 41.2129 36.8589 40.3195Z" fill="#F8F9FE"/>
<path d="M48.0529 52.7331L64.093 43.4116L64.0778 48.7479L48.0378 58.0693C46.2318 56.1634 45.9055 54.3615 48.0529 52.7331Z" fill="#F8F9FE"/>
<path d="M47.9264 52.2428L63.9664 42.9214C64.0475 43.0886 64.0936 43.2601 64.0931 43.4115L48.0531 52.733C47.2698 52.8132 47.4968 52.561 47.9264 52.2428Z" fill="#F8F9FE"/>
<path d="M44.2524 44.8327L60.2924 35.5112L63.9663 42.9215L47.9263 52.243C46.1784 49.9005 44.917 47.4394 44.2524 44.8327Z" fill="#F3F1FC"/>
<path d="M63.1701 42.6836L59.2981 44.9351L55.8055 46.9621L54.1638 47.915L48.1829 51.3924L47.4971 50.0117L45.0483 45.0717L50.6135 41.8369L58.1481 37.4582L59.7927 36.5054L60.0355 36.3628L61.4647 39.2455L63.1701 42.6836Z" fill="#497BFE"/>
<path d="M43.8017 44.3247C43.9761 44.4253 44.1424 44.6128 44.2524 44.8324L47.9263 52.2427C48.0073 52.4099 48.0534 52.5814 48.053 52.7328L48.0378 58.069L48.7566 58.484C49.0743 58.6675 49.3331 59.1134 49.3321 59.4785L49.3258 61.6803C49.3248 62.0476 49.0643 62.1938 48.7466 62.0104L36.2407 54.7901L36.2469 52.5995L36.2808 40.6469C36.2819 40.2796 36.5423 40.1334 36.86 40.3169L43.8017 44.3247Z" fill="#DEDFFB"/>
<path d="M43.8018 44.3249L59.8418 35.0034C60.0161 35.1041 60.1825 35.2916 60.2925 35.5111L44.2525 44.8326C44.1425 44.613 43.9761 44.4255 43.8018 44.3249Z" fill="#F8F9FE"/>
<path d="M45.4344 49.8756L45.4283 51.7266C45.4283 52.0907 45.1704 52.2364 44.8517 52.0543L37.9211 48.0518C37.6055 47.8698 37.3506 47.4267 37.3506 47.0626L37.3658 42.4867C37.3658 42.1225 37.6237 41.9769 37.9393 42.1589L42.6214 44.8626C42.7762 44.9537 42.9279 45.1145 43.0341 45.3057L45.2796 49.3324C45.3797 49.5114 45.4344 49.7087 45.4344 49.8756Z" fill="#497BFE"/>
<path d="M59.1681 49.4033L59.1703 50.177L52.967 53.7584L52.9648 52.9848L59.1681 49.4033Z" fill="#B0B8CF"/>
<path d="M59.1642 47.7222L59.1664 48.4984L52.9631 52.0799L52.9609 51.3036L59.1642 47.7222Z" fill="#B0B8CF"/>
<path d="M45.6431 63.1993L36.6885 58.0195C37.0739 56.3475 38.3301 55.5889 39.5712 55.5889C40.2479 55.5889 40.9549 55.7982 41.6619 56.2079C43.9044 57.5006 45.6523 60.6291 45.6431 63.1993Z" fill="#111D33"/>
<path d="M41.1221 57.1494C43.0195 58.2449 44.5619 60.9164 44.5557 63.0967C44.5495 65.2876 42.997 66.1723 41.0996 65.0768C39.1929 63.976 37.6505 61.3045 37.6568 59.1136C37.6629 56.9333 39.2154 56.0486 41.1221 57.1494Z" fill="#4C5C75"/>
<path d="M41.1065 58.5291C42.3965 59.2739 43.4343 61.0659 43.4302 62.5377C43.4294 64.0301 42.3884 64.6234 41.0914 63.8705C39.8083 63.1297 38.7776 61.3323 38.7818 59.8539C38.7859 58.3877 39.8269 57.7944 41.1065 58.5291ZM40.6739 58.7716C40.0845 58.6129 39.6662 58.7507 39.37 59.201C39.7168 59.494 40.0425 59.7749 40.3754 60.0437C40.3918 60.0569 40.4076 60.0678 40.4227 60.0765C40.5397 60.144 40.6156 60.0805 40.6285 59.9236C40.6359 59.7786 40.6364 59.6255 40.6403 59.4785C40.6515 59.2509 40.6627 59.0193 40.6739 58.7716ZM41.5857 60.4318C41.5964 60.6501 41.6671 60.7948 41.8143 60.8798C41.8491 60.8999 41.8882 60.9166 41.9319 60.9302C42.0231 60.9627 42.1143 60.9912 42.202 61.0176C42.4125 61.0827 42.623 61.1437 42.8475 61.2088C42.5583 60.4244 42.1387 59.7989 41.5608 59.2917L41.5432 59.3179C41.5597 59.6905 41.5727 60.0612 41.5857 60.4318ZM42.5108 63.5563C42.8521 63.3256 43.0252 62.9414 43.0479 62.3614C42.7496 62.3183 42.4688 62.2611 42.1985 62.2382C42.0827 62.2278 42.0368 62.3304 42.1065 62.5158C42.2354 62.8566 42.3714 63.1974 42.5108 63.5563ZM40.0381 61.3257C40.1052 61.2111 40.06 61.0438 39.9165 60.8883C39.6785 60.6299 39.4369 60.3774 39.1708 60.0947C39.1797 60.6687 39.3256 61.2291 39.6469 61.8383C39.7315 61.7337 39.8055 61.6393 39.8795 61.5448C39.9324 61.4705 39.9923 61.4082 40.0381 61.3257ZM41.1078 63.44C41.3325 63.5697 41.5556 63.652 41.7836 63.6892C41.602 63.3382 41.4379 63.0014 41.2492 62.6786C41.2145 62.6184 41.132 62.5448 41.0669 62.5073C41.0339 62.4882 41.0054 62.4784 40.9899 62.4845C40.772 62.5766 40.575 62.713 40.3569 62.8413C40.6147 63.0997 40.8622 63.2982 41.1078 63.44ZM41.1041 60.6258C40.8341 60.47 40.6055 60.6043 40.6046 60.9144C40.6037 61.2286 40.8274 61.62 41.1008 61.7779C41.103 61.7792 41.1051 61.7804 41.1072 61.7816C41.3778 61.9378 41.6028 61.8151 41.6072 61.5054C41.6151 61.1935 41.381 60.7856 41.11 60.6292C41.108 60.6281 41.106 60.6269 41.1041 60.6258ZM41.1092 60.0639C41.032 60.0234 40.9687 60.0595 40.9685 60.1441C40.9682 60.2327 41.0311 60.3416 41.1083 60.3861C41.1854 60.4307 41.2452 60.3966 41.2489 60.31C41.2492 60.2214 41.1863 60.1084 41.1092 60.0639ZM40.7284 61.8413C40.7287 61.7549 40.6656 61.6435 40.5942 61.6023C40.5924 61.6012 40.5905 61.6002 40.5886 61.5992C40.5115 61.5547 40.4482 61.5907 40.448 61.6753C40.4477 61.764 40.5106 61.8729 40.5877 61.9174C40.6614 61.9599 40.7247 61.9279 40.7284 61.8413ZM41.9544 61.6574C42.0315 61.7019 42.0948 61.6699 42.0951 61.5813C42.0987 61.4969 42.0357 61.3855 41.9611 61.3424C41.9592 61.3413 41.9572 61.3402 41.9553 61.3392C41.8817 61.2967 41.8184 61.3328 41.8181 61.4173C41.8179 61.506 41.8808 61.6149 41.9544 61.6574ZM40.2261 60.6596C40.3033 60.7041 40.363 60.67 40.3668 60.5835C40.3671 60.4971 40.3073 60.3876 40.2328 60.3446C40.2309 60.3435 40.229 60.3424 40.227 60.3414C40.1534 60.2989 40.0901 60.3349 40.0899 60.4195C40.0896 60.5082 40.149 60.6151 40.2261 60.6596ZM41.6749 62.3877C41.6752 62.3014 41.6154 62.1919 41.541 62.1489C41.539 62.1478 41.5371 62.1467 41.5352 62.1457C41.4615 62.1032 41.3982 62.1392 41.398 62.2238C41.3977 62.3124 41.4571 62.4194 41.5343 62.4639C41.6114 62.5084 41.6712 62.4743 41.6749 62.3877Z" fill="white"/>
<g opacity="0.3">
<path d="M58.148 37.458L54.1638 47.9147L48.1828 51.3922L47.4971 50.0115L50.6134 41.8367L58.148 37.458Z" fill="white"/>
</g>
<g opacity="0.3">
<path d="M61.4644 39.2455L59.2978 44.9351L55.8052 46.9621L59.7924 36.5054L60.0352 36.3628L61.4644 39.2455Z" fill="white"/>
</g>
<path d="M52.1231 52.2236C52.2394 52.1564 52.3366 52.2063 52.337 52.34L52.3423 54.1889C52.3427 54.3282 52.246 54.4899 52.1297 54.5571L49.5513 56.0458C49.4349 56.1129 49.3426 56.0603 49.3422 55.921L49.3369 54.0721C49.3365 53.9384 49.4283 53.7794 49.5446 53.7123L52.1231 52.2236Z" fill="#FEBC1F"/>
<path d="M63.4958 45.7302C63.4502 45.7075 63.3971 45.7151 63.3364 45.7454L60.763 47.2333C60.6415 47.3016 60.5504 47.461 60.5504 47.5977L60.558 49.4423C60.558 49.5183 60.5808 49.5638 60.6187 49.5866L60.0873 49.2753C60.0494 49.2525 60.019 49.207 60.019 49.1311V47.2865C60.019 47.1498 60.1101 46.9904 60.224 46.9296L62.805 45.4342C62.8657 45.4038 62.9189 45.3962 62.9568 45.419L63.4958 45.7302Z" fill="#FFD06C"/>
<path d="M51.7447 51.8941L52.2761 52.2053C52.2381 52.1826 52.185 52.1901 52.1242 52.2205L49.5432 53.7084C49.4294 53.7767 49.3383 53.9361 49.3383 54.0728L49.3459 55.9174C49.3459 55.9933 49.3687 56.0389 49.4066 56.0617L48.8677 55.7504C48.8297 55.7277 48.8069 55.6821 48.8069 55.6062L48.7993 53.7615C48.7993 53.6249 48.8904 53.4655 49.0119 53.4048L51.5853 51.9093C51.646 51.8789 51.6991 51.8713 51.7447 51.8941Z" fill="#FFD06C"/>
<path d="M63.3384 45.748C63.4547 45.6808 63.552 45.7307 63.5523 45.8644L63.5576 47.7133C63.558 47.8526 63.4613 48.0143 63.345 48.0815L60.7666 49.5702C60.6503 49.6373 60.5579 49.5847 60.5575 49.4454L60.5522 47.5965C60.5519 47.4628 60.6436 47.3038 60.76 47.2367L63.3384 45.748Z" fill="#FEBC1F"/>
<path d="M50.1917 45.8601C49.3438 45.8601 48.6563 46.5479 48.6563 47.3958C48.6563 46.5479 47.9685 45.8604 47.1206 45.8604C47.9685 45.8604 48.6559 45.1726 48.6559 44.3247C48.6559 45.1726 49.3438 45.8601 50.1917 45.8601Z" fill="#F8F9FE"/>
</svg>
