<svg width="40" height="40" viewBox="0 0 40 40" fill="none" xmlns="http://www.w3.org/2000/svg">
<g clip-path="url(#clip0_544_132)">
<path d="M35.0002 14.9966C35.0002 19.3133 33.1369 23.4216 29.8869 26.2683C28.6552 27.3483 27.7619 28.6233 27.2302 29.9966H25.8336V30H14.1669V29.9966H12.6052C12.0086 28.535 11.0619 27.16 9.78022 25.9683C6.19855 22.6333 4.50188 17.9183 5.12522 13.0333C5.98355 6.29997 11.5069 0.858304 18.2602 0.0949708C22.5386 -0.386696 26.8102 0.964971 29.9902 3.80664C33.1736 6.65164 35.0002 10.73 35.0002 14.9966ZM22.5002 22.5C22.5002 21.12 21.3802 20 20.0002 20C18.6202 20 17.5002 21.12 17.5002 22.5C17.5002 23.88 18.6202 25 20.0002 25C21.3802 25 22.5002 23.88 22.5002 22.5ZM24.9219 10.7766C24.5686 8.75664 22.9102 7.0983 20.8936 6.74664C19.4169 6.47664 17.9219 6.88164 16.7869 7.83497C15.6502 8.7883 15.0002 10.185 15.0002 11.6666C15.0002 12.5883 15.7452 13.3333 16.6669 13.3333C17.5886 13.3333 18.3336 12.5883 18.3336 11.6666C18.3336 11.1716 18.5519 10.7066 18.9302 10.3883C19.3119 10.065 19.8002 9.9333 20.3169 10.0283C20.9685 10.1416 21.5235 10.6966 21.6385 11.3516C21.7935 12.235 21.2836 12.86 20.8019 13.1266C20.0636 13.5333 18.3336 14.485 18.3336 16.665C18.3336 17.5866 19.0786 18.3316 20.0002 18.3316C20.9219 18.3316 21.6669 17.5866 21.6669 16.665C21.6669 16.5766 21.6669 16.4566 22.4119 16.0466C24.2869 15.0116 25.2936 12.8933 24.9219 10.7766Z" fill="#254FEA"/>
<path d="M26.6668 33.33H13.3352V33.8466C13.3352 37.2383 16.0935 39.9966 19.4852 39.9966H20.5168C23.9085 39.9966 26.6668 37.2383 26.6668 33.8466V33.33Z" fill="#92A7F5"/>
</g>
<defs>
<clipPath id="clip0_544_132">
<rect width="40" height="40" fill="white"/>
</clipPath>
</defs>
</svg>
