<svg width="40" height="40" viewBox="0 0 40 40" fill="none" xmlns="http://www.w3.org/2000/svg">
<g clip-path="url(#clip0_544_34)">
<path d="M33.3333 0H6.66667C2.985 0 0 2.985 0 6.66667V25C0 25.5667 0.0733333 26.1267 0.213333 26.6667L0.385 25.3517C0.49 24.5467 0.703333 23.765 1.02 23.0183C1.45833 21.9883 2.06833 20.575 2.27667 20.2117L5.705 14.2117C7.78167 10.5767 11.6467 8.33333 15.8333 8.33333H24.465C28.65 8.33333 32.515 10.5767 34.5933 14.21L38.0233 20.2133C38.2567 20.6217 38.8433 21.965 39.18 22.75C39.3467 23.1383 39.465 23.5383 39.54 23.9533L39.9183 26.0517C39.9733 25.7067 40.0017 25.355 40.0017 25.0017V6.66667C40.0017 2.985 37.015 0 33.3333 0Z" fill="#92A7F5"/>
<path d="M4.46338 23.3334H35.835C35.635 22.83 35.4 22.34 35.13 21.8667L31.7 15.865C30.22 13.275 27.4484 11.665 24.465 11.665H15.8334C12.85 11.665 10.0784 13.275 8.59838 15.865L5.16838 21.8667C4.89838 22.34 4.66338 22.83 4.46338 23.3334Z" fill="#254FEA"/>
<path d="M29.9997 26.6666H36.623C36.6513 26.995 36.6663 27.325 36.6663 27.6566V30C36.6663 32.4633 35.3247 34.6166 33.333 35.7716V36.6666C33.333 38.5083 31.8413 40 29.9997 40C28.158 40 26.6663 38.5083 26.6663 36.6666H13.6313C13.6313 38.5083 12.1397 40 10.298 40C8.45635 40 6.96468 38.5083 6.96468 36.6666V35.7716C4.97301 34.6183 3.63135 32.4633 3.63135 30V27.6566C3.63135 27.325 3.64635 26.995 3.67468 26.6666H10.298V28.3333C10.298 29.255 11.043 30 11.9647 30C12.8863 30 13.6313 29.255 13.6313 28.3333V26.6666H26.6663V28.3333C26.6663 29.255 27.4113 30 28.333 30C29.2547 30 29.9997 29.255 29.9997 28.3333V26.6666Z" fill="#254FEA"/>
</g>
<defs>
<clipPath id="clip0_544_34">
<rect width="40" height="40" fill="white"/>
</clipPath>
</defs>
</svg>
