<svg width="40" height="40" viewBox="0 0 40 40" fill="none" xmlns="http://www.w3.org/2000/svg">
<g clip-path="url(#clip0_543_31)">
<path d="M40 11.6666V31.6666C39.9974 33.876 39.1185 35.994 37.5563 37.5563C35.9941 39.1185 33.876 39.9973 31.6667 40H8.33333C6.12401 39.9973 4.00593 39.1185 2.4437 37.5563C0.88147 35.994 0.00264643 33.876 0 31.6666L0 11.6666H13.57C13.9338 13.0959 14.7634 14.3633 15.9279 15.2685C17.0923 16.1737 18.5251 16.6651 20 16.6651C21.4749 16.6651 22.9077 16.1737 24.0721 15.2685C25.2366 14.3633 26.0662 13.0959 26.43 11.6666H40ZM33.3333 31.6666C33.3333 31.2246 33.1577 30.8007 32.8452 30.4881C32.5326 30.1756 32.1087 30 31.6667 30H26.6667C26.2246 30 25.8007 30.1756 25.4882 30.4881C25.1756 30.8007 25 31.2246 25 31.6666C25 32.1087 25.1756 32.5326 25.4882 32.8451C25.8007 33.1577 26.2246 33.3333 26.6667 33.3333H31.6667C32.1087 33.3333 32.5326 33.1577 32.8452 32.8451C33.1577 32.5326 33.3333 32.1087 33.3333 31.6666Z" fill="#254FEA"/>
<path d="M8.33333 0H13.3333V8.33333H0C0.00264643 6.12401 0.88147 4.00593 2.4437 2.4437C4.00593 0.88147 6.12401 0.00264643 8.33333 0Z" fill="#254FEA" fill-opacity="0.5"/>
<path d="M39.9998 8.33333H26.6665V0H31.6665C33.8758 0.00264643 35.9939 0.88147 37.5561 2.4437C39.1184 4.00593 39.9972 6.12401 39.9998 8.33333Z" fill="#254FEA" fill-opacity="0.5"/>
<path d="M16.6665 0V10C16.6665 10.8841 17.0177 11.7319 17.6428 12.357C18.2679 12.9821 19.1158 13.3333 19.9998 13.3333C20.8839 13.3333 21.7317 12.9821 22.3569 12.357C22.982 11.7319 23.3332 10.8841 23.3332 10V0H16.6665Z" fill="#254FEA" fill-opacity="0.5"/>
</g>
<defs>
<clipPath id="clip0_543_31">
<rect width="40" height="40" fill="white"/>
</clipPath>
</defs>
</svg>
