<svg width="40" height="40" viewBox="0 0 40 40" fill="none" xmlns="http://www.w3.org/2000/svg">
<g clip-path="url(#clip0_544_48)">
<path d="M40 8.33333V26.6667H31.6667C28.91 26.6667 26.6667 28.91 26.6667 31.6667V40H8.33333C3.73833 40 0 36.2617 0 31.6667V8.33333C0 3.73833 3.73833 0 8.33333 0H31.6667C36.2617 0 40 3.73833 40 8.33333ZM11.6667 29.1667C11.6667 27.7867 10.5467 26.6667 9.16667 26.6667C7.78667 26.6667 6.66667 27.7867 6.66667 29.1667C6.66667 30.5467 7.78667 31.6667 9.16667 31.6667C10.5467 31.6667 11.6667 30.5467 11.6667 29.1667ZM11.6667 20C11.6667 18.62 10.5467 17.5 9.16667 17.5C7.78667 17.5 6.66667 18.62 6.66667 20C6.66667 21.38 7.78667 22.5 9.16667 22.5C10.5467 22.5 11.6667 21.38 11.6667 20ZM11.6667 10.8333C11.6667 9.45333 10.5467 8.33333 9.16667 8.33333C7.78667 8.33333 6.66667 9.45333 6.66667 10.8333C6.66667 12.2133 7.78667 13.3333 9.16667 13.3333C10.5467 13.3333 11.6667 12.2133 11.6667 10.8333Z" fill="#254FEA"/>
<path d="M37.558 33.5083C38.553 32.5133 39.2647 31.3117 39.6547 30H31.6647C30.7464 30 29.998 30.7467 29.998 31.6667V39.655C31.3097 39.265 32.513 38.5533 33.508 37.5583L37.558 33.5083Z" fill="#92A7F5"/>
</g>
<defs>
<clipPath id="clip0_544_48">
<rect width="40" height="40" fill="white"/>
</clipPath>
</defs>
</svg>
